<svg width="856" height="229" viewBox="0 0 856 229" fill="none" xmlns="http://www.w3.org/2000/svg">
<path d="M13.2164 98C10.7464 98 9.18641 96.31 9.31641 94.1L16.5964 10.9C16.7264 8.56 18.1564 6.99999 20.4964 6.99999H48.8364C51.1764 6.99999 52.4764 8.56 52.7364 10.9L59.8864 94.1C60.1464 96.31 58.4564 98 55.9864 98H42.0764C39.8664 98 38.3064 96.57 38.1764 94.1L37.7864 85.26H31.4164L31.0264 94.1C30.8964 96.44 29.4664 98 27.1264 98H13.2164ZM32.4564 64.46H36.7464L35.0564 27.8H34.2764L32.4564 64.46ZM93.6438 10.9C93.6438 8.56 95.2038 6.99999 97.5438 6.99999H125.494C127.834 6.99999 129.394 8.56 129.394 10.9V23.9C129.394 26.24 127.834 27.8 125.494 27.8H115.354V50.55H125.494C127.834 50.55 129.394 52.11 129.394 54.45V67.45C129.394 69.79 127.834 71.35 125.494 71.35H115.354V94.1C115.354 96.44 113.794 98 111.454 98H97.5438C95.2038 98 93.6438 96.44 93.6438 94.1V10.9ZM131.603 10.9C131.603 8.56 133.163 6.99999 135.503 6.99999H163.453C165.793 6.99999 167.353 8.56 167.353 10.9V23.9C167.353 26.24 165.793 27.8 163.453 27.8H153.313V43.4H163.453C165.793 43.4 167.353 44.96 167.353 47.3V60.3C167.353 62.64 165.793 64.2 163.453 64.2H153.313V77.2H163.453C165.793 77.2 167.353 78.76 167.353 81.1V94.1C167.353 96.44 165.793 98 163.453 98H135.503C133.163 98 131.603 96.44 131.603 94.1V10.9ZM168.389 10.9C168.259 8.69 169.819 6.99999 172.289 6.99999H187.499C189.839 6.99999 191.269 8.56 191.399 10.9L194.649 77.07H196.599L198.549 10.9C198.679 8.43 200.239 6.99999 202.449 6.99999H225.719C228.059 6.99999 229.489 8.56 229.619 10.9L231.569 77.07H233.519L236.769 10.9C236.899 8.43 238.459 6.99999 240.669 6.99999H255.879C258.349 6.99999 259.909 8.69 259.779 10.9L252.499 94.1C252.369 96.44 250.939 98 248.599 98H218.959C216.619 98 215.059 96.44 215.059 94.1V47.69H213.109V94.1C213.109 96.44 211.549 98 209.209 98H179.569C177.229 98 175.799 96.44 175.669 94.1L168.389 10.9ZM292.295 10.9C292.165 8.69 293.725 6.99999 296.195 6.99999H311.405C313.745 6.99999 315.175 8.56 315.305 10.9L318.555 77.07H320.505L322.455 10.9C322.585 8.43 324.145 6.99999 326.355 6.99999H349.625C351.965 6.99999 353.395 8.56 353.525 10.9L355.475 77.07H357.425L360.675 10.9C360.805 8.43 362.365 6.99999 364.575 6.99999H379.785C382.255 6.99999 383.815 8.69 383.685 10.9L376.405 94.1C376.275 96.44 374.845 98 372.505 98H342.865C340.525 98 338.965 96.44 338.965 94.1V47.69H337.015V94.1C337.015 96.44 335.455 98 333.115 98H303.475C301.135 98 299.705 96.44 299.575 94.1L292.295 10.9ZM407.361 98.65C393.061 98.65 384.611 91.76 384.611 80.19V24.81C384.611 13.24 393.061 6.34999 407.361 6.34999C421.661 6.34999 430.111 13.24 430.111 24.81V80.19C430.111 91.76 421.661 98.65 407.361 98.65ZM407.361 27.15C406.451 27.15 406.321 27.93 406.321 29.36V75.64C406.321 77.07 406.451 77.85 407.361 77.85C408.271 77.85 408.401 77.07 408.401 75.64V29.36C408.401 27.93 408.271 27.15 407.361 27.15ZM432.355 10.9C432.355 8.56 433.915 6.99999 436.255 6.99999H463.685C475.125 6.99999 477.725 9.86 477.725 22.21V40.54C477.725 44.44 477.205 54.19 465.895 54.19H463.035V56.14H465.895C473.565 56.14 477.595 58.48 477.595 65.63V93.45C477.595 96.18 475.775 98 473.045 98H459.785C457.445 98 455.885 96.44 455.885 94.1V65.89C455.885 62.51 455.625 61.99 454.585 61.99H454.065V93.45C454.065 96.18 452.245 98 449.515 98H436.255C433.915 98 432.355 96.44 432.355 94.1V10.9ZM454.065 36.51H454.455C455.885 36.51 456.015 36.38 456.015 34.56V29.88C456.015 28.32 455.885 27.93 454.455 27.93H454.065V36.51ZM480.343 94.1V10.9C480.343 8.56 481.903 6.99999 484.243 6.99999H511.673C522.983 6.99999 525.713 9.98999 525.713 22.21V80.32C525.713 93.58 522.203 98 511.673 98H484.243C481.903 98 480.343 96.44 480.343 94.1ZM502.053 77.2H502.443C503.873 77.2 504.003 76.94 504.003 75.25V29.88C504.003 28.32 503.873 27.93 502.443 27.93H502.053V77.2ZM540.037 63.68C530.157 63.68 527.687 61.21 527.687 51.33V24.81C527.687 12.85 536.527 6.34999 550.437 6.34999C564.347 6.34999 573.187 12.85 573.187 24.81V38.33C573.187 40.67 571.627 42.23 569.287 42.23H555.377C553.037 42.23 551.477 40.67 551.477 38.33V29.36C551.477 27.93 551.347 27.15 550.437 27.15C549.527 27.15 549.397 27.93 549.397 29.36V37.29C549.397 43.14 550.827 44.44 556.547 44.44H560.837C570.457 44.44 573.187 47.17 573.187 56.79V80.19C573.187 92.15 564.347 98.65 550.437 98.65C536.527 98.65 527.687 92.15 527.687 80.19V70.05C527.687 67.71 529.247 66.15 531.587 66.15H545.497C547.837 66.15 549.397 67.71 549.397 70.05V75.64C549.397 77.07 549.527 77.85 550.437 77.85C551.347 77.85 551.477 77.07 551.477 75.64V70.44C551.477 65.37 549.397 63.68 544.327 63.68H540.037ZM610.531 98C608.061 98 606.501 96.31 606.631 94.1L613.911 10.9C614.041 8.56 615.471 6.99999 617.811 6.99999H646.151C648.491 6.99999 649.791 8.56 650.051 10.9L657.201 94.1C657.461 96.31 655.771 98 653.301 98H639.391C637.181 98 635.621 96.57 635.491 94.1L635.101 85.26H628.731L628.341 94.1C628.211 96.44 626.781 98 624.441 98H610.531ZM629.771 64.46H634.061L632.371 27.8H631.591L629.771 64.46ZM658.458 94.1V10.9C658.458 8.56 660.018 6.99999 662.358 6.99999H689.788C701.098 6.99999 703.828 9.98999 703.828 22.21V35.73C703.828 43.79 699.278 48.47 691.478 48.47H688.488V50.29H691.478C699.668 50.42 703.828 54.45 703.828 62.12V80.32C703.828 93.58 700.318 98 689.788 98H662.358C660.018 98 658.458 96.44 658.458 94.1ZM680.168 40.54H680.558C681.988 40.54 682.118 40.41 682.118 38.59V29.88C682.118 28.32 681.988 27.93 680.558 27.93H680.168V40.54ZM680.168 77.07H680.558C681.988 77.07 682.118 76.94 682.118 75.12V66.41C682.118 64.85 681.988 64.46 680.558 64.46H680.168V77.07ZM728.553 98.65C714.253 98.65 705.803 91.76 705.803 80.19V24.81C705.803 13.24 714.253 6.34999 728.553 6.34999C742.853 6.34999 751.303 13.24 751.303 24.81V80.19C751.303 91.76 742.853 98.65 728.553 98.65ZM728.553 27.15C727.643 27.15 727.513 27.93 727.513 29.36V75.64C727.513 77.07 727.643 77.85 728.553 77.85C729.463 77.85 729.593 77.07 729.593 75.64V29.36C729.593 27.93 729.463 27.15 728.553 27.15ZM753.156 79.02V10.9C753.156 8.56 754.716 6.99999 757.056 6.99999H770.966C773.306 6.99999 774.866 8.56 774.866 10.9V76.29C774.866 77.46 775.386 77.72 775.906 77.72C776.296 77.72 776.816 77.46 776.816 76.29V10.9C776.816 8.56 778.376 6.99999 780.716 6.99999H794.626C796.966 6.99999 798.526 8.56 798.526 10.9V79.02C798.526 92.41 789.946 98.65 775.906 98.65C762.906 98.65 753.156 92.41 753.156 79.02ZM800.123 10.9C800.123 8.56 801.683 6.99999 804.023 6.99999H841.073C843.413 6.99999 844.973 8.56 844.973 10.9V23.9C844.973 26.24 843.413 27.8 841.073 27.8H833.403V94.1C833.403 96.44 831.843 98 829.503 98H815.593C813.253 98 811.693 96.44 811.693 94.1V27.8H804.023C801.683 27.8 800.123 26.24 800.123 23.9V10.9ZM22.8836 228.65C8.58363 228.65 0.133633 221.76 0.133633 210.19V154.81C0.133633 143.24 8.58363 136.35 22.8836 136.35C37.1836 136.35 45.6336 143.24 45.6336 154.81V210.19C45.6336 221.76 37.1836 228.65 22.8836 228.65ZM22.8836 157.15C21.9736 157.15 21.8436 157.93 21.8436 159.36V205.64C21.8436 207.07 21.9736 207.85 22.8836 207.85C23.7936 207.85 23.9236 207.07 23.9236 205.64V159.36C23.9236 157.93 23.7936 157.15 22.8836 157.15ZM47.4871 209.02V140.9C47.4871 138.56 49.0471 137 51.3871 137H65.2971C67.6371 137 69.1971 138.56 69.1971 140.9V206.29C69.1971 207.46 69.7171 207.72 70.2371 207.72C70.6271 207.72 71.1471 207.46 71.1471 206.29V140.9C71.1471 138.56 72.7071 137 75.0471 137H88.9571C91.2971 137 92.8571 138.56 92.8571 140.9V209.02C92.8571 222.41 84.2772 228.65 70.2371 228.65C57.2371 228.65 47.4871 222.41 47.4871 209.02ZM95.1037 140.9C95.1037 138.56 96.6637 137 99.0037 137H126.434C137.874 137 140.474 139.86 140.474 152.21V170.54C140.474 174.44 139.954 184.19 128.644 184.19H125.784V186.14H128.644C136.314 186.14 140.344 188.48 140.344 195.63V223.45C140.344 226.18 138.524 228 135.794 228H122.534C120.194 228 118.634 226.44 118.634 224.1V195.89C118.634 192.51 118.374 191.99 117.334 191.99H116.814V223.45C116.814 226.18 114.994 228 112.264 228H99.0037C96.6637 228 95.1037 226.44 95.1037 224.1V140.9ZM116.814 166.51H117.204C118.634 166.51 118.764 166.38 118.764 164.56V159.88C118.764 158.32 118.634 157.93 117.204 157.93H116.814V166.51ZM174.292 140.9C174.162 138.69 175.722 137 178.192 137H193.402C195.742 137 197.172 138.56 197.302 140.9L200.552 207.07H202.502L204.452 140.9C204.582 138.43 206.142 137 208.352 137H231.622C233.962 137 235.392 138.56 235.522 140.9L237.472 207.07H239.422L242.672 140.9C242.802 138.43 244.362 137 246.572 137H261.782C264.252 137 265.812 138.69 265.682 140.9L258.402 224.1C258.272 226.44 256.842 228 254.502 228H224.862C222.522 228 220.962 226.44 220.962 224.1V177.69H219.012V224.1C219.012 226.44 217.452 228 215.112 228H185.472C183.132 228 181.702 226.44 181.572 224.1L174.292 140.9ZM266.998 140.9C266.998 138.56 268.558 137 270.898 137H284.808C287.148 137 288.708 138.56 288.708 140.9V224.1C288.708 226.44 287.148 228 284.808 228H270.898C268.558 228 266.998 226.44 266.998 224.1V140.9ZM295.146 228C292.806 228 291.246 226.44 291.246 224.1V140.9C291.246 138.56 292.806 137 295.146 137H324.916C327.256 137 328.816 138.56 328.816 140.9V207.2H330.766V140.9C330.766 138.56 332.326 137 334.666 137H348.576C350.916 137 352.476 138.56 352.476 140.9V224.1C352.476 226.44 350.916 228 348.576 228H318.806C316.596 228 315.036 226.44 314.906 224.1V157.8H312.956V224.1C312.956 226.44 311.396 228 309.056 228H295.146ZM355.104 140.9C355.104 138.56 356.664 137 359.004 137H386.954C389.294 137 390.854 138.56 390.854 140.9V153.9C390.854 156.24 389.294 157.8 386.954 157.8H376.814V173.4H386.954C389.294 173.4 390.854 174.96 390.854 177.3V190.3C390.854 192.64 389.294 194.2 386.954 194.2H376.814V207.2H386.954C389.294 207.2 390.854 208.76 390.854 211.1V224.1C390.854 226.44 389.294 228 386.954 228H359.004C356.664 228 355.104 226.44 355.104 224.1V140.9ZM428.29 228C425.82 228 424.26 226.31 424.39 224.1L431.67 140.9C431.8 138.56 433.23 137 435.57 137H463.91C466.25 137 467.55 138.56 467.81 140.9L474.96 224.1C475.22 226.31 473.53 228 471.06 228H457.15C454.94 228 453.38 226.57 453.25 224.1L452.86 215.26H446.49L446.1 224.1C445.97 226.44 444.54 228 442.2 228H428.29ZM447.53 194.46H451.82L450.13 157.8H449.35L447.53 194.46ZM480.117 228C477.777 228 476.217 226.44 476.217 224.1V140.9C476.217 138.56 477.777 137 480.117 137H509.887C512.227 137 513.787 138.56 513.787 140.9V207.2H515.737V140.9C515.737 138.56 517.297 137 519.637 137H533.547C535.887 137 537.447 138.56 537.447 140.9V224.1C537.447 226.44 535.887 228 533.547 228H503.777C501.567 228 500.007 226.44 499.877 224.1V157.8H497.927V224.1C497.927 226.44 496.367 228 494.027 228H480.117ZM540.074 224.1V140.9C540.074 138.56 541.634 137 543.974 137H571.404C582.714 137 585.444 139.99 585.444 152.21V210.32C585.444 223.58 581.934 228 571.404 228H543.974C541.634 228 540.074 226.44 540.074 224.1ZM561.784 207.2H562.174C563.604 207.2 563.734 206.94 563.734 205.25V159.88C563.734 158.32 563.604 157.93 562.174 157.93H561.784V207.2ZM620.309 140.9C620.309 138.56 621.869 137 624.209 137H652.159C654.499 137 656.059 138.56 656.059 140.9V153.9C656.059 156.24 654.499 157.8 652.159 157.8H642.019V173.4H652.159C654.499 173.4 656.059 174.96 656.059 177.3V190.3C656.059 192.64 654.499 194.2 652.159 194.2H642.019V207.2H652.159C654.499 207.2 656.059 208.76 656.059 211.1V224.1C656.059 226.44 654.499 228 652.159 228H624.209C621.869 228 620.309 226.44 620.309 224.1V140.9ZM657.095 140.9C656.965 138.69 658.525 137 660.995 137H674.905C677.245 137 678.675 138.56 678.805 140.9L682.055 207.07H682.835L685.955 140.9C686.085 138.43 687.645 137 689.855 137H703.765C706.235 137 707.925 138.69 707.665 140.9L700.515 224.1C700.255 226.44 698.955 228 696.615 228H668.275C665.935 228 664.505 226.44 664.375 224.1L657.095 140.9ZM708.922 140.9C708.922 138.56 710.482 137 712.822 137H740.772C743.112 137 744.672 138.56 744.672 140.9V153.9C744.672 156.24 743.112 157.8 740.772 157.8H730.632V173.4H740.772C743.112 173.4 744.672 174.96 744.672 177.3V190.3C744.672 192.64 743.112 194.2 740.772 194.2H730.632V207.2H740.772C743.112 207.2 744.672 208.76 744.672 211.1V224.1C744.672 226.44 743.112 228 740.772 228H712.822C710.482 228 708.922 226.44 708.922 224.1V140.9ZM750.908 228C748.568 228 747.008 226.44 747.008 224.1V140.9C747.008 138.56 748.568 137 750.908 137H780.678C783.018 137 784.578 138.56 784.578 140.9V207.2H786.528V140.9C786.528 138.56 788.088 137 790.428 137H804.338C806.678 137 808.238 138.56 808.238 140.9V224.1C808.238 226.44 806.678 228 804.338 228H774.568C772.358 228 770.798 226.44 770.668 224.1V157.8H768.718V224.1C768.718 226.44 767.158 228 764.818 228H750.908ZM810.215 140.9C810.215 138.56 811.775 137 814.115 137H851.165C853.505 137 855.065 138.56 855.065 140.9V153.9C855.065 156.24 853.505 157.8 851.165 157.8H843.495V224.1C843.495 226.44 841.935 228 839.595 228H825.685C823.345 228 821.785 226.44 821.785 224.1V157.8H814.115C811.775 157.8 810.215 156.24 810.215 153.9V140.9Z" fill="#FFF9E6"/>
</svg>
