<svg width="455" height="250" viewBox="0 0 455 250" fill="none" xmlns="http://www.w3.org/2000/svg">
<path d="M30.0396 238.615L49.9835 10.6842C50.2209 7.36026 51.1706 4.74856 52.8326 2.84914C54.732 0.949712 57.3437 0 60.6677 0H138.306C141.63 0 144.123 0.949712 145.785 2.84914C147.447 4.74856 148.516 7.36026 148.991 10.6842L168.578 238.615C169.053 241.701 168.222 244.313 166.086 246.45C163.949 248.349 161.218 249.299 157.894 249.299H119.787C113.139 249.299 109.578 245.737 109.103 238.615L108.034 214.397H90.5836L89.5152 238.615C89.2777 241.939 88.2093 244.55 86.3099 246.45C84.6479 248.349 82.1549 249.299 78.8309 249.299H40.7238C37.3998 249.299 34.6694 248.349 32.5326 246.45C30.6331 244.313 29.8021 241.701 30.0396 238.615ZM105.185 157.414L100.556 56.9826H98.4187L93.4327 157.414H105.185Z" fill="#FFF9E6"/>
<path d="M172.023 238.615V10.6842C172.023 7.36026 172.973 4.74856 174.872 2.84914C176.772 0.949712 179.383 0 182.707 0H257.853C265.688 0 272.099 0.593568 277.085 1.7807C282.071 2.96784 285.988 5.10469 288.837 8.19125C291.686 11.2778 293.586 15.5515 294.536 21.0123C295.723 26.2357 296.316 33.1211 296.316 41.6685V91.8844C296.316 94.4961 296.079 97.9388 295.604 102.213C295.129 106.486 293.823 110.641 291.686 114.677C289.55 118.714 286.344 122.156 282.071 125.006C277.797 127.855 271.743 129.279 263.907 129.279H256.072V134.621H263.907C274.592 134.621 282.546 136.521 287.769 140.32C293.23 143.881 295.96 150.648 295.96 160.62V236.834C295.96 240.633 294.773 243.719 292.399 246.094C290.262 248.23 287.294 249.299 283.495 249.299H247.169C243.845 249.299 241.233 248.349 239.334 246.45C237.434 244.55 236.485 241.939 236.485 238.615V161.332C236.485 156.583 236.247 153.616 235.772 152.428C235.297 151.241 234.348 150.648 232.923 150.648H231.499V236.834C231.499 240.633 230.311 243.719 227.937 246.094C225.8 248.23 222.833 249.299 219.034 249.299H182.707C179.383 249.299 176.772 248.349 174.872 246.45C172.973 244.55 172.023 241.939 172.023 238.615ZM232.567 80.8441C234.466 80.8441 235.654 80.6066 236.128 80.1318C236.603 79.6569 236.841 78.1136 236.841 75.5019V62.6808C236.841 60.544 236.603 59.1194 236.128 58.4072C235.654 57.6949 234.466 57.3387 232.567 57.3387H231.499V80.8441H232.567Z" fill="#FFF9E6"/>
<path d="M301.709 46.2984V10.6842C301.709 7.36026 302.658 4.74856 304.558 2.84914C306.457 0.949712 309.069 0 312.393 0H413.893C417.217 0 419.829 0.949712 421.728 2.84914C423.628 4.74856 424.577 7.36026 424.577 10.6842V46.2984C424.577 49.6223 423.628 52.234 421.728 54.1335C419.829 56.0329 417.217 56.9826 413.893 56.9826H392.881V238.615C392.881 241.939 391.931 244.55 390.032 246.45C388.132 248.349 385.52 249.299 382.196 249.299H344.089C340.765 249.299 338.154 248.349 336.254 246.45C334.355 244.55 333.405 241.939 333.405 238.615V56.9826H312.393C309.069 56.9826 306.457 56.0329 304.558 54.1335C302.658 52.234 301.709 49.6223 301.709 46.2984Z" fill="#FFF9E6"/>
</svg>
