<svg width="1105" height="229" viewBox="0 0 1105 229" fill="none" xmlns="http://www.w3.org/2000/svg">
<path d="M162.792 10.9C162.792 8.56 164.352 6.99999 166.692 6.99999H194.642C196.982 6.99999 198.542 8.56 198.542 10.9V23.9C198.542 26.24 196.982 27.8 194.642 27.8H184.502V43.4H194.642C196.982 43.4 198.542 44.96 198.542 47.3V60.3C198.542 62.64 196.982 64.2 194.642 64.2H184.502V77.2H194.642C196.982 77.2 198.542 78.76 198.542 81.1V94.1C198.542 96.44 196.982 98 194.642 98H166.692C164.352 98 162.792 96.44 162.792 94.1V10.9ZM200.618 10.9C200.618 8.56 202.178 6.99999 204.518 6.99999H218.428C220.768 6.99999 222.328 8.56 222.328 10.9V50.29C222.328 51.2 222.848 51.72 223.368 51.72C223.758 51.72 224.278 51.2 224.278 50.29V10.9C224.278 8.56 225.838 6.99999 228.178 6.99999H242.088C244.428 6.99999 245.988 8.56 245.988 10.9V49.38C245.988 54.06 245.988 61.08 235.718 61.08V63.03C245.988 63.03 245.988 70.18 245.988 74.73V94.1C245.988 96.44 244.428 98 242.088 98H228.178C225.838 98 224.278 96.44 224.278 94.1V73.82C224.278 72.91 223.758 72.52 223.368 72.52C222.848 72.52 222.328 72.91 222.328 73.82V94.1C222.328 96.44 220.768 98 218.428 98H204.518C202.178 98 200.618 96.44 200.618 94.1V74.73C200.618 70.18 200.618 63.03 210.758 63.03V61.08C200.618 61.08 200.618 54.06 200.618 49.38V10.9ZM248.359 94.1V10.9C248.359 8.56 249.919 6.99999 252.259 6.99999H279.689C291.129 6.99999 293.729 9.86 293.729 22.21V74.86C293.729 78.76 293.209 88.51 281.899 88.51H270.069V93.45C270.069 96.18 268.249 98 265.519 98H252.259C249.919 98 248.359 96.44 248.359 94.1ZM270.069 27.93V67.58H270.459C271.889 67.58 272.019 67.45 272.019 65.63V29.88C272.019 28.32 271.889 27.93 270.459 27.93H270.069ZM295.966 10.9C295.966 8.56 297.526 6.99999 299.866 6.99999H313.776C316.116 6.99999 317.676 8.56 317.676 10.9V77.2H327.816C330.156 77.2 331.716 78.76 331.716 81.1V94.1C331.716 96.44 330.156 98 327.816 98H299.866C297.526 98 295.966 96.44 295.966 94.1V10.9ZM356.031 98.65C341.731 98.65 333.281 91.76 333.281 80.19V24.81C333.281 13.24 341.731 6.34999 356.031 6.34999C370.331 6.34999 378.781 13.24 378.781 24.81V80.19C378.781 91.76 370.331 98.65 356.031 98.65ZM356.031 27.15C355.121 27.15 354.991 27.93 354.991 29.36V75.64C354.991 77.07 355.121 77.85 356.031 77.85C356.941 77.85 357.071 77.07 357.071 75.64V29.36C357.071 27.93 356.941 27.15 356.031 27.15ZM381.025 10.9C381.025 8.56 382.585 6.99999 384.925 6.99999H412.355C423.795 6.99999 426.395 9.86 426.395 22.21V40.54C426.395 44.44 425.875 54.19 414.565 54.19H411.705V56.14H414.565C422.235 56.14 426.265 58.48 426.265 65.63V93.45C426.265 96.18 424.445 98 421.715 98H408.455C406.115 98 404.555 96.44 404.555 94.1V65.89C404.555 62.51 404.295 61.99 403.255 61.99H402.735V93.45C402.735 96.18 400.915 98 398.185 98H384.925C382.585 98 381.025 96.44 381.025 94.1V10.9ZM402.735 36.51H403.125C404.555 36.51 404.685 36.38 404.685 34.56V29.88C404.685 28.32 404.555 27.93 403.125 27.93H402.735V36.51ZM429.013 10.9C429.013 8.56 430.573 6.99999 432.913 6.99999H460.863C463.203 6.99999 464.763 8.56 464.763 10.9V23.9C464.763 26.24 463.203 27.8 460.863 27.8H450.723V43.4H460.863C463.203 43.4 464.763 44.96 464.763 47.3V60.3C464.763 62.64 463.203 64.2 460.863 64.2H450.723V77.2H460.863C463.203 77.2 464.763 78.76 464.763 81.1V94.1C464.763 96.44 463.203 98 460.863 98H432.913C430.573 98 429.013 96.44 429.013 94.1V10.9ZM521.959 98.65C507.659 98.65 499.209 91.76 499.209 80.19V24.81C499.209 13.24 507.659 6.34999 521.959 6.34999C536.259 6.34999 544.709 13.24 544.709 24.81V80.19C544.709 91.76 536.259 98.65 521.959 98.65ZM521.959 27.15C521.049 27.15 520.919 27.93 520.919 29.36V75.64C520.919 77.07 521.049 77.85 521.959 77.85C522.869 77.85 522.999 77.07 522.999 75.64V29.36C522.999 27.93 522.869 27.15 521.959 27.15ZM546.562 79.02V10.9C546.562 8.56 548.122 6.99999 550.462 6.99999H564.372C566.712 6.99999 568.272 8.56 568.272 10.9V76.29C568.272 77.46 568.792 77.72 569.312 77.72C569.702 77.72 570.222 77.46 570.222 76.29V10.9C570.222 8.56 571.782 6.99999 574.122 6.99999H588.032C590.372 6.99999 591.932 8.56 591.932 10.9V79.02C591.932 92.41 583.352 98.65 569.312 98.65C556.312 98.65 546.562 92.41 546.562 79.02ZM594.179 10.9C594.179 8.56 595.739 6.99999 598.079 6.99999H625.509C636.949 6.99999 639.549 9.86 639.549 22.21V40.54C639.549 44.44 639.029 54.19 627.719 54.19H624.859V56.14H627.719C635.389 56.14 639.419 58.48 639.419 65.63V93.45C639.419 96.18 637.599 98 634.869 98H621.609C619.269 98 617.709 96.44 617.709 94.1V65.89C617.709 62.51 617.449 61.99 616.409 61.99H615.889V93.45C615.889 96.18 614.069 98 611.339 98H598.079C595.739 98 594.179 96.44 594.179 94.1V10.9ZM615.889 36.51H616.279C617.709 36.51 617.839 36.38 617.839 34.56V29.88C617.839 28.32 617.709 27.93 616.279 27.93H615.889V36.51ZM431.679 140.9C431.679 138.56 433.239 137 435.579 137H463.529C465.869 137 467.429 138.56 467.429 140.9V153.9C467.429 156.24 465.869 157.8 463.529 157.8H453.389V173.4H463.529C465.869 173.4 467.429 174.96 467.429 177.3V190.3C467.429 192.64 465.869 194.2 463.529 194.2H453.389V207.2H463.529C465.869 207.2 467.429 208.76 467.429 211.1V224.1C467.429 226.44 465.869 228 463.529 228H435.579C433.239 228 431.679 226.44 431.679 224.1V140.9ZM469.505 140.9C469.505 138.56 471.065 137 473.405 137H487.315C489.655 137 491.215 138.56 491.215 140.9V180.29C491.215 181.2 491.735 181.72 492.255 181.72C492.645 181.72 493.165 181.2 493.165 180.29V140.9C493.165 138.56 494.725 137 497.065 137H510.975C513.315 137 514.875 138.56 514.875 140.9V179.38C514.875 184.06 514.875 191.08 504.605 191.08V193.03C514.875 193.03 514.875 200.18 514.875 204.73V224.1C514.875 226.44 513.315 228 510.975 228H497.065C494.725 228 493.165 226.44 493.165 224.1V203.82C493.165 202.91 492.645 202.52 492.255 202.52C491.735 202.52 491.215 202.91 491.215 203.82V224.1C491.215 226.44 489.655 228 487.315 228H473.405C471.065 228 469.505 226.44 469.505 224.1V204.73C469.505 200.18 469.505 193.03 479.645 193.03V191.08C469.505 191.08 469.505 184.06 469.505 179.38V140.9ZM516.855 154.81C516.855 143.24 525.305 136.35 539.605 136.35C553.905 136.35 562.355 143.24 562.355 154.81V195.76C562.355 202.39 559.625 205.12 552.995 205.12H546.495V207.07H558.455C560.795 207.07 562.355 208.63 562.355 210.97V224.1C562.355 226.44 560.795 228 558.455 228H539.605C525.305 228 516.855 221.76 516.855 210.19V154.81ZM539.605 157.15C538.695 157.15 538.565 157.93 538.565 159.36V204.86C538.565 206.29 538.695 207.07 539.605 207.07C540.515 207.07 540.645 206.29 540.645 204.86V159.36C540.645 157.93 540.515 157.15 539.605 157.15ZM564.209 209.02V140.9C564.209 138.56 565.769 137 568.109 137H582.019C584.359 137 585.919 138.56 585.919 140.9V206.29C585.919 207.46 586.439 207.72 586.959 207.72C587.349 207.72 587.869 207.46 587.869 206.29V140.9C587.869 138.56 589.429 137 591.769 137H605.679C608.019 137 609.579 138.56 609.579 140.9V209.02C609.579 222.41 600.999 228.65 586.959 228.65C573.959 228.65 564.209 222.41 564.209 209.02ZM611.825 140.9C611.825 138.56 613.385 137 615.725 137H629.635C631.975 137 633.535 138.56 633.535 140.9V224.1C633.535 226.44 631.975 228 629.635 228H615.725C613.385 228 611.825 226.44 611.825 224.1V140.9ZM648.033 193.68C638.153 193.68 635.683 191.21 635.683 181.33V154.81C635.683 142.85 644.523 136.35 658.433 136.35C672.343 136.35 681.183 142.85 681.183 154.81V168.33C681.183 170.67 679.623 172.23 677.283 172.23H663.373C661.033 172.23 659.473 170.67 659.473 168.33V159.36C659.473 157.93 659.343 157.15 658.433 157.15C657.523 157.15 657.393 157.93 657.393 159.36V167.29C657.393 173.14 658.823 174.44 664.543 174.44H668.833C678.453 174.44 681.183 177.17 681.183 186.79V210.19C681.183 222.15 672.343 228.65 658.433 228.65C644.523 228.65 635.683 222.15 635.683 210.19V200.05C635.683 197.71 637.243 196.15 639.583 196.15H653.493C655.833 196.15 657.393 197.71 657.393 200.05V205.64C657.393 207.07 657.523 207.85 658.433 207.85C659.343 207.85 659.473 207.07 659.473 205.64V200.44C659.473 195.37 657.393 193.68 652.323 193.68H648.033ZM683.427 140.9C683.427 138.56 684.987 137 687.327 137H701.237C703.577 137 705.137 138.56 705.137 140.9V224.1C705.137 226.44 703.577 228 701.237 228H687.327C684.987 228 683.427 226.44 683.427 224.1V140.9ZM707.025 140.9C707.025 138.56 708.585 137 710.925 137H747.975C750.315 137 751.875 138.56 751.875 140.9V153.9C751.875 156.24 750.315 157.8 747.975 157.8H740.305V224.1C740.305 226.44 738.745 228 736.405 228H722.495C720.155 228 718.595 226.44 718.595 224.1V157.8H710.925C708.585 157.8 707.025 156.24 707.025 153.9V140.9ZM753.886 140.9C753.886 138.56 755.446 137 757.786 137H785.736C788.076 137 789.636 138.56 789.636 140.9V153.9C789.636 156.24 788.076 157.8 785.736 157.8H775.596V173.4H785.736C788.076 173.4 789.636 174.96 789.636 177.3V190.3C789.636 192.64 788.076 194.2 785.736 194.2H775.596V207.2H785.736C788.076 207.2 789.636 208.76 789.636 211.1V224.1C789.636 226.44 788.076 228 785.736 228H757.786C755.446 228 753.886 226.44 753.886 224.1V140.9ZM823.172 140.9C823.042 138.69 824.602 137 827.072 137H842.282C844.622 137 846.052 138.56 846.182 140.9L849.432 207.07H851.382L853.332 140.9C853.462 138.43 855.022 137 857.232 137H880.502C882.842 137 884.272 138.56 884.402 140.9L886.352 207.07H888.302L891.552 140.9C891.682 138.43 893.242 137 895.452 137H910.662C913.132 137 914.692 138.69 914.562 140.9L907.282 224.1C907.152 226.44 905.722 228 903.382 228H873.742C871.402 228 869.842 226.44 869.842 224.1V177.69H867.892V224.1C867.892 226.44 866.332 228 863.992 228H834.352C832.012 228 830.582 226.44 830.452 224.1L823.172 140.9ZM938.238 228.65C923.938 228.65 915.488 221.76 915.488 210.19V154.81C915.488 143.24 923.938 136.35 938.238 136.35C952.538 136.35 960.988 143.24 960.988 154.81V210.19C960.988 221.76 952.538 228.65 938.238 228.65ZM938.238 157.15C937.328 157.15 937.198 157.93 937.198 159.36V205.64C937.198 207.07 937.328 207.85 938.238 207.85C939.148 207.85 939.278 207.07 939.278 205.64V159.36C939.278 157.93 939.148 157.15 938.238 157.15ZM963.232 140.9C963.232 138.56 964.792 137 967.132 137H994.562C1006 137 1008.6 139.86 1008.6 152.21V170.54C1008.6 174.44 1008.08 184.19 996.772 184.19H993.912V186.14H996.772C1004.44 186.14 1008.47 188.48 1008.47 195.63V223.45C1008.47 226.18 1006.65 228 1003.92 228H990.662C988.322 228 986.762 226.44 986.762 224.1V195.89C986.762 192.51 986.502 191.99 985.462 191.99H984.942V223.45C984.942 226.18 983.122 228 980.392 228H967.132C964.792 228 963.232 226.44 963.232 224.1V140.9ZM984.942 166.51H985.332C986.762 166.51 986.892 166.38 986.892 164.56V159.88C986.892 158.32 986.762 157.93 985.332 157.93H984.942V166.51ZM1015.12 228C1012.78 228 1011.22 226.44 1011.22 224.1V140.9C1011.22 138.56 1012.78 137 1015.12 137H1029.03C1031.37 137 1032.93 138.56 1032.93 140.9V163.13H1034.88V140.9C1034.88 138.56 1036.44 137 1038.78 137H1052.69C1055.03 137 1056.59 138.56 1056.59 140.9V165.34C1056.59 172.23 1052.69 176.13 1045.93 176.13V176.91C1052.95 176.91 1056.59 180.68 1056.59 187.7V224.23C1056.59 226.57 1055.03 228.13 1052.69 228.13H1038.78C1036.44 228.13 1034.88 226.57 1034.88 224.23V183.93H1032.93V224.1C1032.93 226.44 1031.37 228 1029.03 228H1015.12ZM1070.91 193.68C1061.03 193.68 1058.56 191.21 1058.56 181.33V154.81C1058.56 142.85 1067.4 136.35 1081.31 136.35C1095.22 136.35 1104.06 142.85 1104.06 154.81V168.33C1104.06 170.67 1102.5 172.23 1100.16 172.23H1086.25C1083.91 172.23 1082.35 170.67 1082.35 168.33V159.36C1082.35 157.93 1082.22 157.15 1081.31 157.15C1080.4 157.15 1080.27 157.93 1080.27 159.36V167.29C1080.27 173.14 1081.7 174.44 1087.42 174.44H1091.71C1101.33 174.44 1104.06 177.17 1104.06 186.79V210.19C1104.06 222.15 1095.22 228.65 1081.31 228.65C1067.4 228.65 1058.56 222.15 1058.56 210.19V200.05C1058.56 197.71 1060.12 196.15 1062.46 196.15H1076.37C1078.71 196.15 1080.27 197.71 1080.27 200.05V205.64C1080.27 207.07 1080.4 207.85 1081.31 207.85C1082.22 207.85 1082.35 207.07 1082.35 205.64V200.44C1082.35 195.37 1080.27 193.68 1075.2 193.68H1070.91Z" fill="#020403"/>
<path d="M674.277 24.81C674.277 12.85 683.117 6.34999 697.027 6.34999C710.937 6.34999 719.777 12.85 719.777 24.81V43.53C719.777 45.87 718.217 47.43 715.877 47.43H701.967C699.627 47.43 698.067 45.87 698.067 43.53V29.36C698.067 27.93 697.937 27.15 697.027 27.15C696.117 27.15 695.987 27.93 695.987 29.36V75.64C695.987 77.07 696.117 77.85 697.027 77.85C697.937 77.85 698.067 77.07 698.067 75.64V53.41C698.067 51.07 699.627 49.51 701.967 49.51H715.877C718.217 49.51 719.777 51.07 719.777 53.41V93.84C719.777 97.35 719.387 98 716.657 98H707.817C705.347 98 704.827 97.35 704.827 93.84V80.58H702.877C702.877 92.41 698.067 98.65 688.967 98.65C679.347 98.65 674.277 92.67 674.277 80.19V24.81ZM724.621 98C722.151 98 720.591 96.31 720.721 94.1L728.001 10.9C728.131 8.56 729.561 6.99999 731.901 6.99999H760.241C762.581 6.99999 763.881 8.56 764.141 10.9L771.291 94.1C771.551 96.31 769.861 98 767.391 98H753.481C751.271 98 749.711 96.57 749.581 94.1L749.191 85.26H742.821L742.431 94.1C742.301 96.44 740.871 98 738.531 98H724.621ZM743.861 64.46H748.151L746.461 27.8H745.681L743.861 64.46ZM772.548 10.9C772.548 8.56 774.108 6.99999 776.448 6.99999H790.358C792.698 6.99999 794.258 8.56 794.258 10.9V77.2H804.398C806.738 77.2 808.298 78.76 808.298 81.1V94.1C808.298 96.44 806.738 98 804.398 98H776.448C774.108 98 772.548 96.44 772.548 94.1V10.9ZM810.253 10.9C810.253 8.56 811.813 6.99999 814.153 6.99999H842.103C844.443 6.99999 846.003 8.56 846.003 10.9V23.9C846.003 26.24 844.443 27.8 842.103 27.8H831.963V43.4H842.103C844.443 43.4 846.003 44.96 846.003 47.3V60.3C846.003 62.64 844.443 64.2 842.103 64.2H831.963V77.2H842.103C844.443 77.2 846.003 78.76 846.003 81.1V94.1C846.003 96.44 844.443 98 842.103 98H814.153C811.813 98 810.253 96.44 810.253 94.1V10.9ZM848.339 10.9C848.339 8.56 849.899 6.99999 852.239 6.99999H879.669C891.109 6.99999 893.709 9.86 893.709 22.21V40.54C893.709 44.44 893.189 54.19 881.879 54.19H879.019V56.14H881.879C889.549 56.14 893.579 58.48 893.579 65.63V93.45C893.579 96.18 891.759 98 889.029 98H875.769C873.429 98 871.869 96.44 871.869 94.1V65.89C871.869 62.51 871.609 61.99 870.569 61.99H870.049V93.45C870.049 96.18 868.229 98 865.499 98H852.239C849.899 98 848.339 96.44 848.339 94.1V10.9ZM870.049 36.51H870.439C871.869 36.51 871.999 36.38 871.999 34.56V29.88C871.999 28.32 871.869 27.93 870.439 27.93H870.049V36.51ZM896.067 63.81V10.9C896.067 8.56 897.627 6.99999 899.967 6.99999H913.877C916.217 6.99999 917.777 8.56 917.777 10.9V51.72C917.777 52.63 918.167 53.02 918.687 53.02C919.207 53.02 919.727 52.63 919.727 51.72V10.9C919.727 8.56 921.287 6.99999 923.627 6.99999H937.537C939.877 6.99999 941.437 8.56 941.437 10.9V63.81C941.437 68.49 939.747 75.51 929.607 75.51V94.1C929.607 96.44 928.047 98 925.707 98H911.797C909.457 98 907.897 96.44 907.897 94.1V75.51C897.757 75.51 896.067 68.49 896.067 63.81ZM0.292188 140.9C0.292188 138.56 1.85219 137 4.19219 137H32.1422C34.4822 137 36.0422 138.56 36.0422 140.9V153.9C36.0422 156.24 34.4822 157.8 32.1422 157.8H22.0022V180.55H32.1422C34.4822 180.55 36.0422 182.11 36.0422 184.45V197.45C36.0422 199.79 34.4822 201.35 32.1422 201.35H22.0022V224.1C22.0022 226.44 20.4422 228 18.1022 228H4.19219C1.85219 228 0.292188 226.44 0.292188 224.1V140.9ZM38.2512 140.9C38.2512 138.56 39.8112 137 42.1512 137H70.1012C72.4412 137 74.0012 138.56 74.0012 140.9V153.9C74.0012 156.24 72.4412 157.8 70.1012 157.8H59.9612V173.4H70.1012C72.4412 173.4 74.0012 174.96 74.0012 177.3V190.3C74.0012 192.64 72.4412 194.2 70.1012 194.2H59.9612V207.2H70.1012C72.4412 207.2 74.0012 208.76 74.0012 211.1V224.1C74.0012 226.44 72.4412 228 70.1012 228H42.1512C39.8112 228 38.2512 226.44 38.2512 224.1V140.9ZM78.9371 228C76.4671 228 74.9071 226.31 75.0371 224.1L82.3171 140.9C82.4471 138.56 83.8771 137 86.2171 137H114.557C116.897 137 118.197 138.56 118.457 140.9L125.607 224.1C125.867 226.31 124.177 228 121.707 228H107.797C105.587 228 104.027 226.57 103.897 224.1L103.507 215.26H97.1371L96.7471 224.1C96.6171 226.44 95.1871 228 92.8471 228H78.9371ZM98.1771 194.46H102.467L100.777 157.8H99.9971L98.1771 194.46ZM121.644 140.9C121.644 138.56 123.204 137 125.544 137H162.594C164.934 137 166.494 138.56 166.494 140.9V153.9C166.494 156.24 164.934 157.8 162.594 157.8H154.924V224.1C154.924 226.44 153.364 228 151.024 228H137.114C134.774 228 133.214 226.44 133.214 224.1V157.8H125.544C123.204 157.8 121.644 156.24 121.644 153.9V140.9ZM168.115 209.02V140.9C168.115 138.56 169.675 137 172.015 137H185.925C188.265 137 189.825 138.56 189.825 140.9V206.29C189.825 207.46 190.345 207.72 190.865 207.72C191.255 207.72 191.775 207.46 191.775 206.29V140.9C191.775 138.56 193.335 137 195.675 137H209.585C211.925 137 213.485 138.56 213.485 140.9V209.02C213.485 222.41 204.905 228.65 190.865 228.65C177.865 228.65 168.115 222.41 168.115 209.02ZM215.732 140.9C215.732 138.56 217.292 137 219.632 137H247.062C258.502 137 261.102 139.86 261.102 152.21V170.54C261.102 174.44 260.582 184.19 249.272 184.19H246.412V186.14H249.272C256.942 186.14 260.972 188.48 260.972 195.63V223.45C260.972 226.18 259.152 228 256.422 228H243.162C240.822 228 239.262 226.44 239.262 224.1V195.89C239.262 192.51 239.002 191.99 237.962 191.99H237.442V223.45C237.442 226.18 235.622 228 232.892 228H219.632C217.292 228 215.732 226.44 215.732 224.1V140.9ZM237.442 166.51H237.832C239.262 166.51 239.392 166.38 239.392 164.56V159.88C239.392 158.32 239.262 157.93 237.832 157.93H237.442V166.51ZM263.72 140.9C263.72 138.56 265.28 137 267.62 137H281.53C283.87 137 285.43 138.56 285.43 140.9V224.1C285.43 226.44 283.87 228 281.53 228H267.62C265.28 228 263.72 226.44 263.72 224.1V140.9ZM291.868 228C289.528 228 287.968 226.44 287.968 224.1V140.9C287.968 138.56 289.528 137 291.868 137H321.638C323.978 137 325.538 138.56 325.538 140.9V207.2H327.488V140.9C327.488 138.56 329.048 137 331.388 137H345.298C347.638 137 349.198 138.56 349.198 140.9V224.1C349.198 226.44 347.638 228 345.298 228H315.528C313.318 228 311.758 226.44 311.628 224.1V157.8H309.678V224.1C309.678 226.44 308.118 228 305.778 228H291.868ZM351.435 154.81C351.435 142.85 360.275 136.35 374.185 136.35C388.095 136.35 396.935 142.85 396.935 154.81V173.53C396.935 175.87 395.375 177.43 393.035 177.43H379.125C376.785 177.43 375.225 175.87 375.225 173.53V159.36C375.225 157.93 375.095 157.15 374.185 157.15C373.275 157.15 373.145 157.93 373.145 159.36V205.64C373.145 207.07 373.275 207.85 374.185 207.85C375.095 207.85 375.225 207.07 375.225 205.64V183.41C375.225 181.07 376.785 179.51 379.125 179.51H393.035C395.375 179.51 396.935 181.07 396.935 183.41V223.84C396.935 227.35 396.545 228 393.815 228H384.975C382.505 228 381.985 227.35 381.985 223.84V210.58H380.035C380.035 222.41 375.225 228.65 366.125 228.65C356.505 228.65 351.435 222.67 351.435 210.19V154.81Z" fill="#BA0001"/>
</svg>
