<svg width="455" height="250" viewBox="0 0 455 250" fill="none" xmlns="http://www.w3.org/2000/svg">
<path d="M30 238.615V10.6842C30 7.36026 30.9497 4.74856 32.8491 2.84914C34.7485 0.949712 37.3603 0 40.6842 0H115.83C123.665 0 130.076 0.593568 135.062 1.7807C140.048 2.96784 143.965 5.10469 146.814 8.19125C149.663 11.2778 151.563 15.5515 152.513 21.0123C153.7 26.2357 154.293 33.1211 154.293 41.6685V91.8844C154.293 94.4961 154.056 97.9388 153.581 102.213C153.106 106.486 151.8 110.641 149.663 114.677C147.527 118.714 144.321 122.156 140.048 125.006C135.774 127.855 129.72 129.279 121.884 129.279H114.049V134.621H121.884C132.569 134.621 140.522 136.521 145.746 140.32C151.207 143.881 153.937 150.648 153.937 160.62V236.834C153.937 240.633 152.75 243.719 150.376 246.094C148.239 248.23 145.271 249.299 141.472 249.299H105.146C101.822 249.299 99.2101 248.349 97.3107 246.45C95.4113 244.55 94.4616 241.939 94.4616 238.615V161.332C94.4616 156.583 94.2241 153.616 93.7493 152.428C93.2744 151.241 92.3247 150.648 90.9001 150.648H89.4756V236.834C89.4756 240.633 88.2884 243.719 85.9142 246.094C83.7773 248.23 80.8095 249.299 77.0106 249.299H40.6842C37.3603 249.299 34.7485 248.349 32.8491 246.45C30.9497 244.55 30 241.939 30 238.615ZM90.544 80.8441C92.4434 80.8441 93.6306 80.6066 94.1054 80.1318C94.5803 79.6569 94.8177 78.1136 94.8177 75.5019V62.6808C94.8177 60.544 94.5803 59.1194 94.1054 58.4072C93.6306 57.6949 92.4434 57.3387 90.544 57.3387H89.4756V80.8441H90.544Z" fill="#FFF9E6"/>
<path d="M157.905 238.615L177.849 10.6842C178.086 7.36026 179.036 4.74856 180.698 2.84914C182.597 0.949712 185.209 0 188.533 0H266.172C269.496 0 271.989 0.949712 273.651 2.84914C275.313 4.74856 276.381 7.36026 276.856 10.6842L296.444 238.615C296.919 241.701 296.088 244.313 293.951 246.45C291.814 248.349 289.083 249.299 285.759 249.299H247.652C241.004 249.299 237.443 245.737 236.968 238.615L235.9 214.397H218.449L217.38 238.615C217.143 241.939 216.074 244.55 214.175 246.45C212.513 248.349 210.02 249.299 206.696 249.299H168.589C165.265 249.299 162.535 248.349 160.398 246.45C158.498 244.313 157.667 241.701 157.905 238.615ZM233.051 157.414L228.421 56.9826H226.284L221.298 157.414H233.051Z" fill="#FFF9E6"/>
<path d="M299.888 10.6842C299.888 7.36026 300.838 4.74856 302.737 2.84914C304.637 0.949712 307.249 0 310.572 0H385.718C393.553 0 399.964 0.593568 404.95 1.7807C409.936 2.96784 413.853 5.10469 416.703 8.19125C419.552 11.2778 421.451 15.5515 422.401 21.0123C423.588 26.2357 424.182 33.1211 424.182 41.6685V185.906C424.182 188.517 423.944 191.96 423.469 196.234C422.994 200.507 421.689 204.662 419.552 208.699C417.415 212.735 414.21 216.178 409.936 219.027C405.662 221.876 399.608 223.301 391.773 223.301H359.364V236.834C359.364 240.633 358.177 243.719 355.802 246.094C353.666 248.23 350.698 249.299 346.899 249.299H310.572C307.249 249.299 304.637 248.349 302.737 246.45C300.838 244.55 299.888 241.939 299.888 238.615V10.6842ZM359.364 165.962H360.432C362.332 165.962 363.519 165.724 363.994 165.25C364.469 164.775 364.706 163.231 364.706 160.62V62.6808C364.706 60.544 364.469 59.1194 363.994 58.4072C363.519 57.6949 362.332 57.3387 360.432 57.3387H359.364V165.962Z" fill="#FFF9E6"/>
</svg>
