<svg width="533" height="72" viewBox="0 0 533 72" fill="none" xmlns="http://www.w3.org/2000/svg">
<path fill-rule="evenodd" clip-rule="evenodd" d="M106.372 0.178944C96.3233 1.105 86.7477 6.65034 80.8411 14.9646C77.1892 20.1047 76.1024 21.0135 73.092 21.4441C71.3339 21.6954 69.0118 21.0085 67.7071 19.8509C67.158 19.3633 65.8198 17.6855 64.7336 16.1218C59.0044 7.87475 50.4562 2.22563 41.2517 0.60334C38.1635 0.059098 32.7816 0.0427427 29.581 0.567809C18.5419 2.37875 8.46802 9.84755 3.68777 19.7652C0.958915 25.4272 -0.0246447 29.8644 0.000467489 36.4026C0.0370197 45.9917 3.42242 54.047 10.3777 61.0945C15.647 66.4337 21.9282 69.8453 28.8254 71.1139C32.7113 71.8285 38.7358 71.7549 42.3299 70.9484C51.0999 68.981 58.3171 64.3481 63.4601 57.3847C66.8419 52.806 69.4307 51.2392 73.0496 51.5807C76.2564 51.8833 78.2294 53.2837 81.3458 57.4681C86.0895 63.838 93.1159 68.5501 101.127 70.7338L103.442 71.3646L241.559 71.4441C334.868 71.4977 380.283 71.4295 381.547 71.2343C384.253 70.8162 387.642 69.68 390.837 68.1206C396.428 65.3909 400.291 62.2445 403.811 57.5536C406.259 54.2907 408.226 52.4558 409.767 51.9986C410.405 51.8094 411.869 51.656 413.02 51.658C416.591 51.6639 418.345 52.7989 421.625 57.2299C426.312 63.5588 432.243 67.7247 440.224 70.2922L443.573 71.3694H503.005L505.742 70.5804C512.3 68.6905 518.799 64.8478 522.77 60.5142C524.572 58.547 527.588 54.2486 528.615 52.185C529.753 49.8958 531.351 45.5766 531.791 43.5959C532.466 40.5634 532.586 34.1049 532.038 30.3435C530.938 22.7918 527.307 15.7885 521.652 10.3126C516.073 4.91018 511.033 2.28964 502.865 0.54384C500.677 0.0762999 498.4 0.0365388 473.428 0.031463C443.711 0.0252592 444.788 -0.0294471 439.387 1.76091C431.721 4.30249 426.27 8.32339 421.153 15.2113C417.169 20.5742 416.113 21.3511 412.756 21.3922C409.693 21.4297 408.466 20.5096 404.575 15.2533C402.215 12.0663 398.689 8.5064 395.999 6.59564C392.452 4.07577 387.285 1.80913 382.187 0.536226C380.351 0.0774277 372.134 0.0458443 244.489 0.00439171C169.829 -0.0198595 107.676 0.0588157 106.372 0.178944ZM29.7202 6.81672C23.8791 7.80763 18.5137 10.7874 14.0842 15.4998C8.71747 21.2101 5.89848 28.2051 5.88872 35.8386C5.87002 50.1008 16.2003 62.6632 29.7796 64.8921C39.51 66.4893 48.3445 63.9863 54.8271 57.7955C60.7837 52.1075 63.4766 46.7313 64.5399 38.4067C64.8876 35.6835 64.7615 33.8596 63.9484 29.8624C62.1208 20.8754 56.417 13.419 48.1952 9.26863C43.0966 6.69462 35.9949 5.7522 29.7202 6.81672ZM103.582 6.79134C97.7539 7.9726 92.6494 10.8954 88.2068 15.5951C85.7299 18.2151 84.7868 19.5534 83.2812 22.5851C79.5654 30.0671 79.0338 38.0686 81.7449 45.7083C83.3191 50.144 85.3044 53.2625 88.8999 56.9476C92.1059 60.233 95.8769 62.5913 100.375 64.1237C103.727 65.2654 106.241 65.3444 135.948 65.2406C164.242 65.1417 164.272 65.1408 166.641 64.5094C174.614 62.3844 181.785 56.2632 185.527 48.3872C186.513 46.312 187.881 41.8281 188.267 39.4069C188.546 37.6589 188.879 38.2691 189.243 41.1964C189.952 46.9 192.127 51.3554 196.529 56.1182C199.253 59.0667 201.512 60.7502 205.253 62.6209C210.563 65.2762 208.326 65.1109 240.583 65.2308C259.379 65.301 269.831 65.2356 271.661 65.0365C280.746 64.0492 289.211 57.8787 293.576 49.0611C294.756 46.6775 296.236 41.8732 296.553 39.4007C296.815 37.3591 297.157 38.0331 297.652 41.5639C298.401 46.9059 300.338 50.9327 304.44 55.6744C307.842 59.6067 313.299 63.0893 318.318 64.5312L320.523 65.1645H381.35L383.522 64.5396C394.314 61.4349 402.918 51.8639 404.633 41.0554C405.046 38.4529 404.995 33.1538 404.529 30.3398C403.857 26.2715 402.681 23.3952 400.022 19.312C396.309 13.611 389.83 8.93559 383.164 7.14777L380.792 6.5116H320.802L318.291 7.29131C315.194 8.2529 311.233 10.2539 308.839 12.0663C305.742 14.4104 302.288 18.3532 300.712 21.3432C298.89 24.8024 298.132 27.0371 297.616 30.4726C297.384 32.0193 297.131 33.3481 297.055 33.4253C296.819 33.6639 296.396 32.7762 296.391 32.0317C296.389 31.644 296.004 29.883 295.536 28.1186C293.08 18.8591 287.037 12.0344 277.929 8.23344C273.347 6.32154 273.844 6.34608 241.532 6.43688L212.541 6.51837L210.308 7.17062C199.191 10.418 190.873 19.5914 189.207 30.4416C189.039 31.536 188.803 32.6905 188.682 33.0071C188.412 33.7104 188.44 33.7925 187.433 29.3528C185.754 21.9531 181.848 16.0014 175.819 11.6571C172.462 9.23845 167.887 7.28708 164.13 6.67178C161.28 6.20536 105.934 6.31449 103.582 6.79134ZM444.41 29.6797C442.018 30.9514 440.65 33.3534 440.646 36.287C440.642 38.819 441.844 41.3287 443.6 42.4538C446.042 44.0192 450.116 43.7053 450.364 41.9324C450.446 41.3414 450.378 41.2841 449.806 41.4669C449.447 41.5816 448.384 41.7398 447.444 41.8191C445.784 41.9587 445.701 41.9327 444.6 40.9271C442.304 38.8308 441.767 36.3606 443.043 33.7711C444.373 31.0744 445.738 30.4678 449.223 31.0245C450.665 31.2549 450.688 31.2475 450.688 30.5448C450.688 29.9977 450.483 29.7586 449.809 29.5215C448.51 29.0638 445.396 29.1549 444.41 29.6797ZM476.392 31.2898C475.653 32.0848 475.326 33.8015 475.751 34.6557C475.92 34.996 476.095 36.7528 476.139 38.5593C476.231 42.3348 476.428 42.7389 478.463 43.3147C479.453 43.595 479.787 43.5948 480.123 43.3131C480.789 42.7542 480.63 42.4826 479.297 41.9051C477.789 41.252 477.703 40.9838 477.811 37.2486L477.893 34.4287L479.077 34.3421C480.399 34.2454 481.121 33.4792 480.434 32.9025C480.014 32.5503 479.063 32.792 479.306 33.1893C479.391 33.3281 479.296 33.4403 479.095 33.4386C478.894 33.4366 478.489 32.9268 478.194 32.3053C477.423 30.6799 477.119 30.5082 476.392 31.2898ZM502.287 32.0794C501.95 32.7511 501.549 33.3822 501.395 33.482C501.239 33.5833 501.378 33.8049 501.712 33.9854C502.272 34.2882 502.307 34.5212 502.307 37.8596V41.4119L503.304 42.3616C504.077 43.0987 504.539 43.3114 505.367 43.3114C507.131 43.3114 507.082 42.2226 505.297 41.7914C504.206 41.5278 503.95 40.6045 504.042 37.2759L504.121 34.4287L505.307 34.3421C506.388 34.2629 506.493 34.1884 506.489 33.4961C506.485 32.9203 506.422 32.8365 506.226 33.1496C505.841 33.7646 504.467 33.1981 504.267 32.3419C504.181 31.9725 503.838 31.4875 503.505 31.2642C502.931 30.8792 502.868 30.9216 502.287 32.0794ZM456.268 32.5698C453.906 33.1355 452.641 34.976 452.641 37.8461C452.641 39.8942 453.611 42.0898 454.84 42.8232C455.838 43.4194 458.229 43.4687 459.282 42.9152C460.975 42.0246 461.844 40.2695 461.847 37.733C461.849 36.4204 461.269 34.76 460.513 33.9166C459.563 32.8549 457.634 32.243 456.268 32.5698ZM485.271 32.5684C483.941 32.9998 483.334 33.4595 483.334 34.0347C483.334 34.4456 483.472 34.5682 483.822 34.4681C484.091 34.3912 484.938 34.249 485.705 34.152C487.413 33.9363 488.026 34.3164 488.254 35.7317C488.411 36.7153 488.383 36.7576 487.448 36.935C486.914 37.0362 486.268 37.0376 486.012 36.9381C485.328 36.6727 483.149 37.6027 482.5 38.4366C481.414 39.8316 481.976 42.0331 483.64 42.9028C484.628 43.4188 486.766 43.4084 488.217 42.8802C488.831 42.6569 489.563 42.4719 489.843 42.4696C490.323 42.4657 490.343 42.2274 490.162 38.588C489.961 34.524 489.756 33.8275 488.521 33.0097C487.697 32.4635 486.214 32.2624 485.271 32.5684ZM495.42 32.9863C493.395 33.958 492.963 34.8595 492.961 38.1069C492.96 40.9652 493.3 41.7993 494.859 42.7598C495.996 43.4603 498.552 43.5116 499.483 42.8523C500.385 42.2141 499.819 41.9121 497.704 41.9023C496.082 41.8946 496.008 41.8617 495.358 40.8479C493.949 38.6506 494.093 36.0448 495.699 34.6788C496.38 34.1001 496.753 33.982 497.508 34.1058C498.511 34.2702 500.081 34.0576 500.067 33.7589C500.062 33.6619 499.744 33.352 499.361 33.0703C498.228 32.2359 497.036 32.2105 495.42 32.9863ZM466.871 33.0007C466.256 33.2288 465.659 33.2742 465.257 33.1233C464.819 32.9592 464.583 32.9936 464.505 33.2333C464.442 33.4256 464.352 35.6449 464.305 38.165L464.221 42.7474H466.397L466.217 40.1875C466.013 37.2737 466.367 35.2478 467.213 34.4992C468.037 33.7697 469.547 33.8647 470.372 34.698C471.111 35.4444 471.152 35.7769 471.062 40.2413C471.018 42.3845 471.073 42.6845 471.523 42.7939C472.919 43.1323 473.01 42.925 473.008 39.4134C473.007 35.4994 472.723 34.2865 471.585 33.3187C470.901 32.7373 470.453 32.6 469.291 32.6172C468.497 32.629 467.408 32.8016 466.871 33.0007ZM456.408 34.2747C453.936 35.3082 453.611 39.139 455.792 41.5489C456.412 42.2353 457.369 42.3627 458.263 41.8788C458.937 41.5145 460.168 38.9591 460.172 37.9174C460.176 36.8104 459.448 35.2619 458.609 34.5956C457.823 33.9704 457.314 33.896 456.408 34.2747ZM484.743 38.7042C483.752 39.978 483.701 40.7774 484.563 41.5266C485.391 42.2468 486.997 42.4169 487.436 41.8309C487.895 41.219 488.345 39.2417 488.175 38.5846C488.035 38.0415 487.825 37.9535 486.67 37.9535C485.548 37.9535 485.231 38.0771 484.743 38.7042Z" fill="#FFF9E6"/>
<path d="M517.449 39.4134C517.449 45.7208 494.231 47.7378 471.27 47.7378C448.309 47.7378 429.696 42.6247 429.696 36.3172C429.696 30.0098 448.309 24.8966 471.27 24.8966C494.231 24.8966 517.449 33.106 517.449 39.4134Z" fill="#FFF9E6"/>
</svg>
