<svg width="916" height="250" viewBox="0 0 916 250" fill="none" xmlns="http://www.w3.org/2000/svg">
<path d="M171.724 0H213.392C216.716 0 219.209 0.949712 220.871 2.84914C222.771 4.74856 223.839 7.36026 224.077 10.6842L232.98 191.96H238.322L243.664 10.6842C244.139 3.56142 247.701 0 254.349 0H318.098C321.422 0 323.915 0.949712 325.577 2.84914C327.476 4.74856 328.545 7.36026 328.782 10.6842L334.124 191.96H339.466L348.37 10.6842C348.845 3.56142 352.406 0 359.054 0H400.723C404.047 0 406.658 1.06842 408.558 3.20527C410.695 5.1047 411.644 7.59769 411.407 10.6842L391.463 238.615C391.225 241.939 390.157 244.55 388.258 246.45C386.596 248.349 384.103 249.299 380.779 249.299H299.578C296.255 249.299 293.643 248.349 291.743 246.45C289.844 244.55 288.894 241.939 288.894 238.615V111.472H283.552V238.615C283.552 241.939 282.602 244.55 280.703 246.45C278.804 248.349 276.192 249.299 272.868 249.299H191.668C188.344 249.299 185.732 248.349 183.833 246.45C182.171 244.55 181.221 241.939 180.983 238.615L161.04 10.6842C160.802 7.59769 161.633 5.1047 163.533 3.20527C165.669 1.06842 168.4 0 171.724 0Z" fill="#FFF9E6"/>
<path d="M415.013 238.615V10.6842C415.013 7.36026 415.962 4.74856 417.862 2.84914C419.761 0.949712 422.373 0 425.697 0H463.804C467.128 0 469.74 0.949712 471.639 2.84914C473.539 4.74856 474.488 7.36026 474.488 10.6842V238.615C474.488 241.939 473.539 244.55 471.639 246.45C469.74 248.349 467.128 249.299 463.804 249.299H425.697C422.373 249.299 419.761 248.349 417.862 246.45C415.962 244.55 415.013 241.939 415.013 238.615Z" fill="#FFF9E6"/>
<path d="M481.441 238.615V10.6842C481.441 7.36026 482.391 4.74856 484.291 2.84914C486.19 0.949712 488.802 0 492.126 0H573.682C577.006 0 579.618 0.949712 581.517 2.84914C583.417 4.74856 584.366 7.36026 584.366 10.6842V192.316H589.708V10.6842C589.708 7.36026 590.658 4.74856 592.557 2.84914C594.457 0.949712 597.069 0 600.393 0H638.5C641.824 0 644.435 0.949712 646.335 2.84914C648.234 4.74856 649.184 7.36026 649.184 10.6842V238.615C649.184 241.939 648.234 244.55 646.335 246.45C644.435 248.349 641.824 249.299 638.5 249.299H556.943C553.857 249.299 551.364 248.349 549.464 246.45C547.565 244.55 546.497 241.939 546.259 238.615V56.9826H540.917V238.615C540.917 241.939 539.967 244.55 538.068 246.45C536.168 248.349 533.557 249.299 530.233 249.299H492.126C488.802 249.299 486.19 248.349 484.291 246.45C482.391 244.55 481.441 241.939 481.441 238.615Z" fill="#FFF9E6"/>
<path d="M656.382 238.615V10.6842C656.382 7.36026 657.332 4.74856 659.231 2.84914C661.13 0.949712 663.742 0 667.066 0H743.636C746.96 0 749.572 0.949712 751.472 2.84914C753.371 4.74856 754.321 7.36026 754.321 10.6842V46.2984C754.321 49.6223 753.371 52.234 751.472 54.1335C749.572 56.0329 746.96 56.9826 743.636 56.9826H715.857V99.7195H743.636C746.96 99.7195 749.572 100.669 751.472 102.569C753.371 104.468 754.321 107.08 754.321 110.404V146.018C754.321 149.342 753.371 151.954 751.472 153.853C749.572 155.752 746.96 156.702 743.636 156.702H715.857V192.316H743.636C746.96 192.316 749.572 193.266 751.472 195.165C753.371 197.065 754.321 199.677 754.321 203V238.615C754.321 241.939 753.371 244.55 751.472 246.45C749.572 248.349 746.96 249.299 743.636 249.299H667.066C663.742 249.299 661.13 248.349 659.231 246.45C657.332 244.55 656.382 241.939 656.382 238.615Z" fill="#FFF9E6"/>
</svg>
