<svg xmlns="http://www.w3.org/2000/svg" width="1920" height="40" fill="none" xmlns:v="https://vecta.io/nano"><path fill="#020403" d="M0 0h1920v40H0z"/><g fill="#fff9e6"><path d="M6.038 29.722l4.827-18.839c.079-.314.157-.54.236-.677.098-.137.265-.206.5-.206h2.208c.51 0 .707.294.589.883L9.57 29.722a1.64 1.64 0 0 1-.294.648c-.118.157-.314.236-.589.236h-2.09c-.275 0-.451-.079-.53-.236-.078-.177-.088-.392-.029-.648zm8.617 0l1.648-18.839c.02-.275.098-.491.235-.648.157-.157.373-.236.648-.236h6.417c.275 0 .481.079.618.236s.226.373.265.648l1.619 18.839c.039.255-.029.471-.206.648-.177.157-.402.236-.677.236h-3.15c-.55 0-.844-.294-.883-.883l-.088-2.002h-1.442l-.088 2.002c-.02.275-.108.491-.265.648-.137.157-.343.236-.618.236h-3.15c-.275 0-.5-.079-.677-.236-.157-.177-.226-.392-.206-.648zm6.211-6.711l-.383-8.301h-.177l-.412 8.301h.971zm5.524 6.711V10.883c0-.275.078-.491.235-.648s.373-.236.648-.236h6.211c.648 0 1.177.049 1.59.147s.736.275.971.53.392.608.471 1.06c.098.432.147 1.001.147 1.707v4.15a8.19 8.19 0 0 1-.059.854c-.039.354-.147.697-.324 1.03s-.441.618-.795.854-.854.353-1.501.353h-.648v.442h.648c.883 0 1.541.157 1.972.471.451.294.677.854.677 1.678v6.299c0 .314-.098.569-.294.765-.177.177-.422.265-.736.265h-3.002c-.275 0-.491-.079-.648-.236s-.235-.373-.235-.648v-6.388c0-.392-.02-.638-.059-.736s-.118-.147-.235-.147h-.118v7.123c0 .314-.098.569-.294.765-.177.177-.422.265-.736.265h-3.003c-.275 0-.491-.079-.648-.236s-.235-.373-.235-.648zm5.004-13.04c.157 0 .255-.02.294-.059s.059-.167.059-.383v-1.06c0-.177-.02-.294-.059-.353s-.137-.088-.294-.088h-.088v1.943h.088zm5.715-2.855v-2.944c0-.275.078-.491.236-.648s.373-.236.648-.236h8.389c.275 0 .491.079.648.236s.236.373.236.648v2.944c0 .275-.078.491-.236.647s-.373.236-.648.236h-1.737v15.012c0 .275-.078.491-.236.648s-.373.236-.648.236h-3.15c-.275 0-.491-.079-.648-.236s-.236-.373-.236-.648V14.71H37.99c-.275 0-.491-.079-.648-.236s-.236-.373-.236-.647zM48.308 10h3.444c.275 0 .481.079.618.236.157.157.245.373.265.648l.736 14.983h.442l.441-14.983c.039-.589.334-.883.883-.883h5.269c.275 0 .481.079.618.236.157.157.245.373.265.648l.441 14.983h.442l.736-14.983c.039-.589.334-.883.883-.883h3.444c.275 0 .491.088.648.265.177.157.255.363.236.618L66.47 29.722c-.02.275-.108.491-.265.648-.137.157-.343.236-.618.236h-6.711c-.275 0-.491-.079-.648-.236s-.236-.373-.236-.648V19.213h-.441v10.509c0 .275-.079.491-.236.648s-.373.236-.648.236h-6.711c-.275 0-.491-.079-.648-.236-.137-.157-.216-.373-.235-.648l-1.648-18.839c-.02-.255.049-.461.206-.618.177-.177.402-.265.677-.265zm20.109 19.722V10.883c0-.275.079-.491.236-.648S69.025 10 69.3 10h3.15c.275 0 .491.079.648.236s.236.373.236.648v18.839c0 .275-.079.491-.236.648s-.373.236-.648.236H69.3c-.275 0-.491-.079-.648-.236s-.236-.373-.236-.648zm5.49 0V10.883c0-.275.079-.491.236-.648s.373-.236.648-.236h6.741c.275 0 .491.079.647.236s.236.373.236.648v15.012h.442V10.883c0-.275.078-.491.235-.648s.373-.236.648-.236h3.15c.275 0 .491.079.648.236s.236.373.236.648v18.839c0 .275-.078.491-.236.648s-.373.236-.648.236h-6.741c-.255 0-.461-.079-.618-.236s-.245-.373-.265-.648V14.71h-.442v15.012c0 .275-.079.491-.236.648s-.373.236-.648.236h-3.15c-.275 0-.491-.079-.648-.236s-.236-.373-.236-.648zm14.459 0V10.883c0-.275.078-.491.235-.648s.373-.236.648-.236h6.329c.275 0 .49.079.647.236s.236.373.236.648v2.944c0 .275-.079.491-.236.647s-.373.236-.647.236h-2.296v3.532h2.296c.275 0 .49.078.647.235s.236.373.236.648v2.944c0 .275-.079.491-.236.648s-.373.235-.647.235h-2.296v2.944h2.296c.275 0 .49.079.647.236s.236.373.236.648v2.944c0 .275-.079.491-.236.648s-.373.236-.647.236h-6.329c-.275 0-.491-.079-.648-.236s-.235-.373-.235-.648z"/><use href="#B"/><use href="#C"/><use href="#D"/><use href="#E"/><use href="#F"/><path d="M169.417 29.722V10.883c0-.275.078-.491.235-.648s.373-.236.648-.236h3.149c.275 0 .491.079.648.236s.235.373.235.648v18.839c0 .275-.078.491-.235.648s-.373.236-.648.236H170.3c-.275 0-.491-.079-.648-.236s-.235-.373-.235-.648z"/><use href="#G"/><use href="#H"/><use href="#B" x="101"/><use href="#C" x="101"/><use href="#D" x="101"/><use href="#E" x="101"/><use href="#F" x="101"/><path d="M270.417 29.722V10.883c0-.275.078-.491.235-.648s.373-.236.648-.236h3.149c.275 0 .491.079.648.236s.235.373.235.648v18.839c0 .275-.078.491-.235.648s-.373.236-.648.236H271.3c-.275 0-.491-.079-.648-.236s-.235-.373-.235-.648z"/><use href="#G" x="101"/><use href="#H" x="101"/><use href="#B" x="202"/><use href="#C" x="202"/><use href="#D" x="202"/><use href="#E" x="202"/><use href="#F" x="202"/><path d="M371.417 29.722V10.883c0-.275.078-.491.235-.648s.373-.236.648-.236h3.149c.275 0 .491.079.648.236s.235.373.235.648v18.839c0 .275-.078.491-.235.648s-.373.236-.648.236H372.3c-.275 0-.491-.079-.648-.236s-.235-.373-.235-.648z"/><use href="#G" x="202"/><use href="#H" x="202"/><use href="#B" x="303"/><use href="#C" x="303"/><use href="#D" x="303"/><use href="#E" x="303"/><use href="#F" x="303"/><path d="M472.417 29.722V10.883c0-.275.078-.491.235-.648s.373-.236.648-.236h3.149c.275 0 .491.079.648.236s.235.373.235.648v18.839c0 .275-.078.491-.235.648s-.373.236-.648.236H473.3c-.275 0-.491-.079-.648-.236s-.235-.373-.235-.648z"/><use href="#G" x="303"/><use href="#H" x="303"/><use href="#B" x="404"/><use href="#C" x="404"/><use href="#D" x="404"/><use href="#E" x="404"/><use href="#F" x="404"/><path d="M573.417 29.722V10.883c0-.275.078-.491.235-.648s.373-.236.648-.236h3.149c.275 0 .491.079.648.236s.235.373.235.648v18.839c0 .275-.078.491-.235.648s-.373.236-.648.236H574.3c-.275 0-.491-.079-.648-.236s-.235-.373-.235-.648z"/><use href="#G" x="404"/><use href="#H" x="404"/><use href="#B" x="505"/><use href="#C" x="505"/><use href="#D" x="505"/><use href="#E" x="505"/><use href="#F" x="505"/><path d="M674.417 29.722V10.883c0-.275.078-.491.235-.648s.373-.236.648-.236h3.149c.275 0 .491.079.648.236s.235.373.235.648v18.839c0 .275-.078.491-.235.648s-.373.236-.648.236H675.3c-.275 0-.491-.079-.648-.236s-.235-.373-.235-.648z"/><use href="#G" x="505"/><use href="#H" x="505"/><use href="#B" x="606"/><use href="#C" x="606"/><use href="#D" x="606"/><use href="#E" x="606"/><use href="#F" x="606"/><path d="M775.417 29.722V10.883c0-.275.078-.491.235-.648s.373-.236.648-.236h3.149c.275 0 .491.079.648.236s.235.373.235.648v18.839c0 .275-.078.491-.235.648s-.373.236-.648.236H776.3c-.275 0-.491-.079-.648-.236s-.235-.373-.235-.648z"/><use href="#G" x="606"/><use href="#H" x="606"/><use href="#B" x="707"/><use href="#C" x="707"/><use href="#D" x="707"/><use href="#E" x="707"/><use href="#F" x="707"/><path d="M876.417 29.722V10.883c0-.275.078-.491.235-.648s.373-.236.648-.236h3.149c.275 0 .491.079.648.236s.235.373.235.648v18.839c0 .275-.078.491-.235.648s-.373.236-.648.236H877.3c-.275 0-.491-.079-.648-.236s-.235-.373-.235-.648z"/><use href="#G" x="707"/><use href="#H" x="707"/><use href="#B" x="808"/><use href="#C" x="808"/><use href="#D" x="808"/><use href="#E" x="808"/><use href="#F" x="808"/><path d="M977.417 29.722V10.883c0-.275.078-.491.235-.648s.373-.236.648-.236h3.149c.275 0 .491.079.648.236s.235.373.235.648v18.839c0 .275-.078.491-.235.648s-.373.236-.648.236H978.3c-.275 0-.491-.079-.648-.236s-.235-.373-.235-.648z"/><use href="#G" x="808"/><path d="M997.366 29.722V10.883c0-.275.079-.491.236-.648s.373-.236.647-.236h6.331c.27 0 .49.079.65.236.15.157.23.373.23.648v2.944c0 .275-.08.491-.23.647-.16.157-.38.236-.65.236h-2.3v3.532h2.3c.27 0 .49.078.65.235.15.157.23.373.23.648v2.944c0 .275-.08.491-.23.648-.16.157-.38.235-.65.235h-2.3v2.944h2.3c.27 0 .49.079.65.236.15.157.23.373.23.648v2.944c0 .275-.08.491-.23.648-.16.157-.38.236-.65.236h-6.331c-.274 0-.49-.079-.647-.236s-.236-.373-.236-.648z"/><use href="#I"/><use href="#J"/><use href="#K"/><use href="#L"/><use href="#M"/><use href="#N"/><use href="#O"/><use href="#P"/><use href="#I" x="101"/><use href="#J" x="101"/><use href="#K" x="101"/><use href="#L" x="101"/><use href="#M" x="101"/><use href="#N" x="101"/><use href="#O" x="101"/><use href="#P" x="101"/><use href="#I" x="202"/><use href="#J" x="202"/><use href="#K" x="202"/><use href="#L" x="202"/><use href="#M" x="202"/><use href="#N" x="202"/><use href="#O" x="202"/><use href="#P" x="202"/><use href="#I" x="303"/><use href="#J" x="303"/><use href="#K" x="303"/><use href="#L" x="303"/><use href="#M" x="303"/><use href="#N" x="303"/><use href="#O" x="303"/><use href="#P" x="303"/><use href="#I" x="404"/><use href="#J" x="404"/><use href="#K" x="404"/><use href="#L" x="404"/><use href="#M" x="404"/><use href="#N" x="404"/><use href="#O" x="404"/><use href="#P" x="404"/><use href="#I" x="505"/><use href="#J" x="505"/><use href="#K" x="505"/><use href="#L" x="505"/><use href="#M" x="505"/><use href="#N" x="505"/><use href="#O" x="505"/><use href="#P" x="505"/><use href="#I" x="606"/><use href="#J" x="606"/><use href="#K" x="606"/><use href="#L" x="606"/><use href="#M" x="606"/><use href="#N" x="606"/><use href="#O" x="606"/><use href="#P" x="606"/><use href="#I" x="707"/><use href="#J" x="707"/><use href="#K" x="707"/><use href="#L" x="707"/><use href="#M" x="707"/><use href="#N" x="707"/><use href="#O" x="707"/><use href="#P" x="707"/><use href="#I" x="808"/><use href="#J" x="808"/><use href="#K" x="808"/><use href="#L" x="808"/><use href="#M" x="808"/><use href="#N" x="808"/><use href="#O" x="808"/><use href="#P" x="808"/></g><defs ><path id="B" d="M107.038 29.722l4.827-18.839c.079-.314.157-.54.236-.677.098-.137.265-.206.5-.206h2.208c.51 0 .706.294.589.883l-4.828 18.839c-.059.255-.157.471-.294.648-.118.157-.314.236-.589.236h-2.09c-.275 0-.451-.079-.53-.236-.078-.177-.088-.392-.029-.648z"/><path id="C" d="M115.655 29.722l1.648-18.839c.02-.275.098-.491.236-.648.157-.157.372-.236.647-.236h6.417c.275 0 .481.079.618.236s.226.373.265.648l1.619 18.839a.71.71 0 0 1-.206.648c-.176.157-.402.236-.677.236h-3.149c-.55 0-.844-.294-.884-.883l-.088-2.002h-1.442l-.088 2.002c-.02.275-.108.491-.265.648-.138.157-.344.236-.619.236h-3.149c-.275 0-.501-.079-.677-.236-.157-.177-.226-.392-.206-.648zm6.211-6.711l-.383-8.301h-.177l-.412 8.301h.972z"/><path id="D" d="M127.39 29.722V10.883c0-.275.078-.491.235-.648s.373-.236.648-.236h6.211c.648 0 1.177.049 1.59.147s.735.275.971.53.392.608.471 1.06c.098.432.147 1.001.147 1.707v4.15c0 .216-.02.5-.059.854a2.85 2.85 0 0 1-.324 1.03c-.176.334-.441.618-.794.854s-.854.353-1.502.353h-.647v.442h.647c.883 0 1.541.157 1.973.471.451.294.677.854.677 1.678v6.299c0 .314-.098.569-.295.765-.176.177-.422.265-.736.265h-3.002c-.275 0-.491-.079-.648-.236s-.235-.373-.235-.648v-6.388c0-.392-.02-.638-.059-.736s-.118-.147-.236-.147h-.117v7.123c0 .314-.098.569-.295.765-.176.177-.422.265-.736.265h-3.002c-.275 0-.491-.079-.648-.236s-.235-.373-.235-.648zm5.004-13.04c.157 0 .255-.02.294-.059s.059-.167.059-.383v-1.06c0-.177-.019-.294-.059-.353s-.137-.088-.294-.088h-.088v1.943h.088z"/><path id="E" d="M138.109 13.827v-2.944c0-.275.078-.491.235-.648s.373-.236.648-.236h8.389c.275 0 .491.079.648.236s.235.373.235.648v2.944c0 .275-.078.491-.235.647s-.373.236-.648.236h-1.737v15.012c0 .275-.078.491-.235.648s-.373.236-.648.236h-3.149c-.275 0-.491-.079-.648-.236s-.235-.373-.235-.648V14.71h-1.737c-.275 0-.491-.079-.648-.236s-.235-.373-.235-.647z"/><path id="F" d="M149.308 10h3.444c.275 0 .481.079.618.236.157.157.246.373.265.648l.736 14.983h.442l.441-14.983c.039-.589.334-.883.883-.883h5.269c.275 0 .481.079.618.236.157.157.246.373.265.648l.442 14.983h.441l.736-14.983c.04-.589.334-.883.883-.883h3.444c.275 0 .491.088.648.265.177.157.255.363.235.618l-1.648 18.839c-.02.275-.108.491-.265.648-.137.157-.343.236-.618.236h-6.711c-.275 0-.491-.079-.648-.236s-.235-.373-.235-.648V19.213h-.442v10.509c0 .275-.078.491-.235.648s-.373.236-.648.236h-6.711c-.275 0-.491-.079-.648-.236-.137-.157-.216-.373-.236-.648l-1.648-18.839c-.02-.255.049-.461.206-.618.177-.177.402-.265.677-.265z"/><path id="G" d="M174.907 29.722V10.883c0-.275.078-.491.235-.648s.373-.236.648-.236h6.741c.275 0 .49.079.647.236s.236.373.236.648v15.012h.441V10.883c0-.275.079-.491.236-.648s.373-.236.648-.236h3.149c.275 0 .491.079.648.236s.235.373.235.648v18.839c0 .275-.078.491-.235.648s-.373.236-.648.236h-6.741c-.255 0-.461-.079-.618-.236s-.245-.373-.265-.648V14.71h-.441v15.012c0 .275-.079.491-.236.648s-.373.236-.647.236h-3.15c-.275 0-.491-.079-.648-.236s-.235-.373-.235-.648z"/><path id="H" d="M189.366 29.722V10.883c0-.275.079-.491.236-.648s.373-.236.647-.236h6.329c.275 0 .491.079.648.236s.235.373.235.648v2.944c0 .275-.078.491-.235.647s-.373.236-.648.236h-2.296v3.532h2.296c.275 0 .491.078.648.235s.235.373.235.648v2.944c0 .275-.078.491-.235.648s-.373.235-.648.235h-2.296v2.944h2.296c.275 0 .491.079.648.236s.235.373.235.648v2.944c0 .275-.078.491-.235.648s-.373.236-.648.236h-6.329c-.274 0-.49-.079-.647-.236s-.236-.373-.236-.648z"/><path id="I" d="M1016.04 29.722l4.83-18.839c.07-.314.15-.54.23-.677.1-.137.27-.206.5-.206h2.21c.51 0 .71.294.59.883l-4.83 18.839c-.06.255-.16.471-.29.648-.12.157-.32.236-.59.236h-2.09c-.28 0-.45-.079-.53-.236-.08-.177-.09-.392-.03-.648z"/><path id="J" d="M1024.65 29.722l1.65-18.839c.02-.275.1-.491.24-.648.16-.157.37-.236.65-.236h6.41c.28 0 .48.079.62.236s.23.373.27.648l1.62 18.839c.03.255-.03.471-.21.648-.18.157-.4.236-.68.236h-3.15c-.55 0-.84-.294-.88-.883l-.09-2.002h-1.44l-.09 2.002c-.02.275-.11.491-.26.648-.14.157-.35.236-.62.236h-3.15c-.28 0-.5-.079-.68-.236-.16-.177-.22-.392-.21-.648zm6.22-6.711l-.39-8.301h-.17l-.42 8.301h.98z"/><path id="K" d="M1036.39 29.722V10.883c0-.275.08-.491.24-.648.15-.157.37-.236.64-.236h6.21c.65 0 1.18.049 1.59.147.42.098.74.275.97.53.24.255.4.608.48 1.06.09.432.14 1.001.14 1.707v4.15a7.95 7.95 0 0 1-.06.854c-.04.353-.14.697-.32 1.03a2.39 2.39 0 0 1-.79.854c-.36.235-.86.353-1.51.353h-.64v.442h.64c.89 0 1.54.157 1.98.471.45.294.67.854.67 1.678v6.299c0 .314-.09.569-.29.765-.18.177-.42.265-.74.265h-3c-.27 0-.49-.079-.65-.236-.15-.157-.23-.373-.23-.648v-6.388c0-.392-.02-.638-.06-.736s-.12-.147-.24-.147h-.11v7.123c0 .314-.1.569-.3.765-.18.177-.42.265-.73.265h-3.01c-.27 0-.49-.079-.64-.236-.16-.157-.24-.373-.24-.648zm5-13.04c.16 0 .26-.02.3-.059s.06-.167.06-.383v-1.06c0-.177-.02-.294-.06-.353s-.14-.088-.3-.088h-.08v1.943h.08z"/><path id="L" d="M1047.11 13.827v-2.944c0-.275.08-.491.23-.648.16-.157.38-.236.65-.236h8.39c.28 0 .49.079.65.236s.23.373.23.648v2.944c0 .275-.07.491-.23.647s-.37.236-.65.236h-1.74v15.012c0 .275-.07.491-.23.648s-.37.236-.65.236h-3.15c-.27 0-.49-.079-.65-.236-.15-.157-.23-.373-.23-.648V14.71h-1.74c-.27 0-.49-.079-.65-.236-.15-.157-.23-.373-.23-.647z"/><path id="M" d="M1058.31 10h3.44c.28 0 .48.079.62.236.16.157.25.373.27.648l.73 14.983h.44l.44-14.983c.04-.589.34-.883.89-.883h5.27c.27 0 .48.079.61.236.16.157.25.373.27.648l.44 14.983h.44l.74-14.983c.04-.589.33-.883.88-.883h3.45c.27 0 .49.088.64.265a.7.7 0 0 1 .24.618l-1.65 18.839c-.02.275-.11.491-.26.648-.14.157-.35.236-.62.236h-6.71c-.28 0-.49-.079-.65-.236s-.24-.373-.24-.648V19.213h-.44v10.509c0 .275-.08.491-.23.648-.16.157-.38.236-.65.236h-6.71c-.28 0-.49-.079-.65-.236-.14-.157-.22-.373-.24-.648l-1.64-18.839c-.02-.255.04-.461.2-.618a.92.92 0 0 1 .68-.265z"/><path id="N" d="M1078.42 29.722V10.883c0-.275.08-.491.23-.648.16-.157.37-.236.65-.236h3.15c.27 0 .49.079.65.236.15.157.23.373.23.648v18.839c0 .275-.08.491-.23.648-.16.157-.38.236-.65.236h-3.15c-.28 0-.49-.079-.65-.236-.15-.157-.23-.373-.23-.648z"/><path id="O" d="M1083.91 29.722V10.883c0-.275.08-.491.23-.648.16-.157.38-.236.65-.236h6.74c.28 0 .49.079.65.236s.23.373.23.648v15.012h.45V10.883c0-.275.07-.491.23-.648s.37-.236.65-.236h3.15c.27 0 .49.079.65.236.15.157.23.373.23.648v18.839c0 .275-.08.491-.23.648-.16.157-.38.236-.65.236h-6.74c-.26 0-.46-.079-.62-.236s-.25-.373-.27-.648V14.71h-.44v15.012c0 .275-.08.491-.23.648-.16.157-.38.236-.65.236h-3.15c-.27 0-.49-.079-.65-.236-.15-.157-.23-.373-.23-.648z"/><path id="P" d="M1098.37 29.722V10.883c0-.275.07-.491.23-.648s.37-.236.65-.236h6.33c.27 0 .49.079.65.236.15.157.23.373.23.648v2.944c0 .275-.08.491-.23.647-.16.157-.38.236-.65.236h-2.3v3.532h2.3c.27 0 .49.078.65.235.15.157.23.373.23.648v2.944c0 .275-.08.491-.23.648-.16.157-.38.235-.65.235h-2.3v2.944h2.3c.27 0 .49.079.65.236.15.157.23.373.23.648v2.944c0 .275-.08.491-.23.648-.16.157-.38.236-.65.236h-6.33c-.28 0-.49-.079-.65-.236s-.23-.373-.23-.648z"/></defs></svg>