<svg width="1391" height="251" viewBox="0 0 1391 251" fill="none" xmlns="http://www.w3.org/2000/svg">
<path d="M0.131758 26.3519C0.131758 13.1732 9.87256 6.01082 25.2 6.01082C40.5274 6.01082 50.2682 13.1732 50.2682 26.3519V46.9795C50.2682 49.5579 48.5493 51.2769 45.9708 51.2769H30.6434C28.0649 51.2769 26.346 49.5579 26.346 46.9795V31.3656C26.346 29.7898 26.2027 28.9304 25.2 28.9304C24.1973 28.9304 24.054 29.7898 24.054 31.3656V82.3615C24.054 83.9372 24.1973 84.7967 25.2 84.7967C26.2027 84.7967 26.346 83.9372 26.346 82.3615V57.8663C26.346 55.2878 28.0649 53.5688 30.6434 53.5688H45.9708C48.5493 53.5688 50.2682 55.2878 50.2682 57.8663V87.3752C50.2682 100.554 40.5274 107.716 25.2 107.716C9.87256 107.716 0.131758 100.554 0.131758 87.3752V26.3519ZM77.3789 107.716C61.6217 107.716 52.3106 100.124 52.3106 87.3752V26.3519C52.3106 13.6029 61.6217 6.01082 77.3789 6.01082C93.136 6.01082 102.447 13.6029 102.447 26.3519V87.3752C102.447 100.124 93.136 107.716 77.3789 107.716ZM77.3789 28.9304C76.3761 28.9304 76.2329 29.7898 76.2329 31.3656V82.3615C76.2329 83.9372 76.3761 84.7967 77.3789 84.7967C78.3816 84.7967 78.5248 83.9372 78.5248 82.3615V31.3656C78.5248 29.7898 78.3816 28.9304 77.3789 28.9304ZM109.217 107C106.638 107 104.919 105.281 104.919 102.703V11.0245C104.919 8.44602 106.638 6.72705 109.217 6.72705H142.02C144.599 6.72705 146.318 8.44602 146.318 11.0245V84.0805H148.466V11.0245C148.466 8.44602 150.185 6.72705 152.764 6.72705H168.091C170.67 6.72705 172.389 8.44602 172.389 11.0245V102.703C172.389 105.281 170.67 107 168.091 107H135.288C132.852 107 131.133 105.281 130.99 102.703V29.6466H128.841V102.703C128.841 105.281 127.123 107 124.544 107H109.217ZM179.581 107C177.003 107 175.284 105.281 175.284 102.703V11.0245C175.284 8.44602 177.003 6.72705 179.581 6.72705H212.385C214.963 6.72705 216.682 8.44602 216.682 11.0245V84.0805H218.831V11.0245C218.831 8.44602 220.55 6.72705 223.128 6.72705H238.456C241.034 6.72705 242.753 8.44602 242.753 11.0245V102.703C242.753 105.281 241.034 107 238.456 107H205.652C203.217 107 201.498 105.281 201.355 102.703V29.6466H199.206V102.703C199.206 105.281 197.487 107 194.909 107H179.581ZM245.648 11.0245C245.648 8.44602 247.367 6.72705 249.946 6.72705H280.744C283.322 6.72705 285.041 8.44602 285.041 11.0245V25.3492C285.041 27.9276 283.322 29.6466 280.744 29.6466H269.571V46.8362H280.744C283.322 46.8362 285.041 48.5552 285.041 51.1336V65.4584C285.041 68.0368 283.322 69.7558 280.744 69.7558H269.571V84.0805H280.744C283.322 84.0805 285.041 85.7994 285.041 88.3779V102.703C285.041 105.281 283.322 107 280.744 107H249.946C247.367 107 245.648 105.281 245.648 102.703V11.0245ZM287.185 26.3519C287.185 13.1732 296.926 6.01082 312.254 6.01082C327.581 6.01082 337.322 13.1732 337.322 26.3519V46.9795C337.322 49.5579 335.603 51.2769 333.024 51.2769H317.697C315.119 51.2769 313.4 49.5579 313.4 46.9795V31.3656C313.4 29.7898 313.256 28.9304 312.254 28.9304C311.251 28.9304 311.108 29.7898 311.108 31.3656V82.3615C311.108 83.9372 311.251 84.7967 312.254 84.7967C313.256 84.7967 313.4 83.9372 313.4 82.3615V57.8663C313.4 55.2878 315.119 53.5688 317.697 53.5688H333.024C335.603 53.5688 337.322 55.2878 337.322 57.8663V87.3752C337.322 100.554 327.581 107.716 312.254 107.716C296.926 107.716 287.185 100.554 287.185 87.3752V26.3519ZM339.078 11.0245C339.078 8.44602 340.797 6.72705 343.375 6.72705H384.201C386.779 6.72705 388.498 8.44602 388.498 11.0245V25.3492C388.498 27.9276 386.779 29.6466 384.201 29.6466H375.749V102.703C375.749 105.281 374.03 107 371.452 107H356.124C353.546 107 351.827 105.281 351.827 102.703V29.6466H343.375C340.797 29.6466 339.078 27.9276 339.078 25.3492V11.0245ZM425.093 11.0245C424.95 8.58927 426.669 6.72705 429.391 6.72705H446.15C448.729 6.72705 450.305 8.44602 450.448 11.0245L454.029 83.9372H456.178L458.326 11.0245C458.47 8.30278 460.189 6.72705 462.624 6.72705H488.265C490.844 6.72705 492.419 8.44602 492.563 11.0245L494.711 83.9372H496.86L500.441 11.0245C500.584 8.30278 502.303 6.72705 504.739 6.72705H521.498C524.22 6.72705 525.939 8.58927 525.796 11.0245L517.774 102.703C517.631 105.281 516.055 107 513.477 107H480.816C478.238 107 476.519 105.281 476.519 102.703V51.5634H474.37V102.703C474.37 105.281 472.651 107 470.073 107H437.412C434.834 107 433.258 105.281 433.115 102.703L425.093 11.0245ZM527.246 11.0245C527.246 8.44602 528.965 6.72705 531.544 6.72705H546.871C549.45 6.72705 551.169 8.44602 551.169 11.0245V102.703C551.169 105.281 549.45 107 546.871 107H531.544C528.965 107 527.246 105.281 527.246 102.703V11.0245ZM553.249 11.0245C553.249 8.44602 554.968 6.72705 557.546 6.72705H598.372C600.95 6.72705 602.669 8.44602 602.669 11.0245V25.3492C602.669 27.9276 600.95 29.6466 598.372 29.6466H589.92V102.703C589.92 105.281 588.201 107 585.623 107H570.295C567.717 107 565.998 105.281 565.998 102.703V29.6466H557.546C554.968 29.6466 553.249 27.9276 553.249 25.3492V11.0245ZM604.885 11.0245C604.885 8.44602 606.604 6.72705 609.182 6.72705H624.51C627.088 6.72705 628.807 8.44602 628.807 11.0245V47.4092H631.099V11.0245C631.099 8.44602 632.818 6.72705 635.397 6.72705H650.724C653.302 6.72705 655.021 8.44602 655.021 11.0245V102.703C655.021 105.281 653.302 107 650.724 107H635.397C632.818 107 631.099 105.281 631.099 102.703V70.3288H628.807V102.703C628.807 105.281 627.088 107 624.51 107H609.182C606.604 107 604.885 105.281 604.885 102.703V11.0245ZM698.012 107C695.434 107 693.715 105.281 693.715 102.703V11.0245C693.715 8.44602 695.434 6.72705 698.012 6.72705H713.34C715.918 6.72705 717.637 8.44602 717.637 11.0245V35.5197H719.786V11.0245C719.786 8.44602 721.505 6.72705 724.083 6.72705H739.411C741.989 6.72705 743.708 8.44602 743.708 11.0245V37.9549C743.708 45.547 739.411 49.8444 731.962 49.8444V50.7039C739.697 50.7039 743.708 54.8581 743.708 62.5934V102.846C743.708 105.424 741.989 107.143 739.411 107.143H724.083C721.505 107.143 719.786 105.424 719.786 102.846V58.4392H717.637V102.703C717.637 105.281 715.918 107 713.34 107H698.012ZM746.314 11.0245C746.314 8.44602 748.032 6.72705 750.611 6.72705H765.938C768.517 6.72705 770.236 8.44602 770.236 11.0245V102.703C770.236 105.281 768.517 107 765.938 107H750.611C748.032 107 746.314 105.281 746.314 102.703V11.0245ZM777.33 107C774.751 107 773.032 105.281 773.032 102.703V11.0245C773.032 8.44602 774.751 6.72705 777.33 6.72705H810.133C812.712 6.72705 814.431 8.44602 814.431 11.0245V84.0805H816.58V11.0245C816.58 8.44602 818.299 6.72705 820.877 6.72705H836.204C838.783 6.72705 840.502 8.44602 840.502 11.0245V102.703C840.502 105.281 838.783 107 836.204 107H803.401C800.966 107 799.247 105.281 799.103 102.703V29.6466H796.955V102.703C796.955 105.281 795.236 107 792.657 107H777.33ZM843.397 102.703V11.0245C843.397 8.44602 845.116 6.72705 847.694 6.72705H877.919C890.382 6.72705 893.39 10.0217 893.39 23.487V87.5184C893.39 102.13 889.523 107 877.919 107H847.694C845.116 107 843.397 105.281 843.397 102.703ZM867.319 84.0805H867.749C869.325 84.0805 869.468 83.794 869.468 81.9318V31.9385C869.468 30.2196 869.325 29.7898 867.749 29.7898H867.319V84.0805ZM895.995 11.0245C895.995 8.44602 897.714 6.72705 900.293 6.72705H930.518C943.124 6.72705 945.989 9.87849 945.989 23.487V43.6848C945.989 47.9822 945.416 58.7257 932.953 58.7257H929.802V60.8744H932.953C941.405 60.8744 945.845 63.4529 945.845 71.3315V101.986C945.845 104.995 943.84 107 940.832 107H926.221C923.642 107 921.923 105.281 921.923 102.703V71.618C921.923 67.8936 921.637 67.3206 920.491 67.3206H919.918V101.986C919.918 104.995 917.912 107 914.904 107H900.293C897.714 107 895.995 105.281 895.995 102.703V11.0245ZM919.918 39.2441H920.347C921.923 39.2441 922.066 39.1009 922.066 37.0954V31.9385C922.066 30.2196 921.923 29.7898 920.347 29.7898H919.918V39.2441ZM948.874 11.0245C948.874 8.44602 950.593 6.72705 953.171 6.72705H983.969C986.548 6.72705 988.267 8.44602 988.267 11.0245V25.3492C988.267 27.9276 986.548 29.6466 983.969 29.6466H972.796V46.8362H983.969C986.548 46.8362 988.267 48.5552 988.267 51.1336V65.4584C988.267 68.0368 986.548 69.7558 983.969 69.7558H972.796V84.0805H983.969C986.548 84.0805 988.267 85.7994 988.267 88.3779V102.703C988.267 105.281 986.548 107 983.969 107H953.171C950.593 107 948.874 105.281 948.874 102.703V11.0245ZM990.841 102.703V11.0245C990.841 8.44602 992.56 6.72705 995.138 6.72705H1025.36C1037.83 6.72705 1040.83 10.0217 1040.83 23.487V87.5184C1040.83 102.13 1036.97 107 1025.36 107H995.138C992.56 107 990.841 105.281 990.841 102.703ZM1014.76 84.0805H1015.19C1016.77 84.0805 1016.91 83.794 1016.91 81.9318V31.9385C1016.91 30.2196 1016.77 29.7898 1015.19 29.7898H1014.76V84.0805ZM1092.43 69.1828C1081.54 69.1828 1078.82 66.4611 1078.82 55.5743V26.3519C1078.82 13.1732 1088.56 6.01082 1103.89 6.01082C1119.22 6.01082 1128.96 13.1732 1128.96 26.3519V41.2496C1128.96 43.828 1127.24 45.547 1124.66 45.547H1109.33C1106.75 45.547 1105.04 43.828 1105.04 41.2496V31.3656C1105.04 29.7898 1104.89 28.9304 1103.89 28.9304C1102.89 28.9304 1102.74 29.7898 1102.74 31.3656V40.1036C1102.74 46.5497 1104.32 47.9822 1110.62 47.9822H1115.35C1125.95 47.9822 1128.96 50.9904 1128.96 61.5907V87.3752C1128.96 100.554 1119.22 107.716 1103.89 107.716C1088.56 107.716 1078.82 100.554 1078.82 87.3752V76.2019C1078.82 73.6234 1080.54 71.9045 1083.12 71.9045H1098.45C1101.02 71.9045 1102.74 73.6234 1102.74 76.2019V82.3615C1102.74 83.9372 1102.89 84.7967 1103.89 84.7967C1104.89 84.7967 1105.04 83.9372 1105.04 82.3615V76.6316C1105.04 71.045 1102.74 69.1828 1097.16 69.1828H1092.43ZM1131.43 102.703V11.0245C1131.43 8.44602 1133.15 6.72705 1135.73 6.72705H1165.95C1178.56 6.72705 1181.42 9.87849 1181.42 23.487V81.502C1181.42 85.7994 1180.85 96.543 1168.39 96.543H1155.35V101.986C1155.35 104.995 1153.35 107 1150.34 107H1135.73C1133.15 107 1131.43 105.281 1131.43 102.703ZM1155.35 29.7898V73.4802H1155.78C1157.36 73.4802 1157.5 73.3369 1157.5 71.3315V31.9385C1157.5 30.2196 1157.36 29.7898 1155.78 29.7898H1155.35ZM1183.89 11.0245C1183.89 8.44602 1185.61 6.72705 1188.19 6.72705H1203.51C1206.09 6.72705 1207.81 8.44602 1207.81 11.0245V102.703C1207.81 105.281 1206.09 107 1203.51 107H1188.19C1185.61 107 1183.89 105.281 1183.89 102.703V11.0245ZM1210.61 11.0245C1210.61 8.44602 1212.33 6.72705 1214.9 6.72705H1245.13C1257.74 6.72705 1260.6 9.87849 1260.6 23.487V43.6848C1260.6 47.9822 1260.03 58.7257 1247.57 58.7257H1244.41V60.8744H1247.57C1256.02 60.8744 1260.46 63.4529 1260.46 71.3315V101.986C1260.46 104.995 1258.45 107 1255.44 107H1240.83C1238.25 107 1236.54 105.281 1236.54 102.703V71.618C1236.54 67.8936 1236.25 67.3206 1235.1 67.3206H1234.53V101.986C1234.53 104.995 1232.52 107 1229.52 107H1214.9C1212.33 107 1210.61 105.281 1210.61 102.703V11.0245ZM1234.53 39.2441H1234.96C1236.54 39.2441 1236.68 39.1009 1236.68 37.0954V31.9385C1236.68 30.2196 1236.54 29.7898 1234.96 29.7898H1234.53V39.2441ZM1263.49 11.0245C1263.49 8.44602 1265.2 6.72705 1267.78 6.72705H1283.11C1285.69 6.72705 1287.41 8.44602 1287.41 11.0245V102.703C1287.41 105.281 1285.69 107 1283.11 107H1267.78C1265.2 107 1263.49 105.281 1263.49 102.703V11.0245ZM1289.49 11.0245C1289.49 8.44602 1291.21 6.72705 1293.79 6.72705H1334.61C1337.19 6.72705 1338.91 8.44602 1338.91 11.0245V25.3492C1338.91 27.9276 1337.19 29.6466 1334.61 29.6466H1326.16V102.703C1326.16 105.281 1324.44 107 1321.86 107H1306.53C1303.96 107 1302.24 105.281 1302.24 102.703V29.6466H1293.79C1291.21 29.6466 1289.49 27.9276 1289.49 25.3492V11.0245ZM1354.3 69.1828C1343.42 69.1828 1340.69 66.4611 1340.69 55.5743V26.3519C1340.69 13.1732 1350.44 6.01082 1365.76 6.01082C1381.09 6.01082 1390.83 13.1732 1390.83 26.3519V41.2496C1390.83 43.828 1389.11 45.547 1386.53 45.547H1371.21C1368.63 45.547 1366.91 43.828 1366.91 41.2496V31.3656C1366.91 29.7898 1366.77 28.9304 1365.76 28.9304C1364.76 28.9304 1364.62 29.7898 1364.62 31.3656V40.1036C1364.62 46.5497 1366.19 47.9822 1372.5 47.9822H1377.22C1387.82 47.9822 1390.83 50.9904 1390.83 61.5907V87.3752C1390.83 100.554 1381.09 107.716 1365.76 107.716C1350.44 107.716 1340.69 100.554 1340.69 87.3752V76.2019C1340.69 73.6234 1342.41 71.9045 1344.99 71.9045H1360.32C1362.9 71.9045 1364.62 73.6234 1364.62 76.2019V82.3615C1364.62 83.9372 1364.76 84.7967 1365.76 84.7967C1366.77 84.7967 1366.91 83.9372 1366.91 82.3615V76.6316C1366.91 71.045 1364.62 69.1828 1359.03 69.1828H1354.3ZM128.208 250C125.486 250 123.767 248.138 123.911 245.703L131.933 154.024C132.076 151.446 133.652 149.727 136.23 149.727H167.458C170.036 149.727 171.469 151.446 171.755 154.024L179.634 245.703C179.92 248.138 178.058 250 175.336 250H160.009C157.574 250 155.855 248.424 155.712 245.703L155.282 235.962H148.263L147.833 245.703C147.69 248.281 146.114 250 143.536 250H128.208ZM149.409 213.042H154.136L152.274 172.647H151.414L149.409 213.042ZM185.317 250C182.738 250 181.019 248.281 181.019 245.703V154.024C181.019 151.446 182.738 149.727 185.317 149.727H218.12C220.699 149.727 222.418 151.446 222.418 154.024V227.08H224.566V154.024C224.566 151.446 226.285 149.727 228.864 149.727H244.191C246.77 149.727 248.489 151.446 248.489 154.024V245.703C248.489 248.281 246.77 250 244.191 250H211.388C208.952 250 207.233 248.281 207.09 245.703V172.647H204.942V245.703C204.942 248.281 203.223 250 200.644 250H185.317ZM251.384 245.703V154.024C251.384 151.446 253.103 149.727 255.681 149.727H285.906C298.369 149.727 301.377 153.022 301.377 166.487V230.518C301.377 245.13 297.509 250 285.906 250H255.681C253.103 250 251.384 248.281 251.384 245.703ZM275.306 227.08H275.736C277.312 227.08 277.455 226.794 277.455 224.932V174.939C277.455 173.22 277.312 172.79 275.736 172.79H275.306V227.08ZM339.794 154.024C339.794 151.446 341.513 149.727 344.092 149.727H374.89C377.468 149.727 379.187 151.446 379.187 154.024V168.349C379.187 170.928 377.468 172.647 374.89 172.647H363.716V189.836H374.89C377.468 189.836 379.187 191.555 379.187 194.134V208.458C379.187 211.037 377.468 212.756 374.89 212.756H363.716V227.08H374.89C377.468 227.08 379.187 228.799 379.187 231.378V245.703C379.187 248.281 377.468 250 374.89 250H344.092C341.513 250 339.794 248.281 339.794 245.703V154.024ZM386.058 250C383.48 250 381.761 248.281 381.761 245.703V154.024C381.761 151.446 383.48 149.727 386.058 149.727H418.862C421.44 149.727 423.159 151.446 423.159 154.024V227.08H425.308V154.024C425.308 151.446 427.027 149.727 429.605 149.727H444.933C447.511 149.727 449.23 151.446 449.23 154.024V245.703C449.23 248.281 447.511 250 444.933 250H412.129C409.694 250 407.975 248.281 407.832 245.703V172.647H405.683V245.703C405.683 248.281 403.964 250 401.386 250H386.058ZM451.553 182.674C451.553 180.095 453.272 178.376 455.85 178.376H471.177C473.756 178.376 475.475 180.095 475.475 182.674V225.362C475.475 226.937 475.618 227.797 476.621 227.797C477.624 227.797 477.767 226.937 477.767 225.362V154.024C477.767 151.446 479.486 149.727 482.064 149.727H497.392C499.97 149.727 501.689 151.446 501.689 154.024V230.375C501.689 243.554 491.948 250.716 476.621 250.716C461.293 250.716 451.553 243.554 451.553 230.375V182.674ZM528.943 250.716C513.186 250.716 503.875 243.124 503.875 230.375V169.352C503.875 156.603 513.186 149.011 528.943 149.011C544.7 149.011 554.011 156.603 554.011 169.352V230.375C554.011 243.124 544.7 250.716 528.943 250.716ZM528.943 171.93C527.94 171.93 527.797 172.79 527.797 174.366V225.362C527.797 226.937 527.94 227.797 528.943 227.797C529.946 227.797 530.089 226.937 530.089 225.362V174.366C530.089 172.79 529.946 171.93 528.943 171.93ZM556.483 154.024C556.483 151.446 558.202 149.727 560.781 149.727H576.108C578.687 149.727 580.406 151.446 580.406 154.024V245.703C580.406 248.281 578.687 250 576.108 250H560.781C558.202 250 556.483 248.281 556.483 245.703V154.024ZM621.879 250C619.157 250 617.438 248.138 617.581 245.703L625.603 154.024C625.747 151.446 627.322 149.727 629.901 149.727H661.129C663.707 149.727 665.139 151.446 665.426 154.024L673.305 245.703C673.591 248.138 671.729 250 669.007 250H653.68C651.244 250 649.526 248.424 649.382 245.703L648.953 235.962H641.933L641.504 245.703C641.36 248.281 639.785 250 637.206 250H621.879ZM643.079 213.042H647.807L645.944 172.647H645.085L643.079 213.042ZM674.69 154.024C674.69 151.446 676.409 149.727 678.987 149.727H709.213C721.818 149.727 724.683 152.878 724.683 166.487V186.685C724.683 190.982 724.11 201.726 711.648 201.726H708.496V203.874H711.648C720.099 203.874 724.54 206.453 724.54 214.331V244.986C724.54 247.995 722.535 250 719.526 250H704.915C702.337 250 700.618 248.281 700.618 245.703V214.618C700.618 210.894 700.331 210.321 699.185 210.321H698.612V244.986C698.612 247.995 696.607 250 693.599 250H678.987C676.409 250 674.69 248.281 674.69 245.703V154.024ZM698.612 182.244H699.042C700.618 182.244 700.761 182.101 700.761 180.095V174.939C700.761 173.22 700.618 172.79 699.042 172.79H698.612V182.244ZM726.852 154.024C726.852 151.446 728.571 149.727 731.15 149.727H771.975C774.553 149.727 776.272 151.446 776.272 154.024V168.349C776.272 170.928 774.553 172.647 771.975 172.647H763.523V245.703C763.523 248.281 761.804 250 759.226 250H743.898C741.32 250 739.601 248.281 739.601 245.703V172.647H731.15C728.571 172.647 726.852 170.928 726.852 168.349V154.024ZM817.165 250C814.443 250 812.724 248.138 812.867 245.703L820.889 154.024C821.033 151.446 822.608 149.727 825.187 149.727H856.415C858.993 149.727 860.425 151.446 860.712 154.024L868.591 245.703C868.877 248.138 867.015 250 864.293 250H848.966C846.53 250 844.812 248.424 844.668 245.703L844.239 235.962H837.219L836.79 245.703C836.646 248.281 835.071 250 832.492 250H817.165ZM838.365 213.042H843.093L841.23 172.647H840.371L838.365 213.042ZM874.273 250C871.695 250 869.976 248.281 869.976 245.703V154.024C869.976 151.446 871.695 149.727 874.273 149.727H907.077C909.655 149.727 911.374 151.446 911.374 154.024V227.08H913.523V154.024C913.523 151.446 915.242 149.727 917.821 149.727H933.148C935.726 149.727 937.445 151.446 937.445 154.024V245.703C937.445 248.281 935.726 250 933.148 250H900.344C897.909 250 896.19 248.281 896.047 245.703V172.647H893.898V245.703C893.898 248.281 892.179 250 889.601 250H874.273ZM940.341 245.703V154.024C940.341 151.446 942.06 149.727 944.638 149.727H974.863C987.326 149.727 990.334 153.022 990.334 166.487V230.518C990.334 245.13 986.466 250 974.863 250H944.638C942.06 250 940.341 248.281 940.341 245.703ZM964.263 227.08H964.693C966.268 227.08 966.412 226.794 966.412 224.932V174.939C966.412 173.22 966.268 172.79 964.693 172.79H964.263V227.08ZM1027.32 154.024C1027.18 151.589 1028.89 149.727 1031.62 149.727H1048.38C1050.95 149.727 1052.53 151.446 1052.67 154.024L1056.25 226.937H1058.4L1060.55 154.024C1060.69 151.303 1062.41 149.727 1064.85 149.727H1090.49C1093.07 149.727 1094.64 151.446 1094.79 154.024L1096.94 226.937H1099.09L1102.67 154.024C1102.81 151.303 1104.53 149.727 1106.96 149.727H1123.72C1126.45 149.727 1128.16 151.589 1128.02 154.024L1120 245.703C1119.86 248.281 1118.28 250 1115.7 250H1083.04C1080.46 250 1078.74 248.281 1078.74 245.703V194.563H1076.6V245.703C1076.6 248.281 1074.88 250 1072.3 250H1039.64C1037.06 250 1035.48 248.281 1035.34 245.703L1027.32 154.024ZM1129.47 154.024C1129.47 151.446 1131.19 149.727 1133.77 149.727H1149.1C1151.67 149.727 1153.39 151.446 1153.39 154.024V245.703C1153.39 248.281 1151.67 250 1149.1 250H1133.77C1131.19 250 1129.47 248.281 1129.47 245.703V154.024ZM1160.49 250C1157.91 250 1156.19 248.281 1156.19 245.703V154.024C1156.19 151.446 1157.91 149.727 1160.49 149.727H1193.29C1195.87 149.727 1197.59 151.446 1197.59 154.024V227.08H1199.74V154.024C1199.74 151.446 1201.46 149.727 1204.03 149.727H1219.36C1221.94 149.727 1223.66 151.446 1223.66 154.024V245.703C1223.66 248.281 1221.94 250 1219.36 250H1186.56C1184.12 250 1182.4 248.281 1182.26 245.703V172.647H1180.11V245.703C1180.11 248.281 1178.39 250 1175.82 250H1160.49ZM1226.56 154.024C1226.56 151.446 1228.27 149.727 1230.85 149.727H1261.65C1264.23 149.727 1265.95 151.446 1265.95 154.024V168.349C1265.95 170.928 1264.23 172.647 1261.65 172.647H1250.48V189.836H1261.65C1264.23 189.836 1265.95 191.555 1265.95 194.134V208.458C1265.95 211.037 1264.23 212.756 1261.65 212.756H1250.48V227.08H1261.65C1264.23 227.08 1265.95 228.799 1265.95 231.378V245.703C1265.95 248.281 1264.23 250 1261.65 250H1230.85C1228.27 250 1226.56 248.281 1226.56 245.703V154.024Z" fill="#FFF9E6"/>
</svg>
