<svg width="1850" height="438" viewBox="0 0 1850 438" fill="none" xmlns="http://www.w3.org/2000/svg">
<path d="M156.132 26.3519C156.132 13.1732 165.873 6.01082 181.2 6.01082C196.527 6.01082 206.268 13.1732 206.268 26.3519V46.9795C206.268 49.5579 204.549 51.2769 201.971 51.2769H186.643C184.065 51.2769 182.346 49.5579 182.346 46.9795V31.3656C182.346 29.7898 182.203 28.9304 181.2 28.9304C180.197 28.9304 180.054 29.7898 180.054 31.3656V82.3615C180.054 83.9372 180.197 84.7967 181.2 84.7967C182.203 84.7967 182.346 83.9372 182.346 82.3615V57.8663C182.346 55.2878 184.065 53.5688 186.643 53.5688H201.971C204.549 53.5688 206.268 55.2878 206.268 57.8663V87.3752C206.268 100.554 196.527 107.716 181.2 107.716C165.873 107.716 156.132 100.554 156.132 87.3752V26.3519ZM233.379 107.716C217.622 107.716 208.311 100.124 208.311 87.3752V26.3519C208.311 13.6029 217.622 6.01082 233.379 6.01082C249.136 6.01082 258.447 13.6029 258.447 26.3519V87.3752C258.447 100.124 249.136 107.716 233.379 107.716ZM233.379 28.9304C232.376 28.9304 232.233 29.7898 232.233 31.3656V82.3615C232.233 83.9372 232.376 84.7967 233.379 84.7967C234.382 84.7967 234.525 83.9372 234.525 82.3615V31.3656C234.525 29.7898 234.382 28.9304 233.379 28.9304ZM265.217 107C262.638 107 260.919 105.281 260.919 102.703V11.0245C260.919 8.44602 262.638 6.72705 265.217 6.72705H298.02C300.599 6.72705 302.318 8.44602 302.318 11.0245V84.0805H304.466V11.0245C304.466 8.44602 306.185 6.72705 308.764 6.72705H324.091C326.67 6.72705 328.389 8.44602 328.389 11.0245V102.703C328.389 105.281 326.67 107 324.091 107H291.288C288.852 107 287.133 105.281 286.99 102.703V29.6466H284.841V102.703C284.841 105.281 283.123 107 280.544 107H265.217ZM335.581 107C333.003 107 331.284 105.281 331.284 102.703V11.0245C331.284 8.44602 333.003 6.72705 335.581 6.72705H368.385C370.963 6.72705 372.682 8.44602 372.682 11.0245V84.0805H374.831V11.0245C374.831 8.44602 376.55 6.72705 379.128 6.72705H394.456C397.034 6.72705 398.753 8.44602 398.753 11.0245V102.703C398.753 105.281 397.034 107 394.456 107H361.652C359.217 107 357.498 105.281 357.355 102.703V29.6466H355.206V102.703C355.206 105.281 353.487 107 350.909 107H335.581ZM401.648 11.0245C401.648 8.44602 403.367 6.72705 405.946 6.72705H436.744C439.322 6.72705 441.041 8.44602 441.041 11.0245V25.3492C441.041 27.9276 439.322 29.6466 436.744 29.6466H425.571V46.8362H436.744C439.322 46.8362 441.041 48.5552 441.041 51.1336V65.4584C441.041 68.0368 439.322 69.7558 436.744 69.7558H425.571V84.0805H436.744C439.322 84.0805 441.041 85.7994 441.041 88.3779V102.703C441.041 105.281 439.322 107 436.744 107H405.946C403.367 107 401.648 105.281 401.648 102.703V11.0245ZM443.185 26.3519C443.185 13.1732 452.926 6.01082 468.254 6.01082C483.581 6.01082 493.322 13.1732 493.322 26.3519V46.9795C493.322 49.5579 491.603 51.2769 489.024 51.2769H473.697C471.119 51.2769 469.4 49.5579 469.4 46.9795V31.3656C469.4 29.7898 469.256 28.9304 468.254 28.9304C467.251 28.9304 467.108 29.7898 467.108 31.3656V82.3615C467.108 83.9372 467.251 84.7967 468.254 84.7967C469.256 84.7967 469.4 83.9372 469.4 82.3615V57.8663C469.4 55.2878 471.119 53.5688 473.697 53.5688H489.024C491.603 53.5688 493.322 55.2878 493.322 57.8663V87.3752C493.322 100.554 483.581 107.716 468.254 107.716C452.926 107.716 443.185 100.554 443.185 87.3752V26.3519ZM495.078 11.0245C495.078 8.44602 496.797 6.72705 499.375 6.72705H540.201C542.779 6.72705 544.498 8.44602 544.498 11.0245V25.3492C544.498 27.9276 542.779 29.6466 540.201 29.6466H531.749V102.703C531.749 105.281 530.03 107 527.452 107H512.124C509.546 107 507.827 105.281 507.827 102.703V29.6466H499.375C496.797 29.6466 495.078 27.9276 495.078 25.3492V11.0245ZM581.093 11.0245C580.95 8.58927 582.669 6.72705 585.391 6.72705H602.15C604.729 6.72705 606.305 8.44602 606.448 11.0245L610.029 83.9372H612.178L614.326 11.0245C614.47 8.30278 616.189 6.72705 618.624 6.72705H644.265C646.844 6.72705 648.419 8.44602 648.563 11.0245L650.711 83.9372H652.86L656.441 11.0245C656.584 8.30278 658.303 6.72705 660.739 6.72705H677.498C680.22 6.72705 681.939 8.58927 681.796 11.0245L673.774 102.703C673.631 105.281 672.055 107 669.477 107H636.816C634.238 107 632.519 105.281 632.519 102.703V51.5634H630.37V102.703C630.37 105.281 628.651 107 626.073 107H593.412C590.834 107 589.258 105.281 589.115 102.703L581.093 11.0245ZM683.246 11.0245C683.246 8.44602 684.965 6.72705 687.544 6.72705H702.871C705.45 6.72705 707.169 8.44602 707.169 11.0245V102.703C707.169 105.281 705.45 107 702.871 107H687.544C684.965 107 683.246 105.281 683.246 102.703V11.0245ZM709.249 11.0245C709.249 8.44602 710.968 6.72705 713.546 6.72705H754.372C756.95 6.72705 758.669 8.44602 758.669 11.0245V25.3492C758.669 27.9276 756.95 29.6466 754.372 29.6466H745.92V102.703C745.92 105.281 744.201 107 741.623 107H726.295C723.717 107 721.998 105.281 721.998 102.703V29.6466H713.546C710.968 29.6466 709.249 27.9276 709.249 25.3492V11.0245ZM760.885 11.0245C760.885 8.44602 762.604 6.72705 765.182 6.72705H780.51C783.088 6.72705 784.807 8.44602 784.807 11.0245V47.4092H787.099V11.0245C787.099 8.44602 788.818 6.72705 791.397 6.72705H806.724C809.302 6.72705 811.021 8.44602 811.021 11.0245V102.703C811.021 105.281 809.302 107 806.724 107H791.397C788.818 107 787.099 105.281 787.099 102.703V70.3288H784.807V102.703C784.807 105.281 783.088 107 780.51 107H765.182C762.604 107 760.885 105.281 760.885 102.703V11.0245ZM854.012 107C851.434 107 849.715 105.281 849.715 102.703V11.0245C849.715 8.44602 851.434 6.72705 854.012 6.72705H869.34C871.918 6.72705 873.637 8.44602 873.637 11.0245V35.5197H875.786V11.0245C875.786 8.44602 877.505 6.72705 880.083 6.72705H895.411C897.989 6.72705 899.708 8.44602 899.708 11.0245V37.9549C899.708 45.547 895.411 49.8444 887.962 49.8444V50.7039C895.697 50.7039 899.708 54.8581 899.708 62.5934V102.846C899.708 105.424 897.989 107.143 895.411 107.143H880.083C877.505 107.143 875.786 105.424 875.786 102.846V58.4392H873.637V102.703C873.637 105.281 871.918 107 869.34 107H854.012ZM902.314 11.0245C902.314 8.44602 904.032 6.72705 906.611 6.72705H921.938C924.517 6.72705 926.236 8.44602 926.236 11.0245V102.703C926.236 105.281 924.517 107 921.938 107H906.611C904.032 107 902.314 105.281 902.314 102.703V11.0245ZM933.33 107C930.751 107 929.032 105.281 929.032 102.703V11.0245C929.032 8.44602 930.751 6.72705 933.33 6.72705H966.133C968.712 6.72705 970.431 8.44602 970.431 11.0245V84.0805H972.58V11.0245C972.58 8.44602 974.299 6.72705 976.877 6.72705H992.204C994.783 6.72705 996.502 8.44602 996.502 11.0245V102.703C996.502 105.281 994.783 107 992.204 107H959.401C956.966 107 955.247 105.281 955.103 102.703V29.6466H952.955V102.703C952.955 105.281 951.236 107 948.657 107H933.33ZM999.397 102.703V11.0245C999.397 8.44602 1001.12 6.72705 1003.69 6.72705H1033.92C1046.38 6.72705 1049.39 10.0217 1049.39 23.487V87.5184C1049.39 102.13 1045.52 107 1033.92 107H1003.69C1001.12 107 999.397 105.281 999.397 102.703ZM1023.32 84.0805H1023.75C1025.32 84.0805 1025.47 83.794 1025.47 81.9318V31.9385C1025.47 30.2196 1025.32 29.7898 1023.75 29.7898H1023.32V84.0805ZM1052 11.0245C1052 8.44602 1053.71 6.72705 1056.29 6.72705H1086.52C1099.12 6.72705 1101.99 9.87849 1101.99 23.487V43.6848C1101.99 47.9822 1101.42 58.7257 1088.95 58.7257H1085.8V60.8744H1088.95C1097.4 60.8744 1101.85 63.4529 1101.85 71.3315V101.986C1101.85 104.995 1099.84 107 1096.83 107H1082.22C1079.64 107 1077.92 105.281 1077.92 102.703V71.618C1077.92 67.8936 1077.64 67.3206 1076.49 67.3206H1075.92V101.986C1075.92 104.995 1073.91 107 1070.9 107H1056.29C1053.71 107 1052 105.281 1052 102.703V11.0245ZM1075.92 39.2441H1076.35C1077.92 39.2441 1078.07 39.1009 1078.07 37.0954V31.9385C1078.07 30.2196 1077.92 29.7898 1076.35 29.7898H1075.92V39.2441ZM1104.87 11.0245C1104.87 8.44602 1106.59 6.72705 1109.17 6.72705H1139.97C1142.55 6.72705 1144.27 8.44602 1144.27 11.0245V25.3492C1144.27 27.9276 1142.55 29.6466 1139.97 29.6466H1128.8V46.8362H1139.97C1142.55 46.8362 1144.27 48.5552 1144.27 51.1336V65.4584C1144.27 68.0368 1142.55 69.7558 1139.97 69.7558H1128.8V84.0805H1139.97C1142.55 84.0805 1144.27 85.7994 1144.27 88.3779V102.703C1144.27 105.281 1142.55 107 1139.97 107H1109.17C1106.59 107 1104.87 105.281 1104.87 102.703V11.0245ZM1146.84 102.703V11.0245C1146.84 8.44602 1148.56 6.72705 1151.14 6.72705H1181.36C1193.83 6.72705 1196.83 10.0217 1196.83 23.487V87.5184C1196.83 102.13 1192.97 107 1181.36 107H1151.14C1148.56 107 1146.84 105.281 1146.84 102.703ZM1170.76 84.0805H1171.19C1172.77 84.0805 1172.91 83.794 1172.91 81.9318V31.9385C1172.91 30.2196 1172.77 29.7898 1171.19 29.7898H1170.76V84.0805ZM1248.43 69.1828C1237.54 69.1828 1234.82 66.4611 1234.82 55.5743V26.3519C1234.82 13.1732 1244.56 6.01082 1259.89 6.01082C1275.22 6.01082 1284.96 13.1732 1284.96 26.3519V41.2496C1284.96 43.828 1283.24 45.547 1280.66 45.547H1265.33C1262.75 45.547 1261.04 43.828 1261.04 41.2496V31.3656C1261.04 29.7898 1260.89 28.9304 1259.89 28.9304C1258.89 28.9304 1258.74 29.7898 1258.74 31.3656V40.1036C1258.74 46.5497 1260.32 47.9822 1266.62 47.9822H1271.35C1281.95 47.9822 1284.96 50.9904 1284.96 61.5907V87.3752C1284.96 100.554 1275.22 107.716 1259.89 107.716C1244.56 107.716 1234.82 100.554 1234.82 87.3752V76.2019C1234.82 73.6234 1236.54 71.9045 1239.12 71.9045H1254.45C1257.02 71.9045 1258.74 73.6234 1258.74 76.2019V82.3615C1258.74 83.9372 1258.89 84.7967 1259.89 84.7967C1260.89 84.7967 1261.04 83.9372 1261.04 82.3615V76.6316C1261.04 71.045 1258.74 69.1828 1253.16 69.1828H1248.43ZM1287.43 102.703V11.0245C1287.43 8.44602 1289.15 6.72705 1291.73 6.72705H1321.95C1334.56 6.72705 1337.42 9.87849 1337.42 23.487V81.502C1337.42 85.7994 1336.85 96.543 1324.39 96.543H1311.35V101.986C1311.35 104.995 1309.35 107 1306.34 107H1291.73C1289.15 107 1287.43 105.281 1287.43 102.703ZM1311.35 29.7898V73.4802H1311.78C1313.36 73.4802 1313.5 73.3369 1313.5 71.3315V31.9385C1313.5 30.2196 1313.36 29.7898 1311.78 29.7898H1311.35ZM1339.89 11.0245C1339.89 8.44602 1341.61 6.72705 1344.19 6.72705H1359.51C1362.09 6.72705 1363.81 8.44602 1363.81 11.0245V102.703C1363.81 105.281 1362.09 107 1359.51 107H1344.19C1341.61 107 1339.89 105.281 1339.89 102.703V11.0245ZM1366.61 11.0245C1366.61 8.44602 1368.33 6.72705 1370.9 6.72705H1401.13C1413.74 6.72705 1416.6 9.87849 1416.6 23.487V43.6848C1416.6 47.9822 1416.03 58.7257 1403.57 58.7257H1400.41V60.8744H1403.57C1412.02 60.8744 1416.46 63.4529 1416.46 71.3315V101.986C1416.46 104.995 1414.45 107 1411.44 107H1396.83C1394.25 107 1392.54 105.281 1392.54 102.703V71.618C1392.54 67.8936 1392.25 67.3206 1391.1 67.3206H1390.53V101.986C1390.53 104.995 1388.52 107 1385.52 107H1370.9C1368.33 107 1366.61 105.281 1366.61 102.703V11.0245ZM1390.53 39.2441H1390.96C1392.54 39.2441 1392.68 39.1009 1392.68 37.0954V31.9385C1392.68 30.2196 1392.54 29.7898 1390.96 29.7898H1390.53V39.2441ZM1419.49 11.0245C1419.49 8.44602 1421.2 6.72705 1423.78 6.72705H1439.11C1441.69 6.72705 1443.41 8.44602 1443.41 11.0245V102.703C1443.41 105.281 1441.69 107 1439.11 107H1423.78C1421.2 107 1419.49 105.281 1419.49 102.703V11.0245ZM1445.49 11.0245C1445.49 8.44602 1447.21 6.72705 1449.79 6.72705H1490.61C1493.19 6.72705 1494.91 8.44602 1494.91 11.0245V25.3492C1494.91 27.9276 1493.19 29.6466 1490.61 29.6466H1482.16V102.703C1482.16 105.281 1480.44 107 1477.86 107H1462.53C1459.96 107 1458.24 105.281 1458.24 102.703V29.6466H1449.79C1447.21 29.6466 1445.49 27.9276 1445.49 25.3492V11.0245ZM1510.3 69.1828C1499.42 69.1828 1496.69 66.4611 1496.69 55.5743V26.3519C1496.69 13.1732 1506.44 6.01082 1521.76 6.01082C1537.09 6.01082 1546.83 13.1732 1546.83 26.3519V41.2496C1546.83 43.828 1545.11 45.547 1542.53 45.547H1527.21C1524.63 45.547 1522.91 43.828 1522.91 41.2496V31.3656C1522.91 29.7898 1522.77 28.9304 1521.76 28.9304C1520.76 28.9304 1520.62 29.7898 1520.62 31.3656V40.1036C1520.62 46.5497 1522.19 47.9822 1528.5 47.9822H1533.22C1543.82 47.9822 1546.83 50.9904 1546.83 61.5907V87.3752C1546.83 100.554 1537.09 107.716 1521.76 107.716C1506.44 107.716 1496.69 100.554 1496.69 87.3752V76.2019C1496.69 73.6234 1498.41 71.9045 1500.99 71.9045H1516.32C1518.9 71.9045 1520.62 73.6234 1520.62 76.2019V82.3615C1520.62 83.9372 1520.76 84.7967 1521.76 84.7967C1522.77 84.7967 1522.91 83.9372 1522.91 82.3615V76.6316C1522.91 71.045 1520.62 69.1828 1515.03 69.1828H1510.3ZM284.208 250C281.486 250 279.767 248.138 279.911 245.703L287.933 154.024C288.076 151.446 289.652 149.727 292.23 149.727H323.458C326.036 149.727 327.469 151.446 327.755 154.024L335.634 245.703C335.92 248.138 334.058 250 331.336 250H316.009C313.574 250 311.855 248.424 311.712 245.703L311.282 235.962H304.263L303.833 245.703C303.69 248.281 302.114 250 299.536 250H284.208ZM305.409 213.042H310.136L308.274 172.647H307.414L305.409 213.042ZM341.317 250C338.738 250 337.019 248.281 337.019 245.703V154.024C337.019 151.446 338.738 149.727 341.317 149.727H374.12C376.699 149.727 378.418 151.446 378.418 154.024V227.08H380.566V154.024C380.566 151.446 382.285 149.727 384.864 149.727H400.191C402.77 149.727 404.489 151.446 404.489 154.024V245.703C404.489 248.281 402.77 250 400.191 250H367.388C364.952 250 363.233 248.281 363.09 245.703V172.647H360.942V245.703C360.942 248.281 359.223 250 356.644 250H341.317ZM407.384 245.703V154.024C407.384 151.446 409.103 149.727 411.681 149.727H441.906C454.369 149.727 457.377 153.022 457.377 166.487V230.518C457.377 245.13 453.509 250 441.906 250H411.681C409.103 250 407.384 248.281 407.384 245.703ZM431.306 227.08H431.736C433.312 227.08 433.455 226.794 433.455 224.932V174.939C433.455 173.22 433.312 172.79 431.736 172.79H431.306V227.08ZM495.794 154.024C495.794 151.446 497.513 149.727 500.092 149.727H530.89C533.468 149.727 535.187 151.446 535.187 154.024V168.349C535.187 170.928 533.468 172.647 530.89 172.647H519.716V189.836H530.89C533.468 189.836 535.187 191.555 535.187 194.134V208.458C535.187 211.037 533.468 212.756 530.89 212.756H519.716V227.08H530.89C533.468 227.08 535.187 228.799 535.187 231.378V245.703C535.187 248.281 533.468 250 530.89 250H500.092C497.513 250 495.794 248.281 495.794 245.703V154.024ZM542.058 250C539.48 250 537.761 248.281 537.761 245.703V154.024C537.761 151.446 539.48 149.727 542.058 149.727H574.862C577.44 149.727 579.159 151.446 579.159 154.024V227.08H581.308V154.024C581.308 151.446 583.027 149.727 585.605 149.727H600.933C603.511 149.727 605.23 151.446 605.23 154.024V245.703C605.23 248.281 603.511 250 600.933 250H568.129C565.694 250 563.975 248.281 563.832 245.703V172.647H561.683V245.703C561.683 248.281 559.964 250 557.386 250H542.058ZM607.553 182.674C607.553 180.095 609.272 178.376 611.85 178.376H627.177C629.756 178.376 631.475 180.095 631.475 182.674V225.362C631.475 226.937 631.618 227.797 632.621 227.797C633.624 227.797 633.767 226.937 633.767 225.362V154.024C633.767 151.446 635.486 149.727 638.064 149.727H653.392C655.97 149.727 657.689 151.446 657.689 154.024V230.375C657.689 243.554 647.948 250.716 632.621 250.716C617.293 250.716 607.553 243.554 607.553 230.375V182.674ZM684.943 250.716C669.186 250.716 659.875 243.124 659.875 230.375V169.352C659.875 156.603 669.186 149.011 684.943 149.011C700.7 149.011 710.011 156.603 710.011 169.352V230.375C710.011 243.124 700.7 250.716 684.943 250.716ZM684.943 171.93C683.94 171.93 683.797 172.79 683.797 174.366V225.362C683.797 226.937 683.94 227.797 684.943 227.797C685.946 227.797 686.089 226.937 686.089 225.362V174.366C686.089 172.79 685.946 171.93 684.943 171.93ZM712.483 154.024C712.483 151.446 714.202 149.727 716.781 149.727H732.108C734.687 149.727 736.406 151.446 736.406 154.024V245.703C736.406 248.281 734.687 250 732.108 250H716.781C714.202 250 712.483 248.281 712.483 245.703V154.024ZM777.879 250C775.157 250 773.438 248.138 773.581 245.703L781.603 154.024C781.747 151.446 783.322 149.727 785.901 149.727H817.129C819.707 149.727 821.139 151.446 821.426 154.024L829.305 245.703C829.591 248.138 827.729 250 825.007 250H809.68C807.244 250 805.526 248.424 805.382 245.703L804.953 235.962H797.933L797.504 245.703C797.36 248.281 795.785 250 793.206 250H777.879ZM799.079 213.042H803.807L801.944 172.647H801.085L799.079 213.042ZM830.69 154.024C830.69 151.446 832.409 149.727 834.987 149.727H865.213C877.818 149.727 880.683 152.878 880.683 166.487V186.685C880.683 190.982 880.11 201.726 867.648 201.726H864.496V203.874H867.648C876.099 203.874 880.54 206.453 880.54 214.331V244.986C880.54 247.995 878.535 250 875.526 250H860.915C858.337 250 856.618 248.281 856.618 245.703V214.618C856.618 210.894 856.331 210.321 855.185 210.321H854.612V244.986C854.612 247.995 852.607 250 849.599 250H834.987C832.409 250 830.69 248.281 830.69 245.703V154.024ZM854.612 182.244H855.042C856.618 182.244 856.761 182.101 856.761 180.095V174.939C856.761 173.22 856.618 172.79 855.042 172.79H854.612V182.244ZM882.852 154.024C882.852 151.446 884.571 149.727 887.15 149.727H927.975C930.553 149.727 932.272 151.446 932.272 154.024V168.349C932.272 170.928 930.553 172.647 927.975 172.647H919.523V245.703C919.523 248.281 917.804 250 915.226 250H899.898C897.32 250 895.601 248.281 895.601 245.703V172.647H887.15C884.571 172.647 882.852 170.928 882.852 168.349V154.024ZM973.165 250C970.443 250 968.724 248.138 968.867 245.703L976.889 154.024C977.033 151.446 978.608 149.727 981.187 149.727H1012.41C1014.99 149.727 1016.43 151.446 1016.71 154.024L1024.59 245.703C1024.88 248.138 1023.01 250 1020.29 250H1004.97C1002.53 250 1000.81 248.424 1000.67 245.703L1000.24 235.962H993.219L992.79 245.703C992.647 248.281 991.071 250 988.492 250H973.165ZM994.365 213.042H999.093L997.23 172.647H996.371L994.365 213.042ZM1030.27 250C1027.7 250 1025.98 248.281 1025.98 245.703V154.024C1025.98 151.446 1027.7 149.727 1030.27 149.727H1063.08C1065.66 149.727 1067.37 151.446 1067.37 154.024V227.08H1069.52V154.024C1069.52 151.446 1071.24 149.727 1073.82 149.727H1089.15C1091.73 149.727 1093.45 151.446 1093.45 154.024V245.703C1093.45 248.281 1091.73 250 1089.15 250H1056.34C1053.91 250 1052.19 248.281 1052.05 245.703V172.647H1049.9V245.703C1049.9 248.281 1048.18 250 1045.6 250H1030.27ZM1096.34 245.703V154.024C1096.34 151.446 1098.06 149.727 1100.64 149.727H1130.86C1143.33 149.727 1146.33 153.022 1146.33 166.487V230.518C1146.33 245.13 1142.47 250 1130.86 250H1100.64C1098.06 250 1096.34 248.281 1096.34 245.703ZM1120.26 227.08H1120.69C1122.27 227.08 1122.41 226.794 1122.41 224.932V174.939C1122.41 173.22 1122.27 172.79 1120.69 172.79H1120.26V227.08ZM1183.32 154.024C1183.18 151.589 1184.89 149.727 1187.62 149.727H1204.38C1206.95 149.727 1208.53 151.446 1208.67 154.024L1212.25 226.937H1214.4L1216.55 154.024C1216.69 151.303 1218.41 149.727 1220.85 149.727H1246.49C1249.07 149.727 1250.64 151.446 1250.79 154.024L1252.94 226.937H1255.09L1258.67 154.024C1258.81 151.303 1260.53 149.727 1262.96 149.727H1279.72C1282.45 149.727 1284.16 151.589 1284.02 154.024L1276 245.703C1275.86 248.281 1274.28 250 1271.7 250H1239.04C1236.46 250 1234.74 248.281 1234.74 245.703V194.563H1232.6V245.703C1232.6 248.281 1230.88 250 1228.3 250H1195.64C1193.06 250 1191.48 248.281 1191.34 245.703L1183.32 154.024ZM1285.47 154.024C1285.47 151.446 1287.19 149.727 1289.77 149.727H1305.1C1307.67 149.727 1309.39 151.446 1309.39 154.024V245.703C1309.39 248.281 1307.67 250 1305.1 250H1289.77C1287.19 250 1285.47 248.281 1285.47 245.703V154.024ZM1316.49 250C1313.91 250 1312.19 248.281 1312.19 245.703V154.024C1312.19 151.446 1313.91 149.727 1316.49 149.727H1349.29C1351.87 149.727 1353.59 151.446 1353.59 154.024V227.08H1355.74V154.024C1355.74 151.446 1357.46 149.727 1360.03 149.727H1375.36C1377.94 149.727 1379.66 151.446 1379.66 154.024V245.703C1379.66 248.281 1377.94 250 1375.36 250H1342.56C1340.12 250 1338.4 248.281 1338.26 245.703V172.647H1336.11V245.703C1336.11 248.281 1334.39 250 1331.82 250H1316.49ZM1382.56 154.024C1382.56 151.446 1384.27 149.727 1386.85 149.727H1417.65C1420.23 149.727 1421.95 151.446 1421.95 154.024V168.349C1421.95 170.928 1420.23 172.647 1417.65 172.647H1406.48V189.836H1417.65C1420.23 189.836 1421.95 191.555 1421.95 194.134V208.458C1421.95 211.037 1420.23 212.756 1417.65 212.756H1406.48V227.08H1417.65C1420.23 227.08 1421.95 228.799 1421.95 231.378V245.703C1421.95 248.281 1420.23 250 1417.65 250H1386.85C1384.27 250 1382.56 248.281 1382.56 245.703V154.024Z" fill="#FFF9E6"/>
</svg>
