<svg width="139" height="35" viewBox="0 0 139 35" fill="none" xmlns="http://www.w3.org/2000/svg">
<path d="M1.50138 35C0.551108 35 -0.0490648 34.35 0.000949627 33.5L2.80176 1.5C2.85177 0.600001 3.40193 0 4.30219 0H15.2053C16.1056 0 16.6057 0.600001 16.7058 1.5L19.4566 33.5C19.5566 34.35 18.9064 35 17.9561 35H12.6046C11.7543 35 11.1542 34.45 11.1041 33.5L10.9541 30.1H8.5034L8.35336 33.5C8.30334 34.4 7.75318 35 6.85292 35H1.50138ZM8.90352 22.1H10.554L9.9038 8H9.60372L8.90352 22.1Z" fill="#BA0001"/>
<path d="M19.9403 1.5C19.9403 0.600001 20.5405 0 21.4407 0H31.9938C36.395 0 37.3953 1.1 37.3953 5.85V12.9C37.3953 14.4 37.1953 18.15 32.844 18.15H31.7437V18.9H32.844C35.7949 18.9 37.3453 19.8 37.3453 22.55V33.25C37.3453 34.3 36.6451 35 35.5948 35H30.4933C29.5931 35 28.9929 34.4 28.9929 33.5V22.65C28.9929 21.35 28.8929 21.15 28.4928 21.15H28.2927V33.25C28.2927 34.3 27.5925 35 26.5422 35H21.4407C20.5405 35 19.9403 34.4 19.9403 33.5V1.5ZM28.2927 11.35H28.4427C28.9929 11.35 29.0429 11.3 29.0429 10.6V8.8C29.0429 8.2 28.9929 8.05 28.4427 8.05H28.2927V11.35Z" fill="#BA0001"/>
<path d="M38.1526 1.5C38.1526 0.600001 38.7527 0 39.653 0H53.9071C54.8074 0 55.4075 0.600001 55.4075 1.5V6.5C55.4075 7.4 54.8074 8 53.9071 8H50.9563V33.5C50.9563 34.4 50.3561 35 49.4558 35H44.1043C43.204 35 42.6039 34.4 42.6039 33.5V8H39.653C38.7527 8 38.1526 7.4 38.1526 6.5V1.5Z" fill="#BA0001"/>
<path d="M55.6811 1.5C55.631 0.650001 56.2312 0 57.1815 0H63.0332C63.9334 0 64.4836 0.600001 64.5336 1.5L65.784 26.95H66.5342L67.2844 1.5C67.3344 0.550002 67.9346 0 68.7848 0H77.7374C78.6377 0 79.1878 0.600001 79.2379 1.5L79.9881 26.95H80.7383L81.9886 1.5C82.0387 0.550002 82.6388 0 83.4891 0H89.3408C90.291 0 90.8912 0.650001 90.8412 1.5L88.0404 33.5C87.9904 34.4 87.4402 35 86.5399 35H75.1367C74.2364 35 73.6362 34.4 73.6362 33.5V15.65H72.886V33.5C72.886 34.4 72.2858 35 71.3856 35H59.9823C59.082 35 58.5319 34.4 58.4819 33.5L55.6811 1.5Z" fill="#BA0001"/>
<path d="M91.3476 1.5C91.3476 0.600001 91.9478 0 92.848 0H98.1996C99.0998 0 99.7 0.600001 99.7 1.5V33.5C99.7 34.4 99.0998 35 98.1996 35H92.848C91.9478 35 91.3476 34.4 91.3476 33.5V1.5Z" fill="#BA0001"/>
<path d="M102.177 35C101.277 35 100.676 34.4 100.676 33.5V1.5C100.676 0.600001 101.277 0 102.177 0H113.63C114.53 0 115.131 0.600001 115.131 1.5V27H115.881V1.5C115.881 0.600001 116.481 0 117.381 0H122.733C123.633 0 124.233 0.600001 124.233 1.5V33.5C124.233 34.4 123.633 35 122.733 35H111.28C110.429 35 109.829 34.4 109.779 33.5V8H109.029V33.5C109.029 34.4 108.429 35 107.528 35H102.177Z" fill="#BA0001"/>
<path d="M125.244 1.5C125.244 0.600001 125.844 0 126.745 0H137.498C138.398 0 138.998 0.600001 138.998 1.5V6.5C138.998 7.4 138.398 8 137.498 8H133.596V14H137.498C138.398 14 138.998 14.6 138.998 15.5V20.5C138.998 21.4 138.398 22 137.498 22H133.596V27H137.498C138.398 27 138.998 27.6 138.998 28.5V33.5C138.998 34.4 138.398 35 137.498 35H126.745C125.844 35 125.244 34.4 125.244 33.5V1.5Z" fill="#BA0001"/>
</svg>
