<svg width="506" height="91" viewBox="0 0 506 91" fill="none" xmlns="http://www.w3.org/2000/svg">
<path d="M144.2 3.90002C144.07 1.69002 145.63 0 148.1 0H163.31C165.65 0 167.08 1.56002 167.21 3.90002L170.46 70.07H172.41L174.36 3.90002C174.49 1.43003 176.05 0 178.26 0H201.53C203.87 0 205.3 1.56002 205.43 3.90002L207.38 70.07H209.33L212.58 3.90002C212.71 1.43003 214.27 0 216.48 0H231.69C234.16 0 235.72 1.69002 235.59 3.90002L228.31 87.1C228.18 89.44 226.75 91 224.41 91H194.77C192.43 91 190.87 89.44 190.87 87.1V40.69H188.92V87.1C188.92 89.44 187.36 91 185.02 91H155.38C153.04 91 151.61 89.44 151.48 87.1L144.2 3.90002Z" fill="#FFF9E6"/>
<path d="M236.906 3.90002C236.906 1.56002 238.466 0 240.806 0H254.716C257.056 0 258.616 1.56002 258.616 3.90002V87.1C258.616 89.44 257.056 91 254.716 91H240.806C238.466 91 236.906 89.44 236.906 87.1V3.90002Z" fill="#FFF9E6"/>
<path d="M265.054 91C262.714 91 261.154 89.44 261.154 87.1V3.90002C261.154 1.56002 262.714 0 265.054 0H294.824C297.164 0 298.724 1.56002 298.724 3.90002V70.2H300.674V3.90002C300.674 1.56002 302.234 0 304.574 0H318.484C320.824 0 322.384 1.56002 322.384 3.90002V87.1C322.384 89.44 320.824 91 318.484 91H288.714C286.504 91 284.944 89.44 284.814 87.1V20.8H282.864V87.1C282.864 89.44 281.304 91 278.964 91H265.054Z" fill="#FFF9E6"/>
<path d="M325.012 3.90002C325.012 1.56002 326.572 0 328.912 0H356.862C359.202 0 360.762 1.56002 360.762 3.90002V16.9C360.762 19.24 359.202 20.8 356.862 20.8H346.722V36.4H356.862C359.202 36.4 360.762 37.96 360.762 40.3V53.3C360.762 55.64 359.202 57.2 356.862 57.2H346.722V70.2H356.862C359.202 70.2 360.762 71.76 360.762 74.1V87.1C360.762 89.44 359.202 91 356.862 91H328.912C326.572 91 325.012 89.44 325.012 87.1V3.90002Z" fill="#FFF9E6"/>
</svg>
