<svg width="506" height="93" viewBox="0 0 506 93" fill="none" xmlns="http://www.w3.org/2000/svg">
<path d="M73.8326 92.0001C71.3626 92.0001 69.8026 90.3101 69.9326 88.1001L77.2126 4.9001C77.3426 2.5601 78.7726 1.0001 81.1126 1.0001H109.453C111.793 1.0001 113.093 2.5601 113.353 4.9001L120.503 88.1001C120.763 90.3101 119.073 92.0001 116.603 92.0001H102.693C100.483 92.0001 98.9226 90.5701 98.7926 88.1001L98.4026 79.2601H92.0326L91.6426 88.1001C91.5126 90.4401 90.0826 92.0001 87.7426 92.0001H73.8326ZM93.0726 58.4601H97.3626L95.6726 21.8001H94.8926L93.0726 58.4601Z" fill="#FFF9E6"/>
<path d="M121.76 88.1001V4.9001C121.76 2.5601 123.32 1.0001 125.66 1.0001H153.09C164.4 1.0001 167.13 3.9901 167.13 16.2101V29.7301C167.13 37.7901 162.58 42.4701 154.78 42.4701H151.79V44.2901H154.78C162.97 44.4201 167.13 48.4501 167.13 56.1201V74.3201C167.13 87.5801 163.62 92.0001 153.09 92.0001H125.66C123.32 92.0001 121.76 90.4401 121.76 88.1001ZM143.47 34.5401H143.86C145.29 34.5401 145.42 34.4101 145.42 32.5901V23.8801C145.42 22.3201 145.29 21.9301 143.86 21.9301H143.47V34.5401ZM143.47 71.0701H143.86C145.29 71.0701 145.42 70.9401 145.42 69.1201V60.4101C145.42 58.8501 145.29 58.4601 143.86 58.4601H143.47V71.0701Z" fill="#FFF9E6"/>
<path d="M191.854 92.6501C177.554 92.6501 169.104 85.7601 169.104 74.1901V18.8101C169.104 7.2401 177.554 0.350098 191.854 0.350098C206.154 0.350098 214.604 7.2401 214.604 18.8101V74.1901C214.604 85.7601 206.154 92.6501 191.854 92.6501ZM191.854 21.1501C190.944 21.1501 190.814 21.9301 190.814 23.3601V69.6401C190.814 71.0701 190.944 71.8501 191.854 71.8501C192.764 71.8501 192.894 71.0701 192.894 69.6401V23.3601C192.894 21.9301 192.764 21.1501 191.854 21.1501Z" fill="#FFF9E6"/>
<path d="M216.458 73.0201V4.9001C216.458 2.5601 218.018 1.0001 220.358 1.0001H234.268C236.608 1.0001 238.168 2.5601 238.168 4.9001V70.2901C238.168 71.4601 238.688 71.7201 239.208 71.7201C239.598 71.7201 240.118 71.4601 240.118 70.2901V4.9001C240.118 2.5601 241.678 1.0001 244.018 1.0001H257.928C260.268 1.0001 261.828 2.5601 261.828 4.9001V73.0201C261.828 86.4101 253.248 92.6501 239.208 92.6501C226.208 92.6501 216.458 86.4101 216.458 73.0201Z" fill="#FFF9E6"/>
<path d="M263.424 4.9001C263.424 2.5601 264.984 1.0001 267.324 1.0001H304.374C306.714 1.0001 308.274 2.5601 308.274 4.9001V17.9001C308.274 20.2401 306.714 21.8001 304.374 21.8001H296.704V88.1001C296.704 90.4401 295.144 92.0001 292.804 92.0001H278.894C276.554 92.0001 274.994 90.4401 274.994 88.1001V21.8001H267.324C264.984 21.8001 263.424 20.2401 263.424 17.9001V4.9001Z" fill="#FFF9E6"/>
<path d="M342.395 73.0201V4.9001C342.395 2.5601 343.955 1.0001 346.295 1.0001H360.205C362.545 1.0001 364.105 2.5601 364.105 4.9001V70.2901C364.105 71.4601 364.625 71.7201 365.145 71.7201C365.535 71.7201 366.055 71.4601 366.055 70.2901V4.9001C366.055 2.5601 367.615 1.0001 369.955 1.0001H383.865C386.205 1.0001 387.765 2.5601 387.765 4.9001V73.0201C387.765 86.4101 379.185 92.6501 365.145 92.6501C352.145 92.6501 342.395 86.4101 342.395 73.0201Z" fill="#FFF9E6"/>
<path d="M401.972 57.6801C392.092 57.6801 389.622 55.2101 389.622 45.3301V18.8101C389.622 6.8501 398.462 0.350098 412.372 0.350098C426.282 0.350098 435.122 6.8501 435.122 18.8101V32.3301C435.122 34.6701 433.562 36.2301 431.222 36.2301H417.312C414.972 36.2301 413.412 34.6701 413.412 32.3301V23.3601C413.412 21.9301 413.282 21.1501 412.372 21.1501C411.462 21.1501 411.332 21.9301 411.332 23.3601V31.2901C411.332 37.1401 412.762 38.4401 418.482 38.4401H422.772C432.392 38.4401 435.122 41.1701 435.122 50.7901V74.1901C435.122 86.1501 426.282 92.6501 412.372 92.6501C398.462 92.6501 389.622 86.1501 389.622 74.1901V64.0501C389.622 61.7101 391.182 60.1501 393.522 60.1501H407.432C409.772 60.1501 411.332 61.7101 411.332 64.0501V69.6401C411.332 71.0701 411.462 71.8501 412.372 71.8501C413.282 71.8501 413.412 71.0701 413.412 69.6401V64.4401C413.412 59.3701 411.332 57.6801 406.262 57.6801H401.972Z" fill="#FFF9E6"/>
</svg>
