<svg width="506" height="93" viewBox="0 0 506 93" fill="none" xmlns="http://www.w3.org/2000/svg">
<path d="M100.486 18.8101C100.486 6.85009 109.326 0.350098 123.236 0.350098C137.146 0.350098 145.986 6.85009 145.986 18.8101V37.5301C145.986 39.8701 144.426 41.4301 142.086 41.4301H128.176C125.836 41.4301 124.276 39.8701 124.276 37.5301V23.3601C124.276 21.9301 124.146 21.1501 123.236 21.1501C122.326 21.1501 122.196 21.9301 122.196 23.3601V69.6401C122.196 71.0701 122.326 71.8501 123.236 71.8501C124.146 71.8501 124.276 71.0701 124.276 69.6401V47.4101C124.276 45.0701 125.836 43.5101 128.176 43.5101H142.086C144.426 43.5101 145.986 45.0701 145.986 47.4101V87.8401C145.986 91.3501 145.596 92.0001 142.866 92.0001H134.026C131.556 92.0001 131.036 91.3501 131.036 87.8401V74.5801H129.086C129.086 86.4101 124.276 92.6501 115.176 92.6501C105.556 92.6501 100.486 86.6701 100.486 74.1901V18.8101Z" fill="#FFF9E6"/>
<path d="M150.83 92.0001C148.36 92.0001 146.8 90.3101 146.93 88.1001L154.21 4.90012C154.34 2.56012 155.77 1.00009 158.11 1.00009H186.45C188.79 1.00009 190.09 2.56012 190.35 4.90012L197.5 88.1001C197.76 90.3101 196.07 92.0001 193.6 92.0001H179.69C177.48 92.0001 175.92 90.5701 175.79 88.1001L175.4 79.2601H169.03L168.64 88.1001C168.51 90.4401 167.08 92.0001 164.74 92.0001H150.83ZM170.07 58.4601H174.36L172.67 21.8001H171.89L170.07 58.4601Z" fill="#FFF9E6"/>
<path d="M198.757 4.90012C198.757 2.56012 200.317 1.00009 202.657 1.00009H216.567C218.907 1.00009 220.467 2.56012 220.467 4.90012V71.2001H230.607C232.947 71.2001 234.507 72.7601 234.507 75.1001V88.1001C234.507 90.4401 232.947 92.0001 230.607 92.0001H202.657C200.317 92.0001 198.757 90.4401 198.757 88.1001V4.90012Z" fill="#FFF9E6"/>
<path d="M236.462 4.90012C236.462 2.56012 238.022 1.00009 240.362 1.00009H254.272C256.612 1.00009 258.172 2.56012 258.172 4.90012V71.2001H268.312C270.652 71.2001 272.212 72.7601 272.212 75.1001V88.1001C272.212 90.4401 270.652 92.0001 268.312 92.0001H240.362C238.022 92.0001 236.462 90.4401 236.462 88.1001V4.90012Z" fill="#FFF9E6"/>
<path d="M274.167 4.90012C274.167 2.56012 275.727 1.00009 278.067 1.00009H306.017C308.357 1.00009 309.917 2.56012 309.917 4.90012V17.9001C309.917 20.2401 308.357 21.8001 306.017 21.8001H295.877V37.4001H306.017C308.357 37.4001 309.917 38.9601 309.917 41.3001V54.3001C309.917 56.6401 308.357 58.2001 306.017 58.2001H295.877V71.2001H306.017C308.357 71.2001 309.917 72.7601 309.917 75.1001V88.1001C309.917 90.4401 308.357 92.0001 306.017 92.0001H278.067C275.727 92.0001 274.167 90.4401 274.167 88.1001V4.90012Z" fill="#FFF9E6"/>
<path d="M312.253 4.90012C312.253 2.56012 313.813 1.00009 316.153 1.00009H343.583C355.023 1.00009 357.623 3.86011 357.623 16.2101V34.5401C357.623 38.4401 357.103 48.1901 345.793 48.1901H342.933V50.1401H345.793C353.463 50.1401 357.493 52.4801 357.493 59.6301V87.4501C357.493 90.1801 355.673 92.0001 352.943 92.0001H339.683C337.343 92.0001 335.783 90.4401 335.783 88.1001V59.8901C335.783 56.5101 335.523 55.9901 334.483 55.9901H333.963V87.4501C333.963 90.1801 332.143 92.0001 329.413 92.0001H316.153C313.813 92.0001 312.253 90.4401 312.253 88.1001V4.90012ZM333.963 30.5101H334.353C335.783 30.5101 335.913 30.3801 335.913 28.5601V23.8801C335.913 22.3201 335.783 21.9301 334.353 21.9301H333.963V30.5101Z" fill="#FFF9E6"/>
<path d="M359.981 57.8101V4.90012C359.981 2.56012 361.541 1.00009 363.881 1.00009H377.791C380.131 1.00009 381.691 2.56012 381.691 4.90012V45.7201C381.691 46.6301 382.081 47.0201 382.601 47.0201C383.121 47.0201 383.641 46.6301 383.641 45.7201V4.90012C383.641 2.56012 385.201 1.00009 387.541 1.00009H401.451C403.791 1.00009 405.351 2.56012 405.351 4.90012V57.8101C405.351 62.4901 403.661 69.5101 393.521 69.5101V88.1001C393.521 90.4401 391.961 92.0001 389.621 92.0001H375.711C373.371 92.0001 371.811 90.4401 371.811 88.1001V69.5101C361.671 69.5101 359.981 62.4901 359.981 57.8101Z" fill="#FFF9E6"/>
</svg>
