<svg width="507" height="93" viewBox="0 0 507 93" fill="none" xmlns="http://www.w3.org/2000/svg">
<path d="M0.138855 88.1001V4.9001C0.138855 2.5601 1.69886 1.00009 4.03886 1.00009H31.4689C42.9089 1.00009 45.5089 3.86009 45.5089 16.2101V68.8601C45.5089 72.7601 44.9889 82.5101 33.6789 82.5101H21.8489V87.4501C21.8489 90.1801 20.0289 92.0001 17.2989 92.0001H4.03886C1.69886 92.0001 0.138855 90.4401 0.138855 88.1001ZM21.8489 21.9301V61.5801H22.2389C23.6689 61.5801 23.7989 61.4501 23.7989 59.6301V23.8801C23.7989 22.3201 23.6689 21.9301 22.2389 21.9301H21.8489Z" fill="#FFF9E6"/>
<path d="M50.3463 92.0001C47.8763 92.0001 46.3163 90.3101 46.4463 88.1001L53.7263 4.9001C53.8563 2.5601 55.2863 1.00009 57.6263 1.00009H85.9663C88.3063 1.00009 89.6063 2.5601 89.8663 4.9001L97.0163 88.1001C97.2763 90.3101 95.5863 92.0001 93.1163 92.0001H79.2063C76.9963 92.0001 75.4363 90.5701 75.3063 88.1001L74.9163 79.2601H68.5463L68.1563 88.1001C68.0263 90.4401 66.5963 92.0001 64.2563 92.0001H50.3463ZM69.5863 58.4601H73.8763L72.1863 21.8001H71.4063L69.5863 58.4601Z" fill="#FFF9E6"/>
<path d="M110.234 57.6801C100.354 57.6801 97.8836 55.2101 97.8836 45.3301V18.8101C97.8836 6.8501 106.724 0.350098 120.634 0.350098C134.544 0.350098 143.384 6.8501 143.384 18.8101V32.3301C143.384 34.6701 141.824 36.2301 139.484 36.2301H125.574C123.234 36.2301 121.674 34.6701 121.674 32.3301V23.3601C121.674 21.9301 121.544 21.1501 120.634 21.1501C119.724 21.1501 119.594 21.9301 119.594 23.3601V31.2901C119.594 37.1401 121.024 38.4401 126.744 38.4401H131.034C140.654 38.4401 143.384 41.1701 143.384 50.7901V74.1901C143.384 86.1501 134.544 92.6501 120.634 92.6501C106.724 92.6501 97.8836 86.1501 97.8836 74.1901V64.0501C97.8836 61.7101 99.4436 60.1501 101.784 60.1501H115.694C118.034 60.1501 119.594 61.7101 119.594 64.0501V69.6401C119.594 71.0701 119.724 71.8501 120.634 71.8501C121.544 71.8501 121.674 71.0701 121.674 69.6401V64.4401C121.674 59.3701 119.594 57.6801 114.524 57.6801H110.234Z" fill="#FFF9E6"/>
<path d="M144.977 4.9001C144.977 2.5601 146.537 1.00009 148.877 1.00009H185.927C188.267 1.00009 189.827 2.5601 189.827 4.9001V17.9001C189.827 20.2401 188.267 21.8001 185.927 21.8001H178.257V88.1001C178.257 90.4401 176.697 92.0001 174.357 92.0001H160.447C158.107 92.0001 156.547 90.4401 156.547 88.1001V21.8001H148.877C146.537 21.8001 144.977 20.2401 144.977 17.9001V4.9001Z" fill="#FFF9E6"/>
<path d="M224.338 4.9001C224.338 2.5601 225.898 1.00009 228.238 1.00009H256.188C258.528 1.00009 260.088 2.5601 260.088 4.9001V17.9001C260.088 20.2401 258.528 21.8001 256.188 21.8001H246.048V37.4001H256.188C258.528 37.4001 260.088 38.9601 260.088 41.3001V54.3001C260.088 56.6401 258.528 58.2001 256.188 58.2001H246.048V71.2001H256.188C258.528 71.2001 260.088 72.7601 260.088 75.1001V88.1001C260.088 90.4401 258.528 92.0001 256.188 92.0001H228.238C225.898 92.0001 224.338 90.4401 224.338 88.1001V4.9001Z" fill="#FFF9E6"/>
<path d="M261.124 4.9001C260.994 2.6901 262.554 1.00009 265.024 1.00009H278.934C281.274 1.00009 282.704 2.5601 282.834 4.9001L286.084 71.0701H286.864L289.984 4.9001C290.114 2.4301 291.674 1.00009 293.884 1.00009H307.794C310.264 1.00009 311.954 2.6901 311.694 4.9001L304.544 88.1001C304.284 90.4401 302.984 92.0001 300.644 92.0001H272.304C269.964 92.0001 268.534 90.4401 268.404 88.1001L261.124 4.9001Z" fill="#FFF9E6"/>
<path d="M312.951 4.9001C312.951 2.5601 314.511 1.00009 316.851 1.00009H344.801C347.141 1.00009 348.701 2.5601 348.701 4.9001V17.9001C348.701 20.2401 347.141 21.8001 344.801 21.8001H334.661V37.4001H344.801C347.141 37.4001 348.701 38.9601 348.701 41.3001V54.3001C348.701 56.6401 347.141 58.2001 344.801 58.2001H334.661V71.2001H344.801C347.141 71.2001 348.701 72.7601 348.701 75.1001V88.1001C348.701 90.4401 347.141 92.0001 344.801 92.0001H316.851C314.511 92.0001 312.951 90.4401 312.951 88.1001V4.9001Z" fill="#FFF9E6"/>
<path d="M354.937 92.0001C352.597 92.0001 351.037 90.4401 351.037 88.1001V4.9001C351.037 2.5601 352.597 1.00009 354.937 1.00009H384.707C387.047 1.00009 388.607 2.5601 388.607 4.9001V71.2001H390.557V4.9001C390.557 2.5601 392.117 1.00009 394.457 1.00009H408.367C410.707 1.00009 412.267 2.5601 412.267 4.9001V88.1001C412.267 90.4401 410.707 92.0001 408.367 92.0001H378.597C376.387 92.0001 374.827 90.4401 374.697 88.1001V21.8001H372.747V88.1001C372.747 90.4401 371.187 92.0001 368.847 92.0001H354.937Z" fill="#FFF9E6"/>
<path d="M414.245 4.9001C414.245 2.5601 415.805 1.00009 418.145 1.00009H455.195C457.535 1.00009 459.095 2.5601 459.095 4.9001V17.9001C459.095 20.2401 457.535 21.8001 455.195 21.8001H447.525V88.1001C447.525 90.4401 445.965 92.0001 443.625 92.0001H429.715C427.375 92.0001 425.815 90.4401 425.815 88.1001V21.8001H418.145C415.805 21.8001 414.245 20.2401 414.245 17.9001V4.9001Z" fill="#FFF9E6"/>
<path d="M473.066 57.6801C463.186 57.6801 460.716 55.2101 460.716 45.3301V18.8101C460.716 6.8501 469.556 0.350098 483.466 0.350098C497.376 0.350098 506.216 6.8501 506.216 18.8101V32.3301C506.216 34.6701 504.656 36.2301 502.316 36.2301H488.406C486.066 36.2301 484.506 34.6701 484.506 32.3301V23.3601C484.506 21.9301 484.376 21.1501 483.466 21.1501C482.556 21.1501 482.426 21.9301 482.426 23.3601V31.2901C482.426 37.1401 483.856 38.4401 489.576 38.4401H493.866C503.486 38.4401 506.216 41.1701 506.216 50.7901V74.1901C506.216 86.1501 497.376 92.6501 483.466 92.6501C469.556 92.6501 460.716 86.1501 460.716 74.1901V64.0501C460.716 61.7101 462.276 60.1501 464.616 60.1501H478.526C480.866 60.1501 482.426 61.7101 482.426 64.0501V69.6401C482.426 71.0701 482.556 71.8501 483.466 71.8501C484.376 71.8501 484.506 71.0701 484.506 69.6401V64.4401C484.506 59.3701 482.426 57.6801 477.356 57.6801H473.066Z" fill="#FFF9E6"/>
</svg>
