<svg width="722" height="229" viewBox="0 0 722 229" fill="none" xmlns="http://www.w3.org/2000/svg">
<path d="M25.0018 98.65C10.7018 98.65 2.2518 91.76 2.2518 80.19V24.81C2.2518 13.24 10.7018 6.34999 25.0018 6.34999C39.3018 6.34999 47.7518 13.24 47.7518 24.81V80.19C47.7518 91.76 39.3018 98.65 25.0018 98.65ZM25.0018 27.15C24.0918 27.15 23.9618 27.93 23.9618 29.36V75.64C23.9618 77.07 24.0918 77.85 25.0018 77.85C25.9118 77.85 26.0418 77.07 26.0418 75.64V29.36C26.0418 27.93 25.9118 27.15 25.0018 27.15ZM49.9953 10.9C49.9953 8.56 51.5553 6.99999 53.8953 6.99999H67.8053C70.1453 6.99999 71.7053 8.56 71.7053 10.9V43.92H73.7853V10.9C73.7853 8.56 75.3453 6.99999 77.6853 6.99999H91.5953C93.9353 6.99999 95.4953 8.56 95.4953 10.9V94.1C95.4953 96.44 93.9353 98 91.5953 98H77.6853C75.3453 98 73.7853 96.44 73.7853 94.1V64.72H71.7053V94.1C71.7053 96.44 70.1453 98 67.8053 98H53.8953C51.5553 98 49.9953 96.44 49.9953 94.1V10.9ZM130.351 63.81V10.9C130.351 8.56 131.911 6.99999 134.251 6.99999H148.161C150.501 6.99999 152.061 8.56 152.061 10.9V51.72C152.061 52.63 152.451 53.02 152.971 53.02C153.491 53.02 154.011 52.63 154.011 51.72V10.9C154.011 8.56 155.571 6.99999 157.911 6.99999H171.821C174.161 6.99999 175.721 8.56 175.721 10.9V63.81C175.721 68.49 174.031 75.51 163.891 75.51V94.1C163.891 96.44 162.331 98 159.991 98H146.081C143.741 98 142.181 96.44 142.181 94.1V75.51C132.041 75.51 130.351 68.49 130.351 63.81ZM178.091 10.9C178.091 8.56 179.651 6.99999 181.991 6.99999H209.941C212.281 6.99999 213.841 8.56 213.841 10.9V23.9C213.841 26.24 212.281 27.8 209.941 27.8H199.801V43.4H209.941C212.281 43.4 213.841 44.96 213.841 47.3V60.3C213.841 62.64 212.281 64.2 209.941 64.2H199.801V77.2H209.941C212.281 77.2 213.841 78.76 213.841 81.1V94.1C213.841 96.44 212.281 98 209.941 98H181.991C179.651 98 178.091 96.44 178.091 94.1V10.9ZM228.137 63.68C218.257 63.68 215.787 61.21 215.787 51.33V24.81C215.787 12.85 224.627 6.34999 238.537 6.34999C252.447 6.34999 261.287 12.85 261.287 24.81V38.33C261.287 40.67 259.727 42.23 257.387 42.23H243.477C241.137 42.23 239.577 40.67 239.577 38.33V29.36C239.577 27.93 239.447 27.15 238.537 27.15C237.627 27.15 237.497 27.93 237.497 29.36V37.29C237.497 43.14 238.927 44.44 244.647 44.44H248.937C258.557 44.44 261.287 47.17 261.287 56.79V80.19C261.287 92.15 252.447 98.65 238.537 98.65C224.627 98.65 215.787 92.15 215.787 80.19V70.05C215.787 67.71 217.347 66.15 219.687 66.15H233.597C235.937 66.15 237.497 67.71 237.497 70.05V75.64C237.497 77.07 237.627 77.85 238.537 77.85C239.447 77.85 239.577 77.07 239.577 75.64V70.44C239.577 65.37 237.497 63.68 232.427 63.68H228.137ZM263.53 80.06C263.53 77.72 265.09 76.16 267.43 76.16H281.34C283.68 76.16 285.24 77.72 285.24 80.06V100.47C285.24 102.81 283.68 104.37 281.34 104.37H277.57C275.23 104.37 273.67 102.81 273.67 100.47V98H267.43C265.09 98 263.53 96.44 263.53 94.1V80.06ZM319.629 10.9C319.629 8.56 321.189 6.99999 323.529 6.99999H360.579C362.919 6.99999 364.479 8.56 364.479 10.9V23.9C364.479 26.24 362.919 27.8 360.579 27.8H352.909V94.1C352.909 96.44 351.349 98 349.009 98H335.099C332.759 98 331.199 96.44 331.199 94.1V27.8H323.529C321.189 27.8 319.629 26.24 319.629 23.9V10.9ZM366.489 10.9C366.489 8.56 368.049 6.99999 370.389 6.99999H384.299C386.639 6.99999 388.199 8.56 388.199 10.9V43.92H390.279V10.9C390.279 8.56 391.839 6.99999 394.179 6.99999H408.089C410.429 6.99999 411.989 8.56 411.989 10.9V94.1C411.989 96.44 410.429 98 408.089 98H394.179C391.839 98 390.279 96.44 390.279 94.1V64.72H388.199V94.1C388.199 96.44 386.639 98 384.299 98H370.389C368.049 98 366.489 96.44 366.489 94.1V10.9ZM414.605 10.9C414.605 8.56 416.165 6.99999 418.505 6.99999H446.455C448.795 6.99999 450.355 8.56 450.355 10.9V23.9C450.355 26.24 448.795 27.8 446.455 27.8H436.315V43.4H446.455C448.795 43.4 450.355 44.96 450.355 47.3V60.3C450.355 62.64 448.795 64.2 446.455 64.2H436.315V77.2H446.455C448.795 77.2 450.355 78.76 450.355 81.1V94.1C450.355 96.44 448.795 98 446.455 98H418.505C416.165 98 414.605 96.44 414.605 94.1V10.9ZM485.191 10.9C485.191 8.56 486.751 6.99999 489.091 6.99999H517.041C519.381 6.99999 520.941 8.56 520.941 10.9V23.9C520.941 26.24 519.381 27.8 517.041 27.8H506.901V43.4H517.041C519.381 43.4 520.941 44.96 520.941 47.3V60.3C520.941 62.64 519.381 64.2 517.041 64.2H506.901V77.2H517.041C519.381 77.2 520.941 78.76 520.941 81.1V94.1C520.941 96.44 519.381 98 517.041 98H489.091C486.751 98 485.191 96.44 485.191 94.1V10.9ZM521.977 10.9C521.847 8.69 523.407 6.99999 525.877 6.99999H539.787C542.127 6.99999 543.557 8.56 543.687 10.9L546.937 77.07H547.717L550.837 10.9C550.967 8.43 552.527 6.99999 554.737 6.99999H568.647C571.117 6.99999 572.807 8.69 572.547 10.9L565.397 94.1C565.137 96.44 563.837 98 561.497 98H533.157C530.817 98 529.387 96.44 529.257 94.1L521.977 10.9ZM573.804 10.9C573.804 8.56 575.364 6.99999 577.704 6.99999H605.654C607.994 6.99999 609.554 8.56 609.554 10.9V23.9C609.554 26.24 607.994 27.8 605.654 27.8H595.514V43.4H605.654C607.994 43.4 609.554 44.96 609.554 47.3V60.3C609.554 62.64 607.994 64.2 605.654 64.2H595.514V77.2H605.654C607.994 77.2 609.554 78.76 609.554 81.1V94.1C609.554 96.44 607.994 98 605.654 98H577.704C575.364 98 573.804 96.44 573.804 94.1V10.9ZM615.79 98C613.45 98 611.89 96.44 611.89 94.1V10.9C611.89 8.56 613.45 6.99999 615.79 6.99999H645.56C647.9 6.99999 649.46 8.56 649.46 10.9V77.2H651.41V10.9C651.41 8.56 652.97 6.99999 655.31 6.99999H669.22C671.56 6.99999 673.12 8.56 673.12 10.9V94.1C673.12 96.44 671.56 98 669.22 98H639.45C637.24 98 635.68 96.44 635.55 94.1V27.8H633.6V94.1C633.6 96.44 632.04 98 629.7 98H615.79ZM675.097 10.9C675.097 8.56 676.657 6.99999 678.997 6.99999H716.047C718.387 6.99999 719.947 8.56 719.947 10.9V23.9C719.947 26.24 718.387 27.8 716.047 27.8H708.377V94.1C708.377 96.44 706.817 98 704.477 98H690.567C688.227 98 686.667 96.44 686.667 94.1V27.8H678.997C676.657 27.8 675.097 26.24 675.097 23.9V10.9Z" fill="#020403"/>
<path d="M0.92793 140.9C0.92793 138.56 2.48793 137 4.82793 137H18.7379C21.0779 137 22.6379 138.56 22.6379 140.9V224.1C22.6379 226.44 21.0779 228 18.7379 228H4.82793C2.48793 228 0.92793 226.44 0.92793 224.1V140.9ZM37.136 193.68C27.256 193.68 24.786 191.21 24.786 181.33V154.81C24.786 142.85 33.626 136.35 47.536 136.35C61.446 136.35 70.286 142.85 70.286 154.81V168.33C70.286 170.67 68.726 172.23 66.386 172.23H52.476C50.136 172.23 48.576 170.67 48.576 168.33V159.36C48.576 157.93 48.446 157.15 47.536 157.15C46.626 157.15 46.496 157.93 46.496 159.36V167.29C46.496 173.14 47.926 174.44 53.646 174.44H57.936C67.556 174.44 70.286 177.17 70.286 186.79V210.19C70.286 222.15 61.446 228.65 47.536 228.65C33.626 228.65 24.786 222.15 24.786 210.19V200.05C24.786 197.71 26.346 196.15 28.686 196.15H42.596C44.936 196.15 46.496 197.71 46.496 200.05V205.64C46.496 207.07 46.626 207.85 47.536 207.85C48.446 207.85 48.576 207.07 48.576 205.64V200.44C48.576 195.37 46.496 193.68 41.426 193.68H37.136ZM104.639 154.81C104.639 142.85 113.479 136.35 127.389 136.35C141.299 136.35 150.139 142.85 150.139 154.81V173.53C150.139 175.87 148.579 177.43 146.239 177.43H132.329C129.989 177.43 128.429 175.87 128.429 173.53V159.36C128.429 157.93 128.299 157.15 127.389 157.15C126.479 157.15 126.349 157.93 126.349 159.36V205.64C126.349 207.07 126.479 207.85 127.389 207.85C128.299 207.85 128.429 207.07 128.429 205.64V183.41C128.429 181.07 129.989 179.51 132.329 179.51H146.239C148.579 179.51 150.139 181.07 150.139 183.41V210.19C150.139 222.15 141.299 228.65 127.389 228.65C113.479 228.65 104.639 222.15 104.639 210.19V154.81ZM174.743 228.65C160.443 228.65 151.993 221.76 151.993 210.19V154.81C151.993 143.24 160.443 136.35 174.743 136.35C189.043 136.35 197.493 143.24 197.493 154.81V210.19C197.493 221.76 189.043 228.65 174.743 228.65ZM174.743 157.15C173.833 157.15 173.703 157.93 173.703 159.36V205.64C173.703 207.07 173.833 207.85 174.743 207.85C175.653 207.85 175.783 207.07 175.783 205.64V159.36C175.783 157.93 175.653 157.15 174.743 157.15ZM199.737 140.9C199.737 138.56 201.297 137 203.637 137H236.267C238.607 137 240.167 138.56 240.167 140.9V211.36H242.117V140.9C242.117 138.56 243.677 137 246.017 137H278.777C281.117 137 282.677 138.56 282.677 140.9V224.1C282.677 226.44 281.117 228 278.777 228H264.867C262.527 228 260.967 226.44 260.967 224.1V211.36L268.117 163H266.167L256.027 224.1C255.767 226.44 254.337 228 252.127 228H230.287C228.077 228 226.517 226.44 226.387 224.1L216.247 163H214.297L221.447 211.36V224.1C221.447 226.44 219.887 228 217.547 228H203.637C201.297 228 199.737 226.44 199.737 224.1V140.9ZM285.303 224.1V140.9C285.303 138.56 286.863 137 289.203 137H316.633C328.073 137 330.673 139.86 330.673 152.21V204.86C330.673 208.76 330.153 218.51 318.843 218.51H307.013V223.45C307.013 226.18 305.193 228 302.463 228H289.203C286.863 228 285.303 226.44 285.303 224.1ZM307.013 157.93V197.58H307.403C308.833 197.58 308.963 197.45 308.963 195.63V159.88C308.963 158.32 308.833 157.93 307.403 157.93H307.013ZM332.91 140.9C332.91 138.56 334.47 137 336.81 137H350.72C353.06 137 354.62 138.56 354.62 140.9V207.2H364.76C367.1 207.2 368.66 208.76 368.66 211.1V224.1C368.66 226.44 367.1 228 364.76 228H336.81C334.47 228 332.91 226.44 332.91 224.1V140.9ZM370.615 140.9C370.615 138.56 372.175 137 374.515 137H402.465C404.805 137 406.365 138.56 406.365 140.9V153.9C406.365 156.24 404.805 157.8 402.465 157.8H392.325V173.4H402.465C404.805 173.4 406.365 174.96 406.365 177.3V190.3C406.365 192.64 404.805 194.2 402.465 194.2H392.325V207.2H402.465C404.805 207.2 406.365 208.76 406.365 211.1V224.1C406.365 226.44 404.805 228 402.465 228H374.515C372.175 228 370.615 226.44 370.615 224.1V140.9ZM408.051 140.9C408.051 138.56 409.611 137 411.951 137H449.001C451.341 137 452.901 138.56 452.901 140.9V153.9C452.901 156.24 451.341 157.8 449.001 157.8H441.331V224.1C441.331 226.44 439.771 228 437.431 228H423.521C421.181 228 419.621 226.44 419.621 224.1V157.8H411.951C409.611 157.8 408.051 156.24 408.051 153.9V140.9ZM454.912 140.9C454.912 138.56 456.472 137 458.812 137H472.722C475.062 137 476.622 138.56 476.622 140.9V207.2H486.762C489.102 207.2 490.662 208.76 490.662 211.1V224.1C490.662 226.44 489.102 228 486.762 228H458.812C456.472 228 454.912 226.44 454.912 224.1V140.9ZM481.312 193.81V140.9C481.312 138.56 482.872 137 485.212 137H499.122C501.462 137 503.022 138.56 503.022 140.9V181.72C503.022 182.63 503.412 183.02 503.932 183.02C504.452 183.02 504.972 182.63 504.972 181.72V140.9C504.972 138.56 506.532 137 508.872 137H522.782C525.122 137 526.682 138.56 526.682 140.9V193.81C526.682 198.49 524.992 205.51 514.852 205.51V224.1C514.852 226.44 513.292 228 510.952 228H497.042C494.702 228 493.142 226.44 493.142 224.1V205.51C483.002 205.51 481.312 198.49 481.312 193.81ZM561.553 140.9C561.553 138.56 563.113 137 565.453 137H593.403C595.743 137 597.303 138.56 597.303 140.9V153.9C597.303 156.24 595.743 157.8 593.403 157.8H583.263V180.55H593.403C595.743 180.55 597.303 182.11 597.303 184.45V197.45C597.303 199.79 595.743 201.35 593.403 201.35H583.263V224.1C583.263 226.44 581.703 228 579.363 228H565.453C563.113 228 561.553 226.44 561.553 224.1V140.9ZM599.512 140.9C599.512 138.56 601.072 137 603.412 137H630.842C642.282 137 644.882 139.86 644.882 152.21V170.54C644.882 174.44 644.362 184.19 633.052 184.19H630.192V186.14H633.052C640.722 186.14 644.752 188.48 644.752 195.63V223.45C644.752 226.18 642.932 228 640.202 228H626.942C624.602 228 623.042 226.44 623.042 224.1V195.89C623.042 192.51 622.782 191.99 621.742 191.99H621.222V223.45C621.222 226.18 619.402 228 616.672 228H603.412C601.072 228 599.512 226.44 599.512 224.1V140.9ZM621.222 166.51H621.612C623.042 166.51 623.172 166.38 623.172 164.56V159.88C623.172 158.32 623.042 157.93 621.612 157.93H621.222V166.51ZM647.5 140.9C647.5 138.56 649.06 137 651.4 137H679.35C681.69 137 683.25 138.56 683.25 140.9V153.9C683.25 156.24 681.69 157.8 679.35 157.8H669.21V173.4H679.35C681.69 173.4 683.25 174.96 683.25 177.3V190.3C683.25 192.64 681.69 194.2 679.35 194.2H669.21V207.2H679.35C681.69 207.2 683.25 208.76 683.25 211.1V224.1C683.25 226.44 681.69 228 679.35 228H651.4C649.06 228 647.5 226.44 647.5 224.1V140.9ZM685.586 140.9C685.586 138.56 687.146 137 689.486 137H717.436C719.776 137 721.336 138.56 721.336 140.9V153.9C721.336 156.24 719.776 157.8 717.436 157.8H707.296V173.4H717.436C719.776 173.4 721.336 174.96 721.336 177.3V190.3C721.336 192.64 719.776 194.2 717.436 194.2H707.296V207.2H717.436C719.776 207.2 721.336 208.76 721.336 211.1V224.1C721.336 226.44 719.776 228 717.436 228H689.486C687.146 228 685.586 226.44 685.586 224.1V140.9Z" fill="#BA0001"/>
</svg>
