<svg width="1088" height="229" viewBox="0 0 1088 229" fill="none" xmlns="http://www.w3.org/2000/svg">
<path d="M0.417188 94.1V10.9C0.417188 8.56 1.97719 6.99999 4.31719 6.99999H31.7472C43.1872 6.99999 45.7872 9.86 45.7872 22.21V74.86C45.7872 78.76 45.2672 88.51 33.9572 88.51H22.1272V93.45C22.1272 96.18 20.3072 98 17.5772 98H4.31719C1.97719 98 0.417188 96.44 0.417188 94.1ZM22.1272 27.93V67.58H22.5172C23.9472 67.58 24.0772 67.45 24.0772 65.63V29.88C24.0772 28.32 23.9472 27.93 22.5172 27.93H22.1272ZM50.6246 98C48.1546 98 46.5946 96.31 46.7246 94.1L54.0046 10.9C54.1346 8.56 55.5646 6.99999 57.9046 6.99999H86.2446C88.5846 6.99999 89.8846 8.56 90.1446 10.9L97.2946 94.1C97.5546 96.31 95.8646 98 93.3946 98H79.4846C77.2746 98 75.7146 96.57 75.5846 94.1L75.1946 85.26H68.8246L68.4346 94.1C68.3046 96.44 66.8746 98 64.5346 98H50.6246ZM69.8646 64.46H74.1546L72.4646 27.8H71.6846L69.8646 64.46ZM110.512 63.68C100.632 63.68 98.162 61.21 98.162 51.33V24.81C98.162 12.85 107.002 6.34999 120.912 6.34999C134.822 6.34999 143.662 12.85 143.662 24.81V38.33C143.662 40.67 142.102 42.23 139.762 42.23H125.852C123.512 42.23 121.952 40.67 121.952 38.33V29.36C121.952 27.93 121.822 27.15 120.912 27.15C120.002 27.15 119.872 27.93 119.872 29.36V37.29C119.872 43.14 121.302 44.44 127.022 44.44H131.312C140.932 44.44 143.662 47.17 143.662 56.79V80.19C143.662 92.15 134.822 98.65 120.912 98.65C107.002 98.65 98.162 92.15 98.162 80.19V70.05C98.162 67.71 99.722 66.15 102.062 66.15H115.972C118.312 66.15 119.872 67.71 119.872 70.05V75.64C119.872 77.07 120.002 77.85 120.912 77.85C121.822 77.85 121.952 77.07 121.952 75.64V70.44C121.952 65.37 119.872 63.68 114.802 63.68H110.512ZM145.255 10.9C145.255 8.56 146.815 6.99999 149.155 6.99999H186.205C188.545 6.99999 190.105 8.56 190.105 10.9V23.9C190.105 26.24 188.545 27.8 186.205 27.8H178.535V94.1C178.535 96.44 176.975 98 174.635 98H160.725C158.385 98 156.825 96.44 156.825 94.1V27.8H149.155C146.815 27.8 145.255 26.24 145.255 23.9V10.9ZM224.616 10.9C224.616 8.56 226.176 6.99999 228.516 6.99999H256.466C258.806 6.99999 260.366 8.56 260.366 10.9V23.9C260.366 26.24 258.806 27.8 256.466 27.8H246.326V43.4H256.466C258.806 43.4 260.366 44.96 260.366 47.3V60.3C260.366 62.64 258.806 64.2 256.466 64.2H246.326V77.2H256.466C258.806 77.2 260.366 78.76 260.366 81.1V94.1C260.366 96.44 258.806 98 256.466 98H228.516C226.176 98 224.616 96.44 224.616 94.1V10.9ZM261.402 10.9C261.272 8.69 262.832 6.99999 265.302 6.99999H279.212C281.552 6.99999 282.982 8.56 283.112 10.9L286.362 77.07H287.142L290.262 10.9C290.392 8.43 291.952 6.99999 294.162 6.99999H308.072C310.542 6.99999 312.232 8.69 311.972 10.9L304.822 94.1C304.562 96.44 303.262 98 300.922 98H272.582C270.242 98 268.812 96.44 268.682 94.1L261.402 10.9ZM313.23 10.9C313.23 8.56 314.79 6.99999 317.13 6.99999H345.08C347.42 6.99999 348.98 8.56 348.98 10.9V23.9C348.98 26.24 347.42 27.8 345.08 27.8H334.94V43.4H345.08C347.42 43.4 348.98 44.96 348.98 47.3V60.3C348.98 62.64 347.42 64.2 345.08 64.2H334.94V77.2H345.08C347.42 77.2 348.98 78.76 348.98 81.1V94.1C348.98 96.44 347.42 98 345.08 98H317.13C314.79 98 313.23 96.44 313.23 94.1V10.9ZM355.216 98C352.876 98 351.316 96.44 351.316 94.1V10.9C351.316 8.56 352.876 6.99999 355.216 6.99999H384.986C387.326 6.99999 388.886 8.56 388.886 10.9V77.2H390.836V10.9C390.836 8.56 392.396 6.99999 394.736 6.99999H408.646C410.986 6.99999 412.546 8.56 412.546 10.9V94.1C412.546 96.44 410.986 98 408.646 98H378.876C376.666 98 375.106 96.44 374.976 94.1V27.8H373.026V94.1C373.026 96.44 371.466 98 369.126 98H355.216ZM414.523 10.9C414.523 8.56 416.083 6.99999 418.423 6.99999H455.473C457.813 6.99999 459.373 8.56 459.373 10.9V23.9C459.373 26.24 457.813 27.8 455.473 27.8H447.803V94.1C447.803 96.44 446.243 98 443.903 98H429.993C427.653 98 426.093 96.44 426.093 94.1V27.8H418.423C416.083 27.8 414.523 26.24 414.523 23.9V10.9ZM473.344 63.68C463.464 63.68 460.994 61.21 460.994 51.33V24.81C460.994 12.85 469.834 6.34999 483.744 6.34999C497.654 6.34999 506.494 12.85 506.494 24.81V38.33C506.494 40.67 504.934 42.23 502.594 42.23H488.684C486.344 42.23 484.784 40.67 484.784 38.33V29.36C484.784 27.93 484.654 27.15 483.744 27.15C482.834 27.15 482.704 27.93 482.704 29.36V37.29C482.704 43.14 484.134 44.44 489.854 44.44H494.144C503.764 44.44 506.494 47.17 506.494 56.79V80.19C506.494 92.15 497.654 98.65 483.744 98.65C469.834 98.65 460.994 92.15 460.994 80.19V70.05C460.994 67.71 462.554 66.15 464.894 66.15H478.804C481.144 66.15 482.704 67.71 482.704 70.05V75.64C482.704 77.07 482.834 77.85 483.744 77.85C484.654 77.85 484.784 77.07 484.784 75.64V70.44C484.784 65.37 482.704 63.68 477.634 63.68H473.344Z" fill="#BA0001"/>
<path d="M541.238 10.9C541.238 8.56 542.798 6.99999 545.138 6.99999H559.047C561.388 6.99999 562.948 8.56 562.948 10.9V94.1C562.948 96.44 561.388 98 559.047 98H545.138C542.798 98 541.238 96.44 541.238 94.1V10.9ZM569.386 98C567.046 98 565.486 96.44 565.486 94.1V10.9C565.486 8.56 567.046 6.99999 569.386 6.99999H599.156C601.496 6.99999 603.056 8.56 603.056 10.9V77.2H605.006V10.9C605.006 8.56 606.566 6.99999 608.906 6.99999H622.816C625.156 6.99999 626.716 8.56 626.716 10.9V94.1C626.716 96.44 625.156 98 622.816 98H593.046C590.836 98 589.276 96.44 589.146 94.1V27.8H587.196V94.1C587.196 96.44 585.636 98 583.296 98H569.386ZM629.343 10.9C629.343 8.56 630.903 6.99999 633.243 6.99999H661.193C663.533 6.99999 665.093 8.56 665.093 10.9V23.9C665.093 26.24 663.533 27.8 661.193 27.8H651.053V50.55H661.193C663.533 50.55 665.093 52.11 665.093 54.45V67.45C665.093 69.79 663.533 71.35 661.193 71.35H651.053V94.1C651.053 96.44 649.493 98 647.153 98H633.243C630.903 98 629.343 96.44 629.343 94.1V10.9ZM666.912 79.02V10.9C666.912 8.56 668.472 6.99999 670.812 6.99999H684.722C687.062 6.99999 688.622 8.56 688.622 10.9V76.29C688.622 77.46 689.142 77.72 689.662 77.72C690.052 77.72 690.572 77.46 690.572 76.29V10.9C690.572 8.56 692.132 6.99999 694.472 6.99999H708.382C710.722 6.99999 712.282 8.56 712.282 10.9V79.02C712.282 92.41 703.702 98.65 689.662 98.65C676.662 98.65 666.912 92.41 666.912 79.02ZM726.489 63.68C716.609 63.68 714.139 61.21 714.139 51.33V24.81C714.139 12.85 722.979 6.34999 736.889 6.34999C750.799 6.34999 759.639 12.85 759.639 24.81V38.33C759.639 40.67 758.079 42.23 755.739 42.23H741.829C739.489 42.23 737.929 40.67 737.929 38.33V29.36C737.929 27.93 737.799 27.15 736.889 27.15C735.979 27.15 735.849 27.93 735.849 29.36V37.29C735.849 43.14 737.279 44.44 742.999 44.44H747.289C756.909 44.44 759.639 47.17 759.639 56.79V80.19C759.639 92.15 750.799 98.65 736.889 98.65C722.979 98.65 714.139 92.15 714.139 80.19V70.05C714.139 67.71 715.699 66.15 718.039 66.15H731.949C734.289 66.15 735.849 67.71 735.849 70.05V75.64C735.849 77.07 735.979 77.85 736.889 77.85C737.799 77.85 737.929 77.07 737.929 75.64V70.44C737.929 65.37 735.849 63.68 730.779 63.68H726.489ZM761.882 10.9C761.882 8.56 763.442 6.99999 765.782 6.99999H793.732C796.072 6.99999 797.632 8.56 797.632 10.9V23.9C797.632 26.24 796.072 27.8 793.732 27.8H783.592V43.4H793.732C796.072 43.4 797.632 44.96 797.632 47.3V60.3C797.632 62.64 796.072 64.2 793.732 64.2H783.592V77.2H793.732C796.072 77.2 797.632 78.76 797.632 81.1V94.1C797.632 96.44 796.072 98 793.732 98H765.782C763.442 98 761.882 96.44 761.882 94.1V10.9ZM799.968 94.1V10.9C799.968 8.56 801.528 6.99999 803.868 6.99999H831.298C842.608 6.99999 845.338 9.98999 845.338 22.21V80.32C845.338 93.58 841.828 98 831.298 98H803.868C801.528 98 799.968 96.44 799.968 94.1ZM821.678 77.2H822.068C823.498 77.2 823.628 76.94 823.628 75.25V29.88C823.628 28.32 823.498 27.93 822.068 27.93H821.678V77.2ZM878.902 10.9C878.772 8.69 880.332 6.99999 882.802 6.99999H898.012C900.352 6.99999 901.782 8.56 901.912 10.9L905.162 77.07H907.112L909.062 10.9C909.192 8.43 910.752 6.99999 912.962 6.99999H936.232C938.572 6.99999 940.002 8.56 940.132 10.9L942.082 77.07H944.032L947.282 10.9C947.412 8.43 948.972 6.99999 951.182 6.99999H966.392C968.862 6.99999 970.422 8.69 970.292 10.9L963.012 94.1C962.882 96.44 961.452 98 959.112 98H929.472C927.132 98 925.572 96.44 925.572 94.1V47.69H923.622V94.1C923.622 96.44 922.062 98 919.722 98H890.082C887.742 98 886.312 96.44 886.182 94.1L878.902 10.9ZM971.609 10.9C971.609 8.56 973.169 6.99999 975.509 6.99999H989.419C991.759 6.99999 993.319 8.56 993.319 10.9V94.1C993.319 96.44 991.759 98 989.419 98H975.509C973.169 98 971.609 96.44 971.609 94.1V10.9ZM995.207 10.9C995.207 8.56 996.767 6.99999 999.107 6.99999H1036.16C1038.5 6.99999 1040.06 8.56 1040.06 10.9V23.9C1040.06 26.24 1038.5 27.8 1036.16 27.8H1028.49V94.1C1028.49 96.44 1026.93 98 1024.59 98H1010.68C1008.34 98 1006.78 96.44 1006.78 94.1V27.8H999.107C996.767 27.8 995.207 26.24 995.207 23.9V10.9ZM1042.07 10.9C1042.07 8.56 1043.63 6.99999 1045.97 6.99999H1059.88C1062.22 6.99999 1063.78 8.56 1063.78 10.9V43.92H1065.86V10.9C1065.86 8.56 1067.42 6.99999 1069.76 6.99999H1083.67C1086.01 6.99999 1087.57 8.56 1087.57 10.9V94.1C1087.57 96.44 1086.01 98 1083.67 98H1069.76C1067.42 98 1065.86 96.44 1065.86 94.1V64.72H1063.78V94.1C1063.78 96.44 1062.22 98 1059.88 98H1045.97C1043.63 98 1042.07 96.44 1042.07 94.1V10.9ZM42.6291 224.1V140.9C42.6291 138.56 44.1891 137 46.5291 137H73.9591C85.3991 137 87.9991 139.86 87.9991 152.21V204.86C87.9991 208.76 87.4791 218.51 76.1691 218.51H64.3391V223.45C64.3391 226.18 62.5191 228 59.7891 228H46.5291C44.1891 228 42.6291 226.44 42.6291 224.1ZM64.3391 157.93V197.58H64.7291C66.1591 197.58 66.2891 197.45 66.2891 195.63V159.88C66.2891 158.32 66.1591 157.93 64.7291 157.93H64.3391ZM90.2365 140.9C90.2365 138.56 91.7965 137 94.1365 137H108.047C110.387 137 111.947 138.56 111.947 140.9V224.1C111.947 226.44 110.387 228 108.047 228H94.1365C91.7965 228 90.2365 226.44 90.2365 224.1V140.9ZM114.095 154.81C114.095 142.85 122.935 136.35 136.845 136.35C150.755 136.35 159.595 142.85 159.595 154.81V173.53C159.595 175.87 158.035 177.43 155.695 177.43H141.785C139.445 177.43 137.885 175.87 137.885 173.53V159.36C137.885 157.93 137.755 157.15 136.845 157.15C135.935 157.15 135.805 157.93 135.805 159.36V205.64C135.805 207.07 135.935 207.85 136.845 207.85C137.755 207.85 137.885 207.07 137.885 205.64V183.41C137.885 181.07 139.445 179.51 141.785 179.51H155.695C158.035 179.51 159.595 181.07 159.595 183.41V210.19C159.595 222.15 150.755 228.65 136.845 228.65C122.935 228.65 114.095 222.15 114.095 210.19V154.81ZM164.438 228C161.968 228 160.408 226.31 160.538 224.1L167.818 140.9C167.948 138.56 169.378 137 171.718 137H200.058C202.398 137 203.698 138.56 203.958 140.9L211.108 224.1C211.368 226.31 209.678 228 207.208 228H193.298C191.088 228 189.528 226.57 189.398 224.1L189.008 215.26H182.638L182.248 224.1C182.118 226.44 180.688 228 178.348 228H164.438ZM183.678 194.46H187.968L186.278 157.8H185.498L183.678 194.46ZM224.325 193.68C214.445 193.68 211.975 191.21 211.975 181.33V154.81C211.975 142.85 220.815 136.35 234.725 136.35C248.635 136.35 257.475 142.85 257.475 154.81V168.33C257.475 170.67 255.915 172.23 253.575 172.23H239.665C237.325 172.23 235.765 170.67 235.765 168.33V159.36C235.765 157.93 235.635 157.15 234.725 157.15C233.815 157.15 233.685 157.93 233.685 159.36V167.29C233.685 173.14 235.115 174.44 240.835 174.44H245.125C254.745 174.44 257.475 177.17 257.475 186.79V210.19C257.475 222.15 248.635 228.65 234.725 228.65C220.815 228.65 211.975 222.15 211.975 210.19V200.05C211.975 197.71 213.535 196.15 215.875 196.15H229.785C232.125 196.15 233.685 197.71 233.685 200.05V205.64C233.685 207.07 233.815 207.85 234.725 207.85C235.635 207.85 235.765 207.07 235.765 205.64V200.44C235.765 195.37 233.685 193.68 228.615 193.68H224.325ZM271.679 193.68C261.799 193.68 259.329 191.21 259.329 181.33V154.81C259.329 142.85 268.169 136.35 282.079 136.35C295.989 136.35 304.829 142.85 304.829 154.81V168.33C304.829 170.67 303.269 172.23 300.929 172.23H287.019C284.679 172.23 283.119 170.67 283.119 168.33V159.36C283.119 157.93 282.989 157.15 282.079 157.15C281.169 157.15 281.039 157.93 281.039 159.36V167.29C281.039 173.14 282.469 174.44 288.189 174.44H292.479C302.099 174.44 304.829 177.17 304.829 186.79V210.19C304.829 222.15 295.989 228.65 282.079 228.65C268.169 228.65 259.329 222.15 259.329 210.19V200.05C259.329 197.71 260.889 196.15 263.229 196.15H277.139C279.479 196.15 281.039 197.71 281.039 200.05V205.64C281.039 207.07 281.169 207.85 282.079 207.85C282.989 207.85 283.119 207.07 283.119 205.64V200.44C283.119 195.37 281.039 193.68 275.969 193.68H271.679ZM329.432 228.65C315.132 228.65 306.682 221.76 306.682 210.19V154.81C306.682 143.24 315.132 136.35 329.432 136.35C343.732 136.35 352.182 143.24 352.182 154.81V210.19C352.182 221.76 343.732 228.65 329.432 228.65ZM329.432 157.15C328.522 157.15 328.392 157.93 328.392 159.36V205.64C328.392 207.07 328.522 207.85 329.432 207.85C330.342 207.85 330.472 207.07 330.472 205.64V159.36C330.472 157.93 330.342 157.15 329.432 157.15ZM354.426 140.9C354.426 138.56 355.986 137 358.326 137H372.236C374.576 137 376.136 138.56 376.136 140.9V161.18C376.136 163.52 374.576 165.08 372.236 165.08H368.466C366.126 165.08 364.566 163.52 364.566 161.18V158.84H358.326C355.986 158.84 354.426 157.28 354.426 154.94V140.9ZM390.634 193.68C380.754 193.68 378.284 191.21 378.284 181.33V154.81C378.284 142.85 387.124 136.35 401.034 136.35C414.944 136.35 423.784 142.85 423.784 154.81V168.33C423.784 170.67 422.224 172.23 419.884 172.23H405.974C403.634 172.23 402.074 170.67 402.074 168.33V159.36C402.074 157.93 401.944 157.15 401.034 157.15C400.124 157.15 399.994 157.93 399.994 159.36V167.29C399.994 173.14 401.424 174.44 407.144 174.44H411.434C421.054 174.44 423.784 177.17 423.784 186.79V210.19C423.784 222.15 414.944 228.65 401.034 228.65C387.124 228.65 378.284 222.15 378.284 210.19V200.05C378.284 197.71 379.844 196.15 382.184 196.15H396.094C398.434 196.15 399.994 197.71 399.994 200.05V205.64C399.994 207.07 400.124 207.85 401.034 207.85C401.944 207.85 402.074 207.07 402.074 205.64V200.44C402.074 195.37 399.994 193.68 394.924 193.68H390.634ZM461.128 228C458.658 228 457.098 226.31 457.228 224.1L464.508 140.9C464.638 138.56 466.068 137 468.408 137H496.748C499.088 137 500.388 138.56 500.648 140.9L507.798 224.1C508.058 226.31 506.368 228 503.898 228H489.988C487.778 228 486.218 226.57 486.088 224.1L485.698 215.26H479.328L478.938 224.1C478.808 226.44 477.378 228 475.038 228H461.128ZM480.368 194.46H484.658L482.968 157.8H482.188L480.368 194.46ZM509.055 140.9C509.055 138.56 510.615 137 512.955 137H540.385C551.825 137 554.425 139.86 554.425 152.21V170.54C554.425 174.44 553.905 184.19 542.595 184.19H539.735V186.14H542.595C550.265 186.14 554.295 188.48 554.295 195.63V223.45C554.295 226.18 552.475 228 549.745 228H536.485C534.145 228 532.585 226.44 532.585 224.1V195.89C532.585 192.51 532.325 191.99 531.285 191.99H530.765V223.45C530.765 226.18 528.945 228 526.215 228H512.955C510.615 228 509.055 226.44 509.055 224.1V140.9ZM530.765 166.51H531.155C532.585 166.51 532.715 166.38 532.715 164.56V159.88C532.715 158.32 532.585 157.93 531.155 157.93H530.765V166.51ZM556.393 140.9C556.393 138.56 557.953 137 560.293 137H597.343C599.683 137 601.243 138.56 601.243 140.9V153.9C601.243 156.24 599.683 157.8 597.343 157.8H589.673V224.1C589.673 226.44 588.113 228 585.773 228H571.863C569.523 228 567.963 226.44 567.963 224.1V157.8H560.293C557.953 157.8 556.393 156.24 556.393 153.9V140.9ZM638.354 228C635.884 228 634.324 226.31 634.454 224.1L641.734 140.9C641.864 138.56 643.294 137 645.634 137H673.974C676.314 137 677.614 138.56 677.874 140.9L685.024 224.1C685.284 226.31 683.594 228 681.124 228H667.214C665.004 228 663.444 226.57 663.314 224.1L662.924 215.26H656.554L656.164 224.1C656.034 226.44 654.604 228 652.264 228H638.354ZM657.594 194.46H661.884L660.194 157.8H659.414L657.594 194.46ZM690.181 228C687.841 228 686.281 226.44 686.281 224.1V140.9C686.281 138.56 687.841 137 690.181 137H719.951C722.291 137 723.851 138.56 723.851 140.9V207.2H725.801V140.9C725.801 138.56 727.361 137 729.701 137H743.611C745.951 137 747.511 138.56 747.511 140.9V224.1C747.511 226.44 745.951 228 743.611 228H713.841C711.631 228 710.071 226.44 709.941 224.1V157.8H707.991V224.1C707.991 226.44 706.431 228 704.091 228H690.181ZM750.139 224.1V140.9C750.139 138.56 751.699 137 754.039 137H781.469C792.779 137 795.509 139.99 795.509 152.21V210.32C795.509 223.58 791.999 228 781.469 228H754.039C751.699 228 750.139 226.44 750.139 224.1ZM771.849 207.2H772.239C773.669 207.2 773.799 206.94 773.799 205.25V159.88C773.799 158.32 773.669 157.93 772.239 157.93H771.849V207.2ZM829.073 140.9C828.943 138.69 830.503 137 832.973 137H848.183C850.523 137 851.953 138.56 852.083 140.9L855.333 207.07H857.283L859.233 140.9C859.363 138.43 860.923 137 863.133 137H886.403C888.743 137 890.173 138.56 890.303 140.9L892.253 207.07H894.203L897.453 140.9C897.583 138.43 899.143 137 901.353 137H916.563C919.033 137 920.593 138.69 920.463 140.9L913.183 224.1C913.053 226.44 911.623 228 909.283 228H879.643C877.303 228 875.743 226.44 875.743 224.1V177.69H873.793V224.1C873.793 226.44 872.233 228 869.893 228H840.253C837.913 228 836.483 226.44 836.353 224.1L829.073 140.9ZM921.779 140.9C921.779 138.56 923.339 137 925.679 137H939.589C941.929 137 943.489 138.56 943.489 140.9V224.1C943.489 226.44 941.929 228 939.589 228H925.679C923.339 228 921.779 226.44 921.779 224.1V140.9ZM949.928 228C947.588 228 946.028 226.44 946.028 224.1V140.9C946.028 138.56 947.588 137 949.928 137H979.698C982.038 137 983.598 138.56 983.598 140.9V207.2H985.548V140.9C985.548 138.56 987.108 137 989.448 137H1003.36C1005.7 137 1007.26 138.56 1007.26 140.9V224.1C1007.26 226.44 1005.7 228 1003.36 228H973.588C971.378 228 969.818 226.44 969.688 224.1V157.8H967.738V224.1C967.738 226.44 966.178 228 963.838 228H949.928ZM1009.88 140.9C1009.88 138.56 1011.44 137 1013.78 137H1041.73C1044.07 137 1045.63 138.56 1045.63 140.9V153.9C1045.63 156.24 1044.07 157.8 1041.73 157.8H1031.59V173.4H1041.73C1044.07 173.4 1045.63 174.96 1045.63 177.3V190.3C1045.63 192.64 1044.07 194.2 1041.73 194.2H1031.59V207.2H1041.73C1044.07 207.2 1045.63 208.76 1045.63 211.1V224.1C1045.63 226.44 1044.07 228 1041.73 228H1013.78C1011.44 228 1009.88 226.44 1009.88 224.1V140.9Z" fill="#FFF9E6"/>
</svg>
